<svg version="1.1" xmlns="http://www.w3.org/2000/svg" viewBox="0 0 512 512">

	<g class="charMaleGroup">
		<polygon class="mainDoll" points="244,0 268,0 282,16 278,60 268,70 270,76 320,86 360,292 344,292 306,160 298,232 330,490 366,502 366,512 304,512 260,292 252,292 208,512 146,512 146,502 182,490 214,232 206,160 168,292 152,292 192,86 242,76 244,70 234,60 230,16"/>
		<polygon class="part pants" points="300,248 320.1,410 285.2,418 260,292 252,292 226.8,418 191.9,410 212,248 256,256"/>
		<polygon class="part pants-belt" points="320.1,410 285.2,418 260,292 252,292 226.8,418 191.9,410 214,232 256,240 298,232"/>
		<polygon class="part belt" points="212,248 214,232 256,240 298,232 300,248 256,256"/>
		<polygon class="part chest" points="214,232 206,160 192,86 242,76 256,80 270,76 320,86 306,160 298,232 256,240"/>
		<polygon class="part chest-clavicles" points="192,86 242,76 256,80 270,76 320,86 348.3,232 329,240 306,160 298,232 256,240 214,232 206,160 183,240 163.7,232"/>
		<polygon class="part neck" points="242,76 244,70 256,72 268,70 270,76 256,80"/>
		<polygon class="part head" points="244,70 234,60 230,16 244,0 268,0 282,16 278,60 268,70 256,72"/>
		<polygon class="part head-neck" points="244,70 234,60 230,16 244,0 268,0 282,16 278,60 268,70 270,76 256,80 242,76"/>
		<polygon class="part mask" points="279.6,42 278,60 268,70 256,72 244,70 234,60 232.4,42 256,48"/>
		<g class="part group eyes">
			<polygon class="part eye right" points="238,20 240,30 252,30 252,27"/>
			<polygon class="part eye left" points="274,20 272,30 260,30 260,27"/>
		</g>
		<g class="part group boots">
			<polygon class="part boot right" points="226.8,418 208,512 146,512 146,502 182,490 191.9,410"/>
			<polygon class="part boot left" points="320.1,410 330,490 366,502 366,512 304,512 285.2,418"/>
		</g>
		<g class="part group clavicles">
			<polygon class="part clavicle right" points="206,160 183,240 163.7,232 192,86"/>
			<polygon class="part clavicle left" points="320,86 348.3,232 329,240 306,160"/>
		</g>
		<g class="part group arms">
			<polygon class="part arm right" points="183,240 168,292 152,292 163.7,232"/>
			<polygon class="part arm left" points="348.3,232 360,292 344,292 329,240"/>
		</g>
		<g class="part group straps">
			<polygon class="part strap left" points="284,78.8 296,81.2 274,140 296,178 304,178 302.7,190 290,190 262,140"/>
			<polygon class="part strap right" points="238,140 216,81.2 228,78.8 250.3,140 222,190 209.3,190 208,178 216,178"/>
		</g>
	</g>

	<g class="charFemaleGroup">
		<polygon class="mainDoll" points="244,0 268,0 282,16 288,60 268,64 268,70 270,76 312,92 360,292 344,292 302,154.6 288,204 302,256 330,490 366,502 366,512 304,512 260,292 252,292 208,512 146,512 146,502 182,490 210,256 224,204 210,154.6 168,292 152,292 200,92 242,76 244,70 244,64 224,59.9 230,16"/>

		<polygon class="part pants" points="299.8,248 302,256 320.4,410 285.2,418 260,292 252,292 226.8,418 191.6,410 210,256 212.2,248 256,256"/>
		<polygon class="part pants-belt" points="302,256 320.4,410 285.2,418 260,292 252,292 226.8,418 191.6,410 210,256 216.5,232 295.5,232"/>
		<polygon class="part belt" points="212.2,248 216.5,232 256,240 295.5,232 299.8,248 256,256"/>
		<polygon class="part chest" points="216.5,232 224,204 210,154.6 200,92 242,76 256,80 270,76 312,92 302,154.6 288,204 295.5,232 256,240"/>
		<polygon class="part chest-clavicles" points="345.6,232 328.1,240 302,154.6 288,204 295.5,232 256,240 216.5,232 224,204 210,154.6 183.9,240 166.4,232 200,92 242,76 256,80 270,76 312,92"/>
		<polygon class="part neck" points="242,76 244,70 244,64 256,66 268,64 268,70 270,76 256,80"/>
		<polygon class="part head" points="244,64 224,59.9 230,16 244,0 268,0 282,16 288,60 268,64 256,66"/>
		<polygon class="part head-neck" points="244,64 224,59.9 230,16 244,0 268,0 282,16 288,60 268,64 268,70 270,76 256,80 242,76 244,70"/>
		<polygon class="part mask" points="276,42 274,56 268,64 256,66 244,64 238,56 236,42 256,48"/>
		<g class="part group eyes">
			<polygon class="part eye right" points="238,20 240,30 252,30 252,27"/>
			<polygon class="part eye left" points="274,20 272,30 260,30 260,27"/>
		</g>
		<g class="part group boots">
			<polygon class="part boot right" points="226.8,418 208,512 146,512 146,502 182,490 191.6,410"/>
			<polygon class="part boot left" points="320.4,410 330,490 366,502 366,512 304,512 285.2,418"/>
		</g>
		<g class="part group clavicles">
			<polygon class="part clavicle right" points="210,154.6 183.9,240 166.4,232 200,92"/>
			<polygon class="part clavicle left" points="312,92 345.6,232 328.1,240 302,154.6"/>
		</g>
		<g class="part group arms">
			<polygon class="part arm right" points="183.9,240 168,292 152,292 166.4,232"/>
			<polygon class="part arm left" points="345.6,232 360,292 344,292 328.1,240"/>
		</g>
		<g class="part group straps">
			<polygon class="part strap left" points="292,190 290,190 262,140 284,81.3 296,85.9 274,140 295.4,178"/>
			<polygon class="part strap right" points="216.6,178 238,140 216,85.9 228,81.3 250.3,140 222,190 220,190"/>
		</g>
	</g>


</svg>
