<svg version="1.1" xmlns="http://www.w3.org/2000/svg" viewBox="0 0 512 512">
	<path fill="#7ac2d3" d="M256,0C114.6,0,0,114.6,0,256c0,80.6,37.2,152.4,95.4,199.3v-41c0-25.7,18.8-47.9,45-53l51.4-9.9 c2.2,1.5,4.3,2.8,6.5,4.1c9.2-4.9,15.1-14.6,15.1-25.2v-17.8c-30.1-23.2-50.7-68.5-50.7-111.9c0-61.9,41.8-97.4,93.4-97.4 s93.4,35.5,93.4,97.4c0,43.4-20.6,88.7-50.7,111.9v19.2c0,10,5.3,19.2,13.7,24.4c5.1-2.7,7.9-4.6,7.9-4.6l51.4,9.9 c26.2,5,45,27.2,45,53v41C474.8,408.4,512,336.6,512,256C512,114.6,397.4,0,256,0z"/>
</svg>