<svg xmlns="http://www.w3.org/2000/svg" viewBox="0 0 16 16">
<path d="M15.5 16h-5.5v-2q0-0.828-0.586-1.414t-1.414-0.586-1.414 0.586-0.586 1.414v2h-5.5q-0.203 0-0.352-0.148t-0.148-0.352v-9.5h1v0.5q0 0.203 0.148 0.352t0.352 0.148 0.352-0.148 0.148-0.352v-0.5h1v0.5q0 0.203 0.148 0.352t0.352 0.148 0.352-0.148 0.148-0.352v-0.5h1v-3h-0.5q-0.203 0-0.352-0.148t-0.148-0.352v-2q0-0.203 0.148-0.352t0.352-0.148h0.5v0.5q0 0.203 0.148 0.352t0.352 0.148 0.352-0.148 0.148-0.352v-0.5h1v0.5q0 0.203 0.148 0.352t0.352 0.148h1q0.203 0 0.352-0.148t0.148-0.352v-0.5h1v0.5q0 0.203 0.148 0.352t0.352 0.148 0.352-0.148 0.148-0.352v-0.5h0.5q0.203 0 0.352 0.148t0.148 0.352v2q0 0.203-0.148 0.352t-0.352 0.148h-0.5v3h1v0.5q0 0.203 0.148 0.352t0.352 0.148 0.352-0.148 0.148-0.352v-0.5h1v0.5q0 0.203 0.148 0.352t0.352 0.148 0.352-0.148 0.148-0.352v-0.5h1v9.5q0 0.203-0.148 0.352t-0.352 0.148zM4 10q0-0.406-0.297-0.703t-0.711-0.297-0.703 0.297-0.289 0.703v1h2v-1zM9 4q0-0.406-0.297-0.703t-0.711-0.297-0.703 0.297-0.289 0.703v1h2v-1zM14 10q0-0.406-0.297-0.703t-0.711-0.297-0.703 0.297-0.289 0.703v1h2v-1z"/>
</svg>