<!-- Generated by IcoMoon.io -->
<svg version="1.1" xmlns="http://www.w3.org/2000/svg" width="16" height="16" viewBox="0 0 16 16">
<title>sword</title>
<path d="M0.156 15.047l0.797 0.797q0.156 0.156 0.383 0.156t0.398-0.156l2.797-2.813 1.828 1.828q0.141 0.156 0.359 0.156t0.375-0.156l0.75-0.75q0.156-0.156 0.156-0.375t-0.156-0.359l-1.328-1.328 9.234-9.234q0.063-0.078 0.117-0.164t0.078-0.148 0.039-0.148 0.016-0.133v-1.719q0-0.203-0.148-0.352t-0.352-0.148h-1.727t-0.125 0.016-0.148 0.039-0.148 0.078-0.164 0.117l-9.234 9.234-1.328-1.328q-0.141-0.156-0.359-0.156t-0.375 0.156l-0.75 0.75q-0.156 0.156-0.156 0.375t0.156 0.375l1.828 1.813-2.813 2.797q-0.156 0.172-0.156 0.398t0.156 0.383z"></path>
</svg>
