<svg version="1.1" xmlns="http://www.w3.org/2000/svg" viewBox="0 0 512 512">
	<circle fill="#34495E" cx="256" cy="256" r="256"/>
	<path fill="#FFD160" d="M356.255,367.949c0,5.809-4.749,10.563-10.555,10.563H166.308c-5.811,0-10.563-4.754-10.563-10.563 V217.357c0-5.821,4.751-10.563,10.563-10.563H345.7c5.806,0,10.555,4.741,10.555,10.563V367.949z"/>
	<path fill="#0575A5" d="M356.255,367.949c0,5.809-4.749,10.563-10.555,10.563H166.308c-5.811,0-10.563-4.754-10.563-10.563 V217.357c0-5.821,4.751-10.563,10.563-10.563H345.7c5.806,0,10.555,4.741,10.555,10.563V367.949z"/>
	<path fill="#E1EFFA" d="M356.255,357.33c0,5.809-4.749,10.57-10.555,10.57H166.308c-5.811,0-10.563-4.762-10.563-10.57 V239.081c0-5.821,4.751-10.57,10.563-10.57H345.7c5.806,0,10.555,4.746,10.555,10.57V357.33z"/>
	<path fill="#283A4D" d="M269.197,300.232c0-7.291-5.906-13.197-13.194-13.197c-7.293,0-13.207,5.908-13.207,13.197 c0,5.407,3.259,10.051,7.926,12.093v20.685c0,1.459,1.183,2.647,2.637,2.647h5.281c1.446,0,2.644-1.188,2.644-2.647v-20.685 C265.953,310.282,269.197,305.641,269.197,300.232z"/>
	<path fill="#0575A5" d="M356.255,233.608c0,5.801-4.749,10.557-10.555,10.557H166.308c-5.811,0-10.563-4.754-10.563-10.557 v-16.251c0-5.821,4.751-10.563,10.563-10.563H345.7c5.806,0,10.555,4.741,10.555,10.563V233.608z"/>
	<path fill="#FFFFFF" d="M328.248,183.736v35.812c0,3.264-5.166,5.914-11.561,5.914v-39.877 c0-33.487-27.205-60.675-60.685-60.675c-33.536,0-60.685,27.187-60.685,60.675v39.877c-6.392,0-11.571-2.65-11.571-5.914v-35.812 c0-39.877,32.379-72.197,72.253-72.197S328.248,143.859,328.248,183.736z"/>
	<path fill="#E1EFFA" d="M316.687,185.585v39.877c-6.387,0-11.574-2.65-11.574-5.914v-35.812 c0-27.039-22.026-49.065-49.108-49.065c-27.098,0-49.116,22.026-49.116,49.065v35.812c0,3.264-5.179,5.914-11.569,5.914v-39.877 c0-33.487,27.146-60.675,60.685-60.675C289.482,124.91,316.687,152.1,316.687,185.585z"/>
</svg>