<svg version="1.1" xmlns="http://www.w3.org/2000/svg" viewBox="0 0 512 512">
	<circle fill="#E1EFFA" cx="256" cy="256" r="256"/>
	<path fill="#34495E" d="M215.378,295.186h-47.012c-8.02,0-16.041-3.075-22.162-9.185c-6.121-6.118-9.175-14.136-9.175-22.172 v-15.654c0-8.033,3.054-16.054,9.175-22.172c6.121-6.111,14.141-9.185,22.162-9.185h47.014v78.369H215.378z"/>
	<path fill="#667A8C" d="M146.432,251.692c-1.948,0-3.525-1.58-3.525-3.52c0-6.804,2.642-13.204,7.452-18.007 c4.815-4.818,11.205-7.473,18.007-7.473c1.953,0,3.525,1.587,3.525,3.525c0,1.953-1.574,3.533-3.525,3.533 c-4.915,0-9.539,1.917-13.018,5.394c-3.479,3.484-5.396,8.105-5.396,13.028C149.952,250.112,148.378,251.692,146.432,251.692z"/>
	<g fill="#283A4D">
		<path d="M227.139,297.526c0,3.021-2.46,5.494-5.481,5.494h-0.788c-3.021,0-5.491-2.473-5.491-5.494v-83.049 c0-3.021,2.47-5.494,5.491-5.494h0.788c3.021,0,5.481,2.473,5.481,5.494V297.526z"/>
		<path d="M125.271,261.489c0,0.589,0.233,1.203,0.689,1.656c0.461,0.466,1.06,0.684,1.664,0.684h9.405 v-15.654h-9.405c-0.604,0-1.203,0.218-1.664,0.681c-0.456,0.456-0.689,1.062-0.689,1.656V261.489z"/>
	</g>
	<path fill="#34495E" d="M69.486,250.511c-1.4,0-2.808,0.532-3.876,1.615c-1.068,1.06-1.61,2.473-1.61,3.876 c0,1.398,0.54,2.808,1.608,3.876c1.068,1.075,2.476,1.608,3.876,1.608h55.785v-10.977H69.486V250.511z"/>
	<path fill="#E1EFFA" d="M264.707,228.219c-1.073-1.068-2.47-1.6-3.873-1.6h-33.695v10.977h33.697 c1.403,0,2.801-0.54,3.873-1.608c1.075-1.088,1.61-2.478,1.61-3.884S265.782,229.286,264.707,228.219z"/>
	<path fill="#F6F8FB" d="M263.726,233.08c-0.533,0-0.975-0.428-0.975-0.975c0-0.512-0.197-0.991-0.563-1.354 c-0.358-0.366-0.85-0.568-1.352-0.568h-31.109c-0.54,0-0.983-0.435-0.983-0.983c0-0.54,0.443-0.975,0.983-0.975h31.109 c1.039,0,2.004,0.407,2.739,1.137c0.732,0.737,1.132,1.7,1.132,2.747C264.707,232.65,264.271,233.08,263.726,233.08z"/>
	<path fill="#E1EFFA" d="M264.707,276.019c-1.073-1.075-2.47-1.595-3.873-1.595h-33.695v10.962h33.697 c1.403,0,2.801-0.54,3.873-1.592c1.075-1.083,1.61-2.488,1.61-3.899C266.317,278.492,265.782,277.1,264.707,276.019z"/>
	<path fill="#F6F8FB" d="M263.726,280.881c-0.533,0-0.975-0.443-0.975-0.986c0-0.504-0.197-0.996-0.563-1.347 c-0.358-0.366-0.85-0.568-1.352-0.568h-31.109c-0.54,0-0.983-0.43-0.983-0.978c0-0.54,0.443-0.983,0.983-0.983h31.109 c1.039,0,2.004,0.399,2.739,1.137c0.732,0.73,1.132,1.708,1.132,2.737C264.707,280.438,264.271,280.881,263.726,280.881z"/>
	<g fill="#34495E">
		<rect x="227.149" y="226.611" width="10.967" height="10.977"/>
		<rect x="227.149" y="274.432" width="10.967" height="10.962"/>
		<path d="M296.617,295.186h47.017c8.02,0,16.049-3.075,22.164-9.185c6.113-6.118,9.167-14.136,9.167-22.172 v-15.654c0-8.033-3.054-16.054-9.167-22.172c-6.118-6.111-14.144-9.185-22.164-9.185h-47.017V295.186z"/>
	</g>
	<g fill="#283A4D">
		<path d="M284.864,297.526c0,3.021,2.458,5.494,5.484,5.494h0.783c3.023,0,5.489-2.473,5.489-5.494v-83.049 c0-3.021-2.465-5.494-5.489-5.494h-0.783c-3.026,0-5.484,2.473-5.484,5.494V297.526z"/>
		<path d="M386.724,261.489c0,0.589-0.225,1.203-0.686,1.656c-0.463,0.466-1.06,0.684-1.664,0.684h-9.408 v-15.654h9.408c0.604,0,1.203,0.218,1.664,0.681c0.461,0.456,0.686,1.062,0.686,1.656V261.489z"/>
	</g>
	<path fill="#34495E" d="M442.511,250.511c1.403,0,2.811,0.532,3.878,1.615c1.068,1.062,1.608,2.473,1.608,3.878 c0,1.398-0.54,2.808-1.608,3.876c-1.068,1.075-2.476,1.608-3.878,1.608h-55.788v-10.977L442.511,250.511L442.511,250.511z"/>
</svg>