<svg version="1.1" xmlns="http://www.w3.org/2000/svg" viewBox="0 0 64 64">
    <circle fill="#000000" cx="50%" cy="50%" r="32"/>
    <path fill=" #ffffff" d="M39.137 23.673c0-1.97 1.599-3.569 3.569-3.569s3.569 1.599 3.569 3.569c0 1.97-1.599 3.569-3.569 3.569s-3.569-1.599-3.569-3.569zM48.594 17.785c-3.252-3.252-8.524-3.252-11.777 0-1.323 1.323-2.108 2.979-2.353 4.699v0l-7.608 11.532c-1.023 0.052-2.037 0.314-2.971 0.78l-5.869-4.587c-1.358-1.061-3.321-0.821-4.382 0.538s-0.821 3.321 0.538 4.382l5.796 4.532c-0.631 2.481 0.024 5.224 1.968 7.166 2.933 2.934 7.689 2.934 10.623 0 1.801-1.801 2.496-4.292 2.084-6.624l9.257-8.289c1.72-0.247 3.376-1.032 4.699-2.353 3.252-3.252 3.252-8.524 0-11.777zM27.242 46.525c-2.765 0-5.008-2.241-5.008-5.008 0-0.026 0.003-0.052 0.003-0.078l2.489 1.944c0.571 0.447 1.249 0.661 1.92 0.661 0.928 0 1.846-0.411 2.462-1.199 1.061-1.358 0.821-3.321-0.538-4.382l-2.36-1.846c0.333-0.069 0.678-0.107 1.032-0.107 2.765 0 5.008 2.241 5.008 5.008s-2.241 5.008-5.008 5.008zM42.706 29.621c-3.286 0-5.948-2.662-5.948-5.948s2.662-5.948 5.948-5.948 5.948 2.662 5.948 5.948-2.662 5.948-5.948 5.948z"/>
</svg>