<?xml version="1.0" standalone="no"?>
<!DOCTYPE svg PUBLIC "-//W3C//DTD SVG 1.1//EN" "http://www.w3.org/Graphics/SVG/1.1/DTD/svg11.dtd" >
<svg xmlns="http://www.w3.org/2000/svg">
<metadata>
<json>
<![CDATA[
{
	"fontFamily": "elizacssn",
	"majorVersion": 1,
	"minorVersion": 1,
	"fontURL": "",
	"license": "",
	"description": "Font generated by IcoMoon.",
	"copyright": "",
	"version": "Version 1.1",
	"fontId": "elizacssn",
	"psName": "elizacssn",
	"subFamily": "Regular",
	"fullName": "elizacssn"
}
]]>
</json>
</metadata>
<defs>
<font id="elizacssn" horiz-adv-x="1024">
<font-face units-per-em="1024" ascent="1024" descent="0" />
<missing-glyph horiz-adv-x="1024" />
<glyph unicode="&#x20;" d="" />
<glyph unicode="&#xe0b4;" glyph-name="link3" d="M320 320c17.6-17.6 47.274-16.726 65.942 1.942l316.118 316.116c18.668 18.668 19.54 48.342 1.94 65.942s-47.274 16.726-65.942-1.942l-316.116-316.116c-18.668-18.668-19.542-48.342-1.942-65.942zM476.888 348.888c4.56-9.050 6.99-19.16 6.99-29.696 0-17.616-6.744-34.060-18.992-46.308l-163.382-163.382c-12.248-12.248-28.694-18.992-46.308-18.992s-34.060 6.744-46.308 18.992l-99.382 99.382c-12.248 12.248-18.992 28.694-18.992 46.308s6.744 34.060 18.992 46.308l163.382 163.382c12.248 12.248 28.694 18.994 46.308 18.994 10.536 0 20.644-2.43 29.696-6.99l65.338 65.338c-27.87 21.41-61.44 32.16-95.034 32.16-39.986 0-79.972-15.166-110.308-45.502l-163.382-163.382c-60.67-60.67-60.67-159.948 0-220.618l99.382-99.382c30.334-30.332 70.32-45.5 110.306-45.5 39.988 0 79.974 15.168 110.308 45.502l163.382 163.382c55.82 55.82 60.238 144.298 13.344 205.344l-65.34-65.34zM978.498 879.116l-99.382 99.382c-30.334 30.336-70.32 45.502-110.308 45.502-39.986 0-79.972-15.166-110.308-45.502l-163.382-163.382c-55.82-55.82-60.238-144.298-13.342-205.342l65.338 65.34c-4.558 9.050-6.988 19.16-6.988 29.694 0 17.616 6.744 34.060 18.992 46.308l163.382 163.382c12.248 12.248 28.694 18.994 46.308 18.994s34.060-6.746 46.308-18.994l99.382-99.382c12.248-12.248 18.992-28.694 18.992-46.308s-6.744-34.060-18.992-46.308l-163.382-163.382c-12.248-12.248-28.694-18.992-46.308-18.992-10.536 0-20.644 2.43-29.696 6.99l-65.338-65.338c27.872-21.41 61.44-32.16 95.034-32.16 39.988 0 79.974 15.168 110.308 45.502l163.382 163.382c60.67 60.666 60.67 159.944 0 220.614z" />
<glyph unicode="&#xe0b5;" glyph-name="link3-broken" d="M476.888 348.886c4.56-9.048 6.99-19.158 6.99-29.696 0-17.616-6.744-34.058-18.992-46.308l-163.38-163.38c-12.248-12.248-28.696-18.992-46.308-18.992s-34.060 6.744-46.308 18.992l-99.38 99.38c-12.248 12.25-18.992 28.696-18.992 46.308s6.744 34.060 18.992 46.308l163.38 163.382c12.248 12.246 28.696 18.992 46.308 18.992 10.538 0 20.644-2.43 29.696-6.988l65.338 65.336c-27.87 21.41-61.44 32.16-95.034 32.16-39.986 0-79.972-15.166-110.308-45.502l-163.38-163.382c-60.67-60.67-60.67-159.95 0-220.618l99.38-99.382c30.334-30.332 70.32-45.5 110.306-45.5 39.988 0 79.974 15.168 110.308 45.502l163.38 163.38c55.82 55.82 60.238 144.298 13.344 205.346l-65.34-65.338zM978.496 879.116l-99.38 99.382c-30.334 30.336-70.32 45.502-110.308 45.502-39.986 0-79.97-15.166-110.306-45.502l-163.382-163.382c-55.82-55.82-60.238-144.298-13.342-205.342l65.338 65.34c-4.558 9.050-6.988 19.16-6.988 29.694 0 17.616 6.744 34.060 18.992 46.308l163.382 163.382c12.246 12.248 28.694 18.994 46.306 18.994 17.616 0 34.060-6.746 46.308-18.994l99.38-99.382c12.248-12.248 18.992-28.694 18.992-46.308s-6.744-34.060-18.992-46.308l-163.38-163.382c-12.248-12.248-28.694-18.992-46.308-18.992-10.536 0-20.644 2.43-29.696 6.99l-65.338-65.338c27.872-21.41 61.44-32.16 95.034-32.16 39.988 0 79.974 15.168 110.308 45.504l163.38 163.38c60.672 60.666 60.672 159.944 0 220.614zM233.368 745.376l-191.994 191.994 45.256 45.256 191.994-191.994zM384 1024h64v-192h-64zM0 640h192v-64h-192zM790.632 278.624l191.996-191.996-45.256-45.256-191.996 191.996zM576 192h64v-192h-64zM832 448h192v-64h-192z" />
<glyph unicode="&#xe0d6;" glyph-name="crosscircle" data-tags="crosscircle" d="M512 1024c-282.77 0-512-229.23-512-512s229.23-512 512-512 512 229.23 512 512-229.23 512-512 512zM768 677.49l-165.488-165.49 165.488-165.488v-90.512h-90.512l-165.488 165.488-165.49-165.488h-90.51v90.512l165.49 165.488-165.49 165.49v90.51h90.51l165.49-165.49 165.488 165.49h90.512v-90.51z" />
<glyph unicode="&#xe0d7;" glyph-name="checkcircle" data-tags="checkcircle" d="M512 1024c-282.77 0-512-229.23-512-512s229.23-512 512-512 512 229.23 512 512-229.23 512-512 512zM416 192l-212 276 94 98 118-150 370 302 46-46-416-480z" />
<glyph unicode="&#xe600;" glyph-name="arrow1" data-tags="arrow1" d="M512 832c19.2 0 32-6.4 44.8-19.2l448-448c12.8-12.8 19.2-25.6 19.2-44.8s-6.4-32-19.2-44.8c-12.8-12.8-25.6-19.2-44.8-19.2h-896c-19.2 0-32 6.4-44.8 19.2s-19.2 25.6-19.2 44.8 6.4 32 19.2 44.8l448 448c12.8 12.8 25.6 19.2 44.8 19.2z" />
<glyph unicode="&#xe608;" glyph-name="arrow3" data-tags="arrow3" d="M979.2 243.2c-12.8-12.8-25.6-19.2-44.8-19.2s-32 6.4-44.8 19.2l-377.6 377.6-377.6-377.6c-12.8-12.8-25.6-19.2-44.8-19.2s-32 6.4-44.8 19.2l-25.6 25.6c-12.8 12.8-19.2 32-19.2 44.8s6.4 32 19.2 44.8l448 454.4c12.8 12.8 25.6 19.2 44.8 19.2s32-6.4 44.8-19.2l448-454.4c12.8-12.8 19.2-25.6 19.2-44.8s-6.4-32-19.2-44.8l-25.6-25.6z" />
<glyph unicode="&#xe60c;" glyph-name="arrow4" data-tags="arrow4" d="M467.008 588.992q17.984 19.008 44.992 19.008t44.992-19.008l448-451.008q19.008-19.008 19.008-46.016t-19.008-46.016l-25.984-27.008q-19.008-19.008-45.504-19.008t-45.504 19.008l-376 379.008-376-379.008q-19.008-19.008-45.504-19.008t-45.504 19.008l-25.984 27.008q-19.008 19.008-19.008 46.016t19.008 46.016zM979.008 433.984q-19.008-19.008-45.504-19.008t-45.504 19.008l-376 380.032-376-380.032q-19.008-19.008-45.504-19.008t-45.504 19.008l-25.984 28.032q-19.008 19.008-19.008 45.504t19.008 45.504l448 452.032q17.984 19.008 44.992 19.008t44.992-19.008l448-452.032q19.008-19.008 19.008-45.504t-19.008-45.504z" />
<glyph unicode="&#xe610;" glyph-name="arrow7" data-tags="arrow7" d="M1024 262.144c-206.016-113.728-520.32-132.864-509.824 313.856h253.824l-384 384-384-384h248.384c-13.952-534.976 472.192-594.56 775.616-313.856z" />
<glyph unicode="&#xe618;" glyph-name="arrow5" data-tags="arrow5" d="M544 985.6v0zM1024 640l-480 480-480-480 128-128 256 256v-896h192v896l256-256 128 128z" />
<glyph unicode="&#xe61c;" glyph-name="plus" data-tags="plus" d="M640 640v384h-256v-384h-384v-256h384v-384h256v384h384v256z" />
<glyph unicode="&#xe61d;" glyph-name="minus" data-tags="minus" d="M128 640h768v-256h-768v256z" />
<glyph unicode="&#xe61e;" glyph-name="box" data-tags="box" d="M512 17.984v448l448 238.976v-448zM0 769.024l480 256 480-256-480-256zM448 17.984l-448 238.976v448l448-238.976v-448z" />
<glyph unicode="&#xe61f;" glyph-name="cog" data-tags="cog" d="M1024 415.936v192.192l-146.752 24.448c-5.952 18.112-13.248 35.648-21.696 52.48l86.464 121.024-135.872 135.872-120.832-86.336c-16.896 8.576-34.56 15.872-52.8 21.888l-24.384 146.432h-192.192l-24.384-146.432c-18.24-6.016-35.84-13.376-52.736-21.888l-120.832 86.336-135.872-135.872 86.464-121.024c-8.448-16.832-15.744-34.368-21.696-52.48l-146.752-24.448v-192.192l147.136-24.512c5.952-17.984 13.184-35.328 21.632-52.032l-86.72-121.472 135.872-135.872 121.664 86.912c16.576-8.32 33.92-15.552 51.776-21.44l24.576-147.456h192.192l24.576 147.456c17.856 5.888 35.136 13.056 51.776 21.44l121.664-86.912 135.872 135.872-86.72 121.472c8.448 16.704 15.68 34.048 21.632 52.032l147.136 24.512zM512 384c-70.72 0-128 57.28-128 128s57.28 128 128 128c70.72 0 128-57.28 128-128s-57.28-128-128-128z" />
<glyph unicode="&#xe621;" glyph-name="comments" data-tags="comments" d="M928 128h-32v-192l-192 192h-416q-52.992 0-81.984 46.016l145.984 145.984h384q65.984 0 113.024 46.976t46.976 113.024v224h32q40 0 68.032-28.032t28.032-68.032v-384q0-40-28.032-68.032t-68.032-28.032zM736 384h-416l-192-192v192h-32q-40 0-68.032 28.032t-28.032 68.032v384q0 40 28.032 68.032t68.032 28.032h640q40 0 68.032-28.032t28.032-68.032v-384q0-40-28.032-68.032t-68.032-28.032z" />
<glyph unicode="&#xe622;" glyph-name="contract" data-tags="contract" d="M64 448h384v-384l-138.24 138.24-201.984-201.984-107.456 107.456 201.984 201.984zM821.76 309.76l201.984-201.984-107.456-107.456-201.984 201.984-138.24-138.24v384h384zM960 576h-384v384l138.24-138.24 201.984 201.984 107.456-107.456-201.984-201.984zM309.76 821.76l138.24 138.24v-384h-384l138.24 138.24-201.984 201.984 107.456 107.456z" />
<glyph unicode="&#xe623;" glyph-name="crop" data-tags="crop" d="M832 768l192 192-64 64-192-192h-448v192h-128v-192h-192v-128h192v-512h512v-192h128v192h192v128h-192v448zM320 704h320l-320-320v320zM384 320l320 320v-320h-320z" />
<glyph unicode="&#xe624;" glyph-name="crop2" data-tags="crop2" d="M832 320v512h-512v192h-128v-192h-192v-128h192v-512h512v-192h128v192h192v128h-192zM704 320h-384v384h384v-384z" />
<glyph unicode="&#xe625;" glyph-name="download" data-tags="download" d="M736 576l-256-256-256 256h160v384h192v-384zM480 320h-480v-256h960v256h-480zM896 192h-128v64h128v-64z" />
<glyph unicode="&#xe626;" glyph-name="expand" data-tags="expand" d="M1024 1024v-384l-138.24 138.24-212.032-212.032-107.456 107.456 212.032 212.032-138.24 138.24zM245.76 885.76l212.032-212.032-107.456-107.456-212.032 212.032-138.24-138.24v384h384zM885.76 245.76l138.24 138.24v-384h-384l138.24 138.24-212.032 212.032 107.456 107.456zM457.728 350.272l-212.032-212.032 138.24-138.24h-384v384l138.24-138.24 212.032 212.032z" />
<glyph unicode="&#xe627;" glyph-name="eye" data-tags="eye" d="M512 832c-223.296 0-416.896-130.048-512-320 95.104-189.952 288.704-320 512-320s416.896 130.048 512 320c-95.104 189.952-288.704 320-512 320zM764.48 662.272c60.16-38.4 111.168-89.792 149.44-150.272-38.272-60.544-89.28-111.936-149.44-150.272-75.584-48.192-162.88-73.728-252.416-73.728s-176.832 25.472-252.48 73.728c-60.16 38.4-111.168 89.792-149.44 150.272 38.272 60.544 89.28 111.936 149.44 150.272 3.904 2.496 7.872 4.928 11.84 7.296-9.984-27.328-15.424-56.832-15.424-87.616 0-141.376 114.624-256 256-256s256 114.624 256 256c0 30.784-5.44 60.288-15.424 87.616 3.968-2.368 7.936-4.8 11.84-7.296zM512 614.016c0-52.992-43.008-96-96-96s-96 43.008-96 96 43.008 96 96 96 96-43.008 96-96z" />
<glyph unicode="&#xe628;" glyph-name="eye-blocked" data-tags="eye-blocked" d="M839.296 727.616c77.632-55.040 141.376-129.088 184.704-215.616-95.104-189.952-288.704-320-512-320-62.592 0-122.816 10.24-179.2 29.056l77.952 77.952c33.088-7.296 66.944-11.008 101.248-11.008 89.536 0 176.832 25.472 252.416 73.728 60.16 38.4 111.168 89.792 149.44 150.272-37.056 58.56-86.016 108.544-143.68 146.496l69.12 69.056zM512 326.016c-22.72 0-44.736 2.944-65.728 8.512l313.216 313.216c5.568-20.992 8.512-43.008 8.512-65.728 0-141.376-114.624-256-256-256zM960 1024h-53.76l-219.584-219.584c-55.104 17.92-113.728 27.584-174.656 27.584-223.296 0-416.896-130.048-512-320 42.688-85.184 105.152-158.336 181.184-213.056l-181.184-181.184v-53.76h53.76l906.24 906.24v53.76zM416 710.016c48.064 0 87.872-35.264 94.912-81.344l-109.504-109.504c-46.080 7.040-81.344 46.848-81.344 94.912 0 52.992 43.008 96 96 96zM110.144 512c38.272 60.544 89.28 111.936 149.44 150.272 3.904 2.496 7.872 4.928 11.84 7.296-9.984-27.328-15.424-56.832-15.424-87.616 0-58.496 19.648-112.448 52.672-155.584l-58.56-58.56c-56.064 37.632-103.744 86.784-140.032 144.128z" />
<glyph unicode="&#xe629;" glyph-name="flag" data-tags="flag" d="M832 851.712c76.48 0 145.088 41.6 192 73.088v-595.712c-46.912-31.488-115.52-73.088-192-73.088s-145.088 22.656-192 54.144c-46.912 31.488-115.52 54.144-192 54.144s-145.088-38.912-192-70.4v595.712c46.912 31.488 115.52 70.4 192 70.4s145.088-22.656 192-54.144c46.912-31.488 115.52-54.144 192-54.144zM128 1024c35.328 0 64-28.672 64-64v-960h-128v960c0 35.328 28.672 64 64 64z" />
<glyph unicode="&#xe62a;" glyph-name="folder-open" data-tags="folder-open" d="M832 64l192 512h-832l-192-512zM128 640l-128-576v832h288l128-128h416v-128z" />
<glyph unicode="&#xe62b;" glyph-name="spinner" data-tags="spinner" d="M512 1024c281.6 0 512-230.4 512-512 0-134.4-51.2-268.8-147.2-364.8l-121.6 121.6c134.4 134.4 134.4 352 0 480-64 64-153.6 102.4-243.2 102.4v172.8z" />
<glyph unicode="&#xe62c;" glyph-name="music" data-tags="music" d="M320 832l704 192v-736c0-88.384-100.288-160-224-160s-224 71.616-224 160c0 88.384 100.288 160 224 160 34.368 0 66.88-5.504 96-15.424v329.6l-448-122.176v-480c0-88.384-100.288-160-224-160s-224 71.616-224 160c0 88.384 100.288 160 224 160 34.368 0 66.88-5.504 96-15.424v527.424z" />
<glyph unicode="&#xe62d;" glyph-name="archive" data-tags="archive" d="M704 1024h-384l-192-128v-256h768v256l-192 128zM640 704h-64v42.688c0 11.712-9.6 21.312-21.312 21.312h-85.312c-11.712 0-21.312-9.6-21.312-21.312v-42.688h-64v106.688c0 11.712 9.6 21.312 21.312 21.312h213.312c11.712 0 21.312-9.6 21.312-21.312v-106.688zM128 320h768v256h-768v-256zM384 490.688c0 11.712 9.6 21.312 21.312 21.312h213.312c11.712 0 21.312-9.6 21.312-21.312v-106.688h-64v42.688c0 11.712-9.6 21.312-21.312 21.312h-85.312c-11.712 0-21.312-9.6-21.312-21.312v-42.688h-64v106.688zM128 0h768v256h-768v-256zM384 170.688c0 11.712 9.6 21.312 21.312 21.312h213.312c11.712 0 21.312-9.6 21.312-21.312v-106.688h-64v42.688c0 11.712-9.6 21.312-21.312 21.312h-85.312c-11.712 0-21.312-9.6-21.312-21.312v-42.688h-64v106.688z" />
<glyph unicode="&#xe62e;" glyph-name="acp-logo" data-tags="acp-logo" d="M559.104 464.896l-185.344-49.152-136.192 135.168 50.176 185.344 185.344 50.176 135.168-136.192zM18.432 646.144l329.728-329.728 283.648 75.776 75.776 283.648-330.752 329.728c171.008 46.080 362.496 3.072 496.64-132.096 199.68-199.68 199.68-524.288 0-723.968s-524.288-199.68-723.968 0c-134.144 135.168-178.176 325.632-131.072 496.64z" />
<glyph unicode="&#xe62f;" glyph-name="gallery1" data-tags="gallery1" d="M192 640h-128c-38.4 0-64-25.6-64-64v-128c0-38.4 25.6-64 64-64h128c38.4 0 64 25.6 64 64v128c0 38.4-25.6 64-64 64zM576 640h-128c-38.4 0-64-25.6-64-64v-128c0-38.4 25.6-64 64-64h128c38.4 0 64 25.6 64 64v128c0 38.4-25.6 64-64 64zM960 640h-128c-38.4 0-64-25.6-64-64v-128c0-38.4 25.6-64 64-64h128c38.4 0 64 25.6 64 64v128c0 38.4-25.6 64-64 64z" />
<glyph unicode="&#xe630;" glyph-name="gallery2" data-tags="gallery2" d="M192 448h-128c-38.4 0-64-25.6-64-64v-128c0-38.4 25.6-64 64-64h128c38.4 0 64 25.6 64 64v128c0 38.4-25.6 64-64 64zM576 448h-128c-38.4 0-64-25.6-64-64v-128c0-38.4 25.6-64 64-64h128c38.4 0 64 25.6 64 64v128c0 38.4-25.6 64-64 64zM960 448h-128c-38.4 0-64-25.6-64-64v-128c0-38.4 25.6-64 64-64h128c38.4 0 64 25.6 64 64v128c0 38.4-25.6 64-64 64zM192 832h-128c-38.4 0-64-25.6-64-64v-128c0-38.4 25.6-64 64-64h128c38.4 0 64 25.6 64 64v128c0 38.4-25.6 64-64 64zM576 832h-128c-38.4 0-64-25.6-64-64v-128c0-38.4 25.6-64 64-64h128c38.4 0 64 25.6 64 64v128c0 38.4-25.6 64-64 64zM960 832h-128c-38.4 0-64-25.6-64-64v-128c0-38.4 25.6-64 64-64h128c38.4 0 64 25.6 64 64v128c0 38.4-25.6 64-64 64z" />
<glyph unicode="&#xe631;" glyph-name="gallery3" data-tags="gallery3" d="M192 256h-128c-38.4 0-64-25.6-64-64v-128c0-38.4 25.6-64 64-64h128c38.4 0 64 25.6 64 64v128c0 38.4-25.6 64-64 64zM576 256h-128c-38.4 0-64-25.6-64-64v-128c0-38.4 25.6-64 64-64h128c38.4 0 64 25.6 64 64v128c0 38.4-25.6 64-64 64zM960 256h-128c-38.4 0-64-25.6-64-64v-128c0-38.4 25.6-64 64-64h128c38.4 0 64 25.6 64 64v128c0 38.4-25.6 64-64 64zM192 1024h-128c-38.4 0-64-25.6-64-64v-128c0-38.4 25.6-64 64-64h128c38.4 0 64 25.6 64 64v128c0 38.4-25.6 64-64 64zM576 1024h-128c-38.4 0-64-25.6-64-64v-128c0-38.4 25.6-64 64-64h128c38.4 0 64 25.6 64 64v128c0 38.4-25.6 64-64 64zM960 1024h-128c-38.4 0-64-25.6-64-64v-128c0-38.4 25.6-64 64-64h128c38.4 0 64 25.6 64 64v128c0 38.4-25.6 64-64 64zM192 640h-128c-38.4 0-64-25.6-64-64v-128c0-38.4 25.6-64 64-64h128c38.4 0 64 25.6 64 64v128c0 38.4-25.6 64-64 64zM576 640h-128c-38.4 0-64-25.6-64-64v-128c0-38.4 25.6-64 64-64h128c38.4 0 64 25.6 64 64v128c0 38.4-25.6 64-64 64zM960 640h-128c-38.4 0-64-25.6-64-64v-128c0-38.4 25.6-64 64-64h128c38.4 0 64 25.6 64 64v128c0 38.4-25.6 64-64 64z" />
<glyph unicode="&#xe632;" glyph-name="game" data-tags="game" d="M1024 384q0-49.984-4.992-94.016t-16-81.472-30.528-59.008-44.48-21.504q-51.008 0-97.024 38.016t-62.976 89.984q-43.008 128-256 128t-256-128q-17.024-52.032-62.976-89.984t-97.024-38.016q-25.024 0-44.48 21.504t-30.528 59.008-16 81.472-4.992 94.016q0 46.016 9.472 101.504t30.016 118.528 60.032 116.48 92.48 79.488v32q0 27.008 18.496 45.504t45.504 18.496h64q25.984 0 44.992-18.496t19.008-45.504h256q0 27.008 19.008 45.504t44.992 18.496h64q25.984 0 44.992-18.496t19.008-45.504v-32q52.992-25.984 92.48-79.488t60.032-116.48 30.016-118.528 9.472-101.504zM288 640h-32v32q0 12.992-9.472 22.528t-22.528 9.472-22.528-9.472-9.472-22.528v-32h-32q-12.992 0-22.528-9.472t-9.472-22.528 9.472-22.528 22.528-9.472h32v-32q0-12.992 9.472-22.528t22.528-9.472 22.528 9.472 9.472 22.528v32h32q12.992 0 22.528 9.472t9.472 22.528-9.472 22.528-22.528 9.472zM704 576q-25.984 0-44.992-18.496t-19.008-44.992 19.008-45.504 45.504-19.008 44.992 19.008 18.496 45.504-19.008 44.992-44.992 18.496zM768 640.512q0-26.496 18.496-45.504t44.992-19.008 45.504 19.008 19.008 45.504-19.008 44.992-45.504 18.496-44.992-18.496-18.496-44.992z" />
<glyph unicode="&#xe633;" glyph-name="image2" data-tags="image2" d="M0 0v1025.024h1024v-1025.024h-1024zM960 961.024h-896v-769.024h896v769.024zM256 897.024q52.992 0 90.496-37.504t37.504-90.496-37.504-90.496-90.496-37.504-90.496 36.992-37.504 89.984v1.024q0 52.992 37.504 90.496t90.496 37.504zM366.976 494.976l238.016-238.976h-476.992v92.992l145.984 145.984q17.984 17.984 46.528 17.984t46.528-17.984zM689.984 686.976q17.984 19.008 46.528 19.008t46.528-19.008l113.024-113.024v-318.016h-204.032q0 1.024-1.472 3.52t-2.496 4.48l-211.008 209.984z" />
<glyph unicode="&#xe634;" glyph-name="info" data-tags="info" d="M512 1024c-282.752 0-512-229.248-512-512s229.248-512 512-512 512 229.248 512 512-229.248 512-512 512zM576 192h-128v384h128v-384zM576 704h-128v128h128v-128z" />
<glyph unicode="&#xe635;" glyph-name="earth" data-tags="earth" d="M874.048 874.048c96.704-96.704 149.952-225.28 149.952-362.048s-53.248-265.344-149.952-362.048c-96.704-96.704-225.28-149.952-362.048-149.952s-265.344 53.248-362.048 149.952c-96.704 96.704-149.952 225.28-149.952 362.048s53.248 265.344 149.952 362.048c96.704 96.704 225.28 149.952 362.048 149.952s265.344-53.248 362.048-149.952zM828.8 195.2c63.040 63.040 104.96 141.632 122.304 227.072-13.504-19.84-26.368-27.2-34.368 17.216-8.192 72.384-74.688 26.176-116.544 51.84-44.032-29.632-142.912 57.664-126.080-40.832 25.92-44.416 140.032 59.456 83.136-34.56-36.288-65.6-132.672-210.944-120.128-286.272 1.6-109.76-112.128-22.912-151.296 13.504-26.368 72.896-8.96 200.384-77.888 236.096-74.816 3.264-139.008 10.048-168 93.696-17.472 59.84 18.56 148.864 82.688 162.624 93.824 58.944 127.36-69.056 215.36-71.424 27.328 28.608 101.824 37.696 107.968 69.76-57.728 10.176 73.28 48.576-5.504 70.4-43.456-5.12-71.488-45.056-48.384-78.976-84.224-19.648-86.912 121.92-167.936 77.248-2.048-70.592-132.224-22.912-45.056-8.576 29.952 13.12-48.832 51.008-6.272 44.096 20.928 1.152 91.328 25.792 72.256 42.432 39.232 24.32 72.128-58.304 110.528 1.856 27.712 46.272-11.648 54.784-46.336 31.36-19.584 21.952 34.56 69.248 82.304 89.728 15.936 6.848 31.104 10.56 42.752 9.472 24.064-27.776 68.544-32.576 70.848 3.328-59.584 28.544-125.248 43.584-193.28 43.584-97.6 0-190.464-31.040-267.328-88.384 20.672-9.472 32.384-21.248 12.48-36.288-15.424-46.080-78.144-107.904-133.248-99.136-28.608-49.28-47.424-103.616-55.488-160.512 46.080-15.232 56.768-45.44 46.848-55.552-23.488-20.48-37.952-49.536-45.376-81.344 15.040-91.84 58.176-176.448 125.248-243.584 84.608-84.608 197.12-131.2 316.8-131.2s232.192 46.592 316.8 131.2z" />
<glyph unicode="&#xe638;" glyph-name="home" data-tags="home" d="M1024 416l-192 192v288h-128v-160l-192 192-512-512v-32h128v-320h320v192h128v-192h320v320h128z" />
<glyph unicode="&#xe63a;" glyph-name="search" data-tags="search" d="M992.256 152.576l-242.56 206.272c-25.088 22.592-51.904 32.896-73.536 31.936 57.28 67.072 91.84 154.048 91.84 249.152 0 212.096-171.904 384-384 384s-384-171.904-384-384c0-212.096 171.904-384 384-384 95.104 0 182.080 34.56 249.152 91.84-1.024-21.632 9.344-48.448 31.936-73.536l206.272-242.56c35.328-39.232 92.992-42.56 128.192-7.36s31.872 92.928-7.36 128.192zM384 384c-141.376 0-256 114.624-256 256s114.624 256 256 256 256-114.624 256-256-114.624-256-256-256z" />
<glyph unicode="&#xe63c;" glyph-name="thumbs-up" data-tags="thumbs-up" d="M928 512c73.024 0 32-192-32-192 32 0 0-160-64-160 0-64-64-96-128-96-270.336 0-175.296 67.648-448 96v512c240.896 72.256 480 253.44 480 416 52.992 0 192-64 0-384 0 0 160 0 192 0 96 0 64-192 0-192zM192 672v-512h64v-32h-128c-35.2 0-64 43.2-64 96v384c0 52.8 28.8 96 64 96h128v-32h-64z" />
<glyph unicode="&#xe63d;" glyph-name="trash" data-tags="trash" d="M832 896h-128v64c0 35.328-28.672 64-64 64h-256c-35.328 0-64-28.672-64-64v-64h-128c-35.328 0-64-28.672-64-64v-64h768v64c0 35.328-28.672 64-64 64zM640 896h-256v64h256v-64zM192 64c0-35.328 28.672-64 64-64h512c35.328 0 64 28.672 64 64v640h-640v-640z" />
<glyph unicode="&#xe63e;" glyph-name="undo" data-tags="undo" d="M512 960c-141.376 0-269.376-57.344-362.048-149.952l-149.952 149.952v-384h384l-143.552 143.552c69.504 69.504 165.504 112.448 271.552 112.448 212.096 0 384-171.904 384-384 0-114.688-50.304-217.664-130.048-288l84.672-96c106.304 93.824 173.376 231.104 173.376 384 0 282.752-229.248 512-512 512z" />
<glyph unicode="&#xe63f;" glyph-name="upload" data-tags="upload" d="M480 320h-480v-256h960v256h-480zM896 192h-128v64h128v-64zM224 704l256 256 256-256h-160v-320h-192v320z" />
<glyph unicode="&#xe640;" glyph-name="user" data-tags="user" d="M622.848 321.28c-22.080 3.52-22.592 64.32-22.592 64.32s64.96 64.32 79.104 150.784c38.080 0 61.632 91.968 23.552 124.288 1.6 34.048 48.96 267.328-190.848 267.328s-192.448-233.28-190.848-267.328c-38.080-32.32-14.592-124.288 23.552-124.288 14.144-86.464 79.104-150.784 79.104-150.784s-0.512-60.8-22.592-64.32c-71.232-11.328-337.152-128.64-337.152-257.28h896c0 128.64-265.92 245.952-337.152 257.28z" />
<glyph unicode="&#xe641;" glyph-name="users" data-tags="users" d="M734.976 282.624c-18.944 3.008-19.392 54.656-19.392 54.656s55.68 54.656 67.84 128.128c32.64 0 52.8 78.144 20.16 105.6 1.344 28.928 41.984 227.2-163.584 227.2s-164.928-198.208-163.584-227.2c-32.64-27.52-12.48-105.6 20.16-105.6 12.16-73.472 67.84-128.128 67.84-128.128s-0.448-51.648-19.392-54.656c-61.056-9.6-289.024-109.312-289.024-218.624h768c0 109.312-227.968 209.024-289.024 218.624zM344.064 265.216c44.096 27.136 97.6 52.288 141.568 67.392-15.744 22.464-33.28 52.928-44.352 89.088-15.424 12.544-27.968 30.528-35.968 52.608-8.064 22.080-11.136 46.848-8.64 69.696 1.792 16.384 6.464 31.68 13.632 45.12-4.352 46.592-7.424 138.048 52.416 204.736 23.232 25.856 52.544 44.48 87.68 55.68-6.272 64.768-39.168 140.8-166.464 140.8-205.568 0-164.928-198.208-163.584-227.2-32.64-27.52-12.48-105.6 20.16-105.6 12.16-73.472 67.84-128.128 67.84-128.128s-0.448-51.648-19.392-54.656c-61.056-9.664-289.024-109.312-289.024-218.624h329.6c4.736 3.072 9.536 6.144 14.464 9.216z" />
<glyph unicode="&#xe642;" glyph-name="video" data-tags="video" d="M832 0v64h-640v-64h-192v960h192v-64h640v64h192v-960h-192zM128 896h-64v-64h64v64zM128 768h-64v-64h64v64zM128 640h-64v-64h64v64zM128 512h-64v-64h64v64zM128 384h-64v-64h64v64zM128 256h-64v-64h64v64zM128 128h-64v-64h64v64zM832 832h-640v-704h640v704zM960 896h-64v-64h64v64zM960 768h-64v-64h64v64zM960 640h-64v-64h64v64zM960 512h-64v-64h64v64zM960 384h-64v-64h64v64zM960 256h-64v-64h64v64zM960 128h-64v-64h64v64zM384 320v320l256-160z" />
<glyph unicode="&#xe643;" glyph-name="wand" data-tags="wand" d="M256 832l-128 128h-64v-64l128-128zM320 1024h64v-128h-64zM576 704h128v-64h-128zM640 896v64h-64l-128-128 64-64zM0 704h128v-64h-128zM320 448h64v-128h-64zM64 448v-64h64l128 128-64 64zM1009.984 142.016l-636.096 636.096c-18.688 18.688-49.216 18.688-67.904 0l-60.096-60.096c-18.688-18.688-18.688-49.216 0-67.904l636.096-636.096c18.688-18.688 49.216-18.688 67.904 0l60.096 60.096c18.688 18.688 18.688 49.216 0 67.904zM480 480l-192 192 64 64 192-192-64-64z" />
<glyph unicode="&#xe645;" glyph-name="zoom-in" data-tags="zoom-in" d="M992.256 152.576l-242.56 206.272c-25.088 22.592-51.904 32.896-73.536 31.936 57.28 67.072 91.84 154.048 91.84 249.152 0 212.096-171.904 384-384 384s-384-171.904-384-384c0-212.096 171.904-384 384-384 95.104 0 182.080 34.56 249.152 91.84-1.024-21.632 9.344-48.448 31.936-73.536l206.272-242.56c35.328-39.232 92.992-42.56 128.192-7.36s31.872 92.928-7.36 128.192zM384 384c-141.376 0-256 114.624-256 256s114.624 256 256 256 256-114.624 256-256-114.624-256-256-256zM448 832h-128v-128h-128v-128h128v-128h128v128h128v128h-128z" />
<glyph unicode="&#xe646;" glyph-name="zoom-out" data-tags="zoom-out" d="M992.256 152.576l-242.56 206.272c-25.088 22.592-51.904 32.896-73.536 31.936 57.28 67.072 91.84 154.048 91.84 249.152 0 212.096-171.904 384-384 384s-384-171.904-384-384c0-212.096 171.904-384 384-384 95.104 0 182.080 34.56 249.152 91.84-1.024-21.632 9.344-48.448 31.936-73.536l206.272-242.56c35.328-39.232 92.992-42.56 128.192-7.36s31.872 92.928-7.36 128.192zM384 384c-141.376 0-256 114.624-256 256s114.624 256 256 256 256-114.624 256-256-114.624-256-256-256zM192 704h384v-128h-384z" />
<glyph unicode="&#xe647;" glyph-name="link" data-tags="link" d="M953.408 949.376l-4.032 4.032c-94.144 94.144-248.192 94.144-342.336 0l-218.112-218.112c-94.144-94.144-94.144-248.192 0-342.336l4.032-4.032c7.808-7.872 16.128-14.912 24.704-21.44l79.872 79.872c-9.28 5.504-18.112 12.096-26.112 20.032l-4.032 4.032c-51.136 51.072-51.136 134.272 0 185.408l218.112 218.112c51.136 51.136 134.272 51.136 185.408 0l4.032-4.032c51.072-51.136 51.072-134.272 0-185.408l-98.688-98.688c17.152-42.304 25.28-87.424 24.512-132.416l152.576 152.576c94.144 94.144 94.144 248.192 0 342.336zM631.040 635.072c-7.808 7.808-16.128 14.912-24.704 21.44l-79.872-79.808c9.28-5.504 18.112-12.096 26.112-20.032l4.032-4.032c51.136-51.136 51.136-134.272 0-185.408l-218.112-218.112c-51.136-51.072-134.272-51.072-185.408 0l-4.032 4.032c-51.072 51.136-51.072 134.272 0 185.408l98.688 98.688c-17.152 42.304-25.216 87.424-24.512 132.416l-152.576-152.576c-94.144-94.144-94.144-248.192 0-342.336l4.032-4.032c94.144-94.144 248.192-94.144 342.336 0l218.112 218.112c94.144 94.144 94.144 248.192 0 342.336l-4.032 4.032z" />
<glyph unicode="&#xe648;" glyph-name="attachment" data-tags="attachment" d="M697.856 696.96l-64.96 64.896-324.8-324.736c-53.824-53.824-53.824-141.056 0-194.816s141.056-53.824 194.88 0l389.76 389.696c89.728 89.664 89.728 235.072 0 324.736s-235.136 89.728-324.8 0l-409.216-409.152c-0.32-0.32-0.64-0.576-0.896-0.832-125.12-125.12-125.12-327.872 0-452.928s327.872-125.056 452.992 0c0.256 0.256 0.512 0.576 0.832 0.896l0.064-0.064 279.36 279.296-64.96 64.896-279.36-279.232c-0.32-0.256-0.576-0.576-0.832-0.832-89.088-89.088-233.984-89.088-323.072 0s-89.088 233.92 0 323.008c0.32 0.32 0.576 0.576 0.896 0.832l-0.064 0.064 409.28 409.152c53.696 53.76 141.12 53.76 194.88 0s53.696-141.12 0-194.816l-389.76-389.696c-17.92-17.92-47.040-17.92-64.96 0s-17.92 47.040 0 64.896l324.8 324.8z" />
<glyph unicode="&#xe649;" glyph-name="enter" data-tags="enter" d="M256 448h-320v128h320v128l192-192-192-192zM896 960v-832l-384-192v192h-384v256h64v-192h320v576l256 128h-576v-256h-64v320z" />
<glyph unicode="&#xe64a;" glyph-name="exit" data-tags="exit" d="M896 320v128h-320v128h320v128l192-192zM832 384v-256h-320v-192l-384 192v832h704v-320h-64v256h-512l256-128v-576h256v192z" />
<glyph unicode="&#xe64b;" glyph-name="chrome" data-tags="chrome" d="M258.304 577.472l-146.56 253.824c93.824 117.44 238.208 192.768 400.256 192.768 187.456 0 351.296-100.736 440.512-251.008h-417.792c-7.488 0.64-15.104 1.024-22.784 1.024-121.856 0-224.576-83.648-253.696-196.544zM695.296 699.008h293.44c22.72-57.92 35.264-121.024 35.264-187.008 0-280.832-226.112-508.8-506.176-511.936l209.408 362.688c29.504 42.368 46.784 93.824 46.784 149.248 0 73.152-30.144 139.392-78.72 187.008zM326.016 512c0 102.592 83.456 185.984 185.984 185.984s185.984-83.456 185.984-185.984c0-102.528-83.456-185.984-185.984-185.984s-185.984 83.456-185.984 185.984zM582.208 259.584l-146.56-253.888c-246.528 36.864-435.584 249.536-435.584 506.304 0 91.2 23.872 176.832 65.664 251.008l209.024-362.048c41.856-89.088 132.48-150.976 237.248-150.976 24.32 0 47.808 3.328 70.208 9.536z" />
<glyph unicode="&#xe64c;" glyph-name="firefox" data-tags="firefox" d="M1022.528 689.856l-11.84-76.096c0 0-16.96 140.864-37.76 193.536-31.872 80.704-46.016 80.064-46.080 79.936 21.312-54.208 17.472-83.328 17.472-83.328s-37.824 102.976-137.728 135.744c-110.656 36.288-170.56 26.368-177.472 24.512-1.024 0-2.048 0-3.008 0 0.832-0.064 1.6-0.128 2.432-0.192-0.064 0-0.064-0.064-0.064-0.064 0.448-0.576 122.304-21.312 143.936-51.008 0 0-51.776 0-103.296-14.848-2.304-0.64 189.504-23.936 228.736-215.68 0 0-21.056 43.904-47.040 51.328 17.088-52.032 12.736-150.784-3.584-199.872-2.112-6.336-4.224 27.264-36.352 41.728 10.304-73.664-0.64-190.464-51.712-222.656-3.968-2.496 32 115.328 7.232 69.76-142.72-218.816-311.424-100.992-387.264-49.088 38.848-8.448 112.64 1.344 145.344 25.6 0.064 0 0.064 0.064 0.128 0.064 35.456 24.256 56.448 41.984 75.328 37.76s31.424 14.72 16.768 31.552c-14.656 16.832-50.304 40-98.496 27.392-33.984-8.896-76.16-46.528-140.416-8.448-49.344 29.248-54.016 53.568-54.464 70.4 1.216 5.952 2.752 11.52 4.608 16.64 5.696 15.872 22.912 20.672 32.512 24.448 16.256-2.816 30.272-7.872 44.992-15.424 0.192 4.864 0.256 11.392 0 18.752 1.408 2.816 0.512 11.264-1.728 21.568-1.28 10.304-3.392 20.992-6.784 30.72 0 0 0 0 0 0s0.128 0.064 0.128 0.064c0.064 0.064 0.128 0.128 0.192 0.192s0 0.064 0.064 0.064c0.064 0.128 0.128 0.256 0.192 0.448 1.024 4.608 12.032 13.504 25.728 23.104 12.288 8.576 26.688 17.728 38.080 24.768 10.048 6.272 17.728 10.88 19.328 12.096 0.64 0.448 1.344 1.024 2.176 1.664 0.128 0.128 0.32 0.256 0.448 0.384s0.192 0.128 0.256 0.256c5.44 4.288 13.504 12.416 15.168 29.568 0 0.064 0 0.064 0 0.128 0.064 0.512 0.064 1.024 0.128 1.536 0 0.384 0.064 0.704 0.064 1.088 0 0.256 0 0.576 0.064 0.832 0 0.704 0.064 1.344 0.064 2.048 0 0.064 0 0.064 0 0.128 0 1.664 0 3.392-0.128 5.184-0.064 1.024-0.128 1.92-0.32 2.752 0 0.064 0 0.064 0 0.128s-0.064 0.192-0.064 0.256-0.064 0.32-0.128 0.448c0 0 0 0 0 0.064-0.064 0.192-0.128 0.32-0.192 0.448 0 0 0 0 0 0-1.728 4.096-8.32 5.632-35.456 6.144 0 0-0.064 0-0.064 0v0c-11.072 0.192-25.536 0.192-44.48 0.128-33.28-0.128-51.648 32.512-57.472 45.12 8.064 44.48 31.296 76.16 69.44 97.6 0.704 0.384 0.576 0.768-0.256 0.96 7.488 4.544-90.24 0.128-135.168-57.024-39.872 9.92-74.624 9.216-104.64 2.24-5.76 0.192-12.928 0.896-21.44 2.624-19.904 18.048-48.448 51.392-49.984 91.2 0 0-0.064-0.064-0.256-0.192 0 0.384-0.064 0.768-0.064 1.152 0 0-60.736-46.656-51.648-173.888 0-2.048-0.064-3.968-0.128-5.888-16.448-22.272-24.576-41.024-25.216-45.184-14.592-29.632-29.312-74.24-41.344-141.952 0 0 8.384 26.688 25.28 56.896-12.416-38.016-22.144-97.152-16.448-185.856 0 0 1.536 19.648 6.848 48 4.16-55.040 22.528-122.944 68.864-202.816 88.96-153.344 225.664-230.72 376.768-242.624 26.816-2.24 54.080-2.24 81.408-0.192 2.496 0.192 5.056 0.384 7.552 0.576 30.976 2.176 62.144 6.848 93.248 14.336 425.152 102.784 378.944 616.192 378.944 616.192z" />
<glyph unicode="&#xe64d;" glyph-name="opera" data-tags="opera" d="M510.016 1024c-279.744 0-480.768-202.88-480.768-507.2 0-270.848 195.52-516.8 480.768-516.8 288.064 0 484.608 245.888 484.608 516.8 0 306.752-207.424 507.2-484.672 507.2zM688.384 525.44c-0.064-169.344-9.088-410.496-178.304-410.496v-0.064c-166.784 0-173.44 241.28-173.44 410.304 0 198.4 18.56 388.544 173.44 388.544s178.304-192.576 178.304-388.352z" />
<glyph unicode="&#xe64e;" glyph-name="ie" data-tags="ie" d="M734.208 395.2h236.032c1.792 16.384 2.56 33.088 2.56 50.176 0 80.192-21.504 155.456-59.136 220.288 38.848 103.296 37.504 190.976-14.528 243.392-49.472 49.28-182.272 41.28-332.416-25.216-11.136 0.832-22.336 1.28-33.664 1.28-206.080 0-378.944-141.824-426.688-332.864 64.64 82.752 132.608 142.784 223.488 186.432-8.256-7.744-56.448-55.68-64.576-63.744-239.552-239.488-315.072-552.32-233.792-633.6 61.76-61.76 173.76-51.328 302.4 11.648 59.776-30.464 127.488-47.616 199.232-47.616 193.152 0 356.8 124.288 416.064 297.472h-237.888c-32.704-60.352-96.768-101.504-170.24-101.504s-137.472 41.088-170.24 101.504c-14.528 27.264-22.912 58.56-22.912 91.648v0.704h386.24zM348.288 511.168c5.44 97.088 86.208 174.592 184.768 174.592s179.328-77.44 184.768-174.592h-369.536zM896.96 860.224c33.536-33.856 32.704-96.192 4.032-174.016-49.152 74.88-120.512 133.952-204.8 167.616 90.112 38.656 163.392 43.776 200.768 6.4zM93.504 56.768c-42.752 42.816-29.888 132.608 25.216 240.832 34.304-96.256 101.184-177.088 187.328-229.184-95.424-43.328-173.568-50.688-212.544-11.648z" />
<glyph unicode="&#xe64f;" glyph-name="safari" data-tags="safari" d="M512 960c-24.064 0-47.68-1.792-70.848-5.184-0.32 0.768-0.64 1.536-0.96 2.304 12.8 9.984 19.52 23.808 16.64 37.568-3.712 17.536-22.4 29.376-46.464 29.376-5.184 0-10.432-0.576-15.68-1.664-30.144-6.4-50.176-28.608-45.504-50.56 2.816-13.312 14.272-23.36 30.144-27.392 0-0.96 0-1.92 0.064-2.944-200.64-57.536-347.456-242.368-347.456-461.44 0-265.088 214.912-480 480-480s480 214.912 480 480c0 265.088-214.912 480-480 480zM364.864 975.104c-2.688 12.736 12.48 27.2 33.152 31.552 4.16 0.896 8.32 1.344 12.352 1.344 16.064 0 28.672-6.848 30.784-16.704 1.6-7.488-3.072-15.616-11.392-21.888-7.040 4.992-16 7.104-25.088 5.184s-16.32-7.488-20.736-14.848c-10.176 2.432-17.536 8.064-19.072 15.36zM769.408 222.592c-43.968-43.968-97.216-75.264-155.328-92.16l-42.368 68.8-10.752-79.936c-16.064-2.176-32.448-3.264-48.96-3.264-97.216 0-188.608 37.888-257.408 106.624-43.968 43.968-75.264 97.216-92.16 155.328l68.8 42.368-79.936 10.752c-2.176 16.064-3.264 32.448-3.264 48.96 0 97.216 37.888 188.608 106.624 257.408 43.968 43.968 97.216 75.264 155.328 92.16l42.368-68.8 10.752 79.936c16.064 2.176 32.448 3.264 48.96 3.264 97.216 0 188.608-37.888 257.408-106.624 43.968-43.968 75.264-97.216 92.16-155.328l-68.8-42.368 79.936-10.752c2.176-16.064 3.264-32.448 3.264-48.96 0-97.216-37.888-188.608-106.624-257.408zM760.896 728.896l-196.992-149.696c-14.656 7.68-30.848 12.032-47.424 12.736l-51.072 107.2-3.072-118.656c-13.312-6.528-25.088-15.68-34.88-26.944l-63.104 22.336 46.080-48.512c-6.336-13.504-9.856-28.032-10.432-42.816l-107.136-51.072 118.72-3.072c0.384-0.768 0.768-1.536 1.152-2.304l-149.696-196.992 196.992 149.696c14.656-7.68 30.848-12.032 47.424-12.736l51.072-107.2 3.072 118.656c13.312 6.528 25.088 15.68 34.88 26.944l63.104-22.4-46.080 48.512c6.336 13.504 9.856 28.032 10.432 42.816l107.136 51.072-118.72 3.072c-0.384 0.768-0.768 1.536-1.152 2.304l149.696 196.992zM512.128 579.456v0zM492.032 573.888c6.72 1.408 13.44 2.112 20.032 2.112 4.16 0 8.256-0.256 12.288-0.768h0.064c8.704-1.152 17.152-3.52 25.152-6.912l-71.552-54.4-54.4-71.552c-2.368 5.568-4.288 11.456-5.568 17.664-11.008 51.84 22.080 102.848 73.92 113.856zM562.112 398.144v0 0c-9.088-5.568-19.2-9.664-30.144-12.032-6.72-1.408-13.44-2.112-20.032-2.112-4.16 0-8.256 0.256-12.288 0.768h-0.064c-8.704 1.152-17.152 3.52-25.152 6.912l71.552 54.4 54.4 71.552c2.368-5.568 4.288-11.456 5.568-17.664 8.704-40.896-10.048-81.216-43.776-101.824z" />
<glyph unicode="&#xe650;" glyph-name="blogger" data-tags="blogger" d="M957.824 640h-57.408c-35.136 0-65.984 29.76-68.416 64v0c0 182.656-147.264 320-331.2 320h-167.808c-183.808 0-332.864-148.032-332.992-330.688v-362.816c0-182.656 149.184-330.56 332.992-330.56h358.4c183.936 0 332.608 147.904 332.608 330.56v234.368c0 36.48-29.44 75.072-66.176 75.072zM320 768h192c35.2 0 64-28.8 64-64s-28.8-64-64-64h-192c-35.2 0-64 28.8-64 64s28.8 64 64 64zM704 256h-384c-35.2 0-64 28.8-64 64s28.8 64 64 64h384c35.2 0 64-28.8 64-64s-28.8-64-64-64z" />
<glyph unicode="&#xe653;" glyph-name="twitter" data-tags="twitter" d="M1024 829.568c-37.696-16.704-78.144-28.032-120.64-33.088 43.392 25.984 76.672 67.2 92.352 116.224-40.576-24.064-85.568-41.536-133.44-51.008-38.336 40.832-92.928 66.368-153.344 66.368-116.032 0-210.112-94.080-210.112-210.048 0-16.448 1.856-32.512 5.44-47.872-174.592 8.768-329.408 92.416-433.024 219.52-18.112-31.040-28.416-67.136-28.416-105.6 0-72.896 37.056-137.216 93.44-174.848-34.432 1.088-66.816 10.56-95.168 26.304 0-0.896 0-1.728 0-2.624 0-101.76 72.448-186.688 168.512-206.016-17.6-4.8-36.16-7.36-55.36-7.36-13.568 0-26.688 1.344-39.552 3.776 26.752-83.456 104.32-144.192 196.224-145.92-71.872-56.32-162.496-89.92-260.928-89.92-16.96 0-33.664 1.024-50.112 2.944 92.992-59.584 203.392-94.4 322.048-94.4 386.432 0 597.76 320.128 597.76 597.76 0 9.088-0.192 18.176-0.64 27.2 41.088 29.632 76.672 66.624 104.832 108.736z" />
<glyph unicode="&#xe654;" glyph-name="vk" data-tags="vk" d="M772.032 508.992q65.024-48 158.528-139.52t93.504-113.472q0-27.008-15.488-45.504t-48.512-18.496h-105.984q-30.016 0-54.016 25.024-60.032 64-123.008 123.008t-100.992 84.032v-200q0-12.992-9.472-22.528t-22.528-9.472h-128q-22.976 0-66.496 35.008t-93.504 92.992q-72 83.008-164.032 241.984t-92.032 206.016q0 35.008 15.488 49.472t48.512 14.528h105.984q14.016 0 29.504-12.032t23.488-28.032q1.984-4.992 20.032-42.496t22.976-47.488l20.992-41.984t24.512-46.528 22.528-37.504 25.984-38.976 24-28.992v292.032q0 12.992 9.472 22.528t22.528 9.472h128q12.992 0 22.528-9.472t9.472-22.528v-228.032q102.016 68.992 224 235.008 8 9.984 23.488 17.472t30.528 7.488h105.984q35.008 0 49.472-16t14.528-48q0-44.032-81.472-122.496t-170.496-136.512z" />
<glyph unicode="&#xe655;" glyph-name="link-in" data-tags="link-in" d="M960 725.333l-213.333-192 21.333-64 85.333-85.333-128-128h-42.667v-170.667h-597.333v597.333h170.667v42.667l128 128 85.333-85.333 64-21.333 192 213.333 234.667-234.667zM746.667 853.333l-256-277.333-106.667 170.667-42.667-64v-341.333h341.333l64 42.667-170.667 106.667 277.333 256-106.667 106.667zM170.667 597.333v-426.667h426.667v85.333h-341.333v341.333h-85.333z" />
<glyph unicode="&#xe656;" glyph-name="link-ex" data-tags="link-ex" d="M85.333 85.333v597.333h354.133l-12.8 42.667-85.333 85.333 128 128h469.333v-469.333l-128-128-85.333 85.333-42.667 12.8v-354.133h-597.333zM853.333 853.333h-341.333l-64-42.667 170.667-106.667-277.333-256 106.667-106.667 256 277.333 106.667-170.667 42.667 64v341.333zM170.667 597.333v-426.667h426.667v209.067l-128-145.067-234.667 234.667 145.067 128h-209.067z" />
<glyph unicode="&#xe657;" glyph-name="feed" data-tags="feed" d="M136.32 273.088c-75.2 0-136.32-61.312-136.32-136.064 0-75.136 61.12-135.808 136.32-135.808 75.456 0 136.512 60.672 136.512 135.808 0 74.752-61.056 136.064-136.512 136.064zM0.128 676.096v-196.288c127.808 0 247.936-49.984 338.432-140.544 90.368-90.304 140.288-211.008 140.288-339.328h197.12c0 372.8-303.296 676.096-675.84 676.096zM0.384 1024v-196.352c455.808 0 826.752-371.328 826.752-827.648h196.864c0 564.48-459.264 1024-1023.616 1024z" />
<glyph unicode="&#xe659;" glyph-name="dribbble" data-tags="dribbble" d="M765.696 797.632c-6.912-9.792-64.512-87.232-200.576-138.24-62.72 115.2-132.224 209.856-142.784 224 28.8 6.912 58.816 10.624 89.664 10.624 97.216 0 186.112-36.48 253.632-96.448zM538.752 508.096c-197.376-63.808-302.4-237.696-311.040-252.544-61.12 67.84-98.368 157.568-98.368 255.872 0 3.904 0.064 7.808 0.192 11.712 16.768-0.32 202.176-2.752 393.28 54.464 10.944-21.44 21.44-43.2 31.040-64.96-5.056-1.408-10.112-2.944-15.104-4.544zM512 1024c-282.752 0-512-229.248-512-512s229.248-512 512-512 512 229.248 512 512-229.248 512-512 512zM512 64c-247.040 0-448 200.96-448 448s200.96 448 448 448c247.040 0 448-200.96 448-448s-200.96-448-448-448zM619.904 547.072c-7.936 18.688-16.512 37.184-25.408 55.424 141.504 57.792 205.632 139.968 213.696 150.848 53.312-65.088 85.568-148.032 86.4-238.4-12.608 2.688-139.136 28.352-266.432 12.288-2.688 6.528-5.44 13.12-8.256 19.776zM491.2 636.416c-179.008-47.552-336.64-46.848-353.792-46.592 24.832 118.72 104.832 217.408 211.904 267.904 10.112-13.824 78.464-108.608 141.888-221.312zM577.344 448.512c0.832 0.32 1.664 0.576 2.496 0.832 53.696-139.584 75.968-256.64 81.664-290.176-45.952-19.584-96.448-30.4-149.504-30.4-88.448 0-169.984 30.208-234.88 80.768 6.912 14.080 84.352 163.776 300.224 238.976zM651.456 467.008c119.936 19.2 225.28-12.224 238.336-16.384-17.088-106.496-78.144-198.4-164.032-256.448-3.904 23.296-24.32 135.296-74.368 272.832z" />
<glyph unicode="&#xe65a;" glyph-name="git-branch" data-tags="git-branch" d="M704 832c-70.976 0-128-57.024-128-128 0-46.976 25.984-88 64-110.016v-17.984c0-64-64-128-128-128-52.992 0-94.976-11.008-128-28.992v302.976c38.016 22.016 64 62.976 64 110.016 0 70.976-57.024 128-128 128s-128-57.024-128-128c0-46.976 25.984-88 64-110.016v-419.008c-38.016-22.016-64-62.976-64-110.016 0-70.976 57.024-128 128-128s128 57.024 128 128c0 33.984-12.992 64-33.984 86.976 19.008 22.976 49.024 41.024 97.984 41.024 128 0 256 128 256 256v17.984c38.016 22.016 64 62.976 64 110.016 0 70.976-57.024 128-128 128zM320 896c35.008 0 64-28.992 64-64s-28.992-64-64-64-64 28.992-64 64 28.992 64 64 64zM320 128c-35.008 0-64 28.992-64 64s28.992 64 64 64 64-28.992 64-64-28.992-64-64-64zM704 640c-35.008 0-64 28.992-64 64s28.992 64 64 64 64-28.992 64-64-28.992-64-64-64z" />
<glyph unicode="&#xe65d;" glyph-name="picassa" data-tags="picassa" d="M704 629.76l-364.48 364.48c53.888 19.264 111.936 29.824 172.48 29.824 67.904 0 132.672-13.248 192-37.248v-356.992zM768 320v635.456c153.024-88.512 256-253.952 256-443.456 0-67.904-13.248-132.672-37.248-192h-218.752zM320 256h635.456c-88.512-153.024-253.952-256-443.456-256-67.904 0-132.736 13.248-192 37.248v218.752zM426.24 800l-411.264-411.264c-9.792 39.488-14.976 80.768-14.976 123.264 0 193.408 107.2 361.728 265.472 448.832l160.832-160.832zM256 522.24v-453.76c-94.592 54.72-170.048 138.88-213.888 239.872l213.888 213.888z" />
<glyph unicode="&#xe65e;" glyph-name="vimeo" data-tags="vimeo" d="M0 715.648l41.6-54.528c0 0 85.76 67.584 114.368 33.792s137.728-441.984 174.144-517.248c31.808-66.048 119.488-153.344 215.744-91.008s415.808 335.296 473.088 657.6c57.152 322.24-384.704 254.72-431.552-25.984 116.992 70.208 179.456-28.544 119.552-140.352-59.776-111.744-114.368-184.576-142.976-184.576s-50.496 74.752-83.2 205.44c-33.792 135.104-33.6 378.432-174.144 350.848-132.544-25.984-306.688-233.984-306.688-233.984z" />
<glyph unicode="&#xe65f;" glyph-name="wordpress" data-tags="wordpress" d="M128 512c0-148.032 88.32-275.968 216.448-336.576l-183.168 488.768c-21.312-46.528-33.28-97.984-33.28-152.192zM771.2 530.88c0 46.208-17.024 78.208-31.68 103.168-19.456 30.848-37.696 56.896-37.696 87.744 0 34.368 26.752 66.368 64.512 66.368 1.728 0 3.328-0.192 4.992-0.32-68.288 60.992-159.36 98.176-259.328 98.176-134.144 0-252.16-67.072-320.832-168.576 9.024-0.256 17.536-0.448 24.704-0.448 40.128 0 102.336 4.736 102.336 4.736 20.672 1.152 23.104-28.416 2.432-30.848 0 0-20.8-2.368-43.968-3.52l139.84-405.12 84.032 245.44-59.84 159.68c-20.672 1.216-40.256 3.52-40.256 3.52-20.672 1.216-18.24 32 2.432 30.848 0 0 63.424-4.736 101.12-4.736 40.128 0 102.336 4.736 102.336 4.736 20.672 1.152 23.168-28.416 2.432-30.848 0 0-20.864-2.368-43.968-3.52l138.752-402.048 38.336 124.608c16.576 51.776 29.248 88.896 29.248 120.896zM518.72 479.296l-115.2-326.080c34.432-9.856 70.784-15.232 108.48-15.232 44.736 0 87.616 7.488 127.488 21.184-1.024 1.6-1.984 3.328-2.752 5.184l-118.016 314.944zM848.96 691.456c1.664-11.904 2.56-24.704 2.56-38.464 0-37.952-7.296-80.576-29.184-133.952l-117.312-330.24c114.176 64.832 190.912 185.28 190.912 323.264 0 65.024-17.088 126.144-47.040 179.392zM512 1024c-282.752 0-512-229.248-512-512s229.248-512 512-512 512 229.248 512 512-229.248 512-512 512zM512 64c-247.424 0-448 200.576-448 448s200.576 448 448 448 448-200.576 448-448-200.576-448-448-448z" />
<glyph unicode="&#xe660;" glyph-name="yahoo" data-tags="yahoo" d="M848 384l-14.848 416c-0.64 17.6 13.248 32 30.848 32h128c17.6 0 29.44-14.144 26.368-31.488l-74.368-416.512zM960 248c0-30.784-25.216-56-56-56h-16c-30.784 0-56 25.216-56 56v16c0 30.784 25.216 56 56 56h16c30.784 0 56-25.216 56-56v-16zM384 832c-212.096 0-384-143.296-384-320s171.904-320 384-320c212.096 0 384 143.296 384 320s-171.904 320-384 320zM640 576h-74.24l-117.76-117.76v-74.24h96v-64h-256v64h96v74.24l-181.76 181.76h-42.048v64h191.616v-64h-42.048l106.24-106.24 32 32v74.24h192v-64z" />
<glyph unicode="&#xe661;" glyph-name="youtube" data-tags="youtube" d="M832 896h-640c-105.6 0-192-86.4-192-192v-384c0-105.6 86.4-192 192-192h640c105.6 0 192 86.4 192 192v384c0 105.6-86.4 192-192 192zM384 256v512l320-256-320-256z" />
<glyph unicode="&#xe662;" glyph-name="livejournal" data-tags="livejournal" d="M790.976 195.008q-97.984-96-212.48-145.472t-226.496-49.472q-81.024 0-137.024 17.024t-89.024 51.008-47.488 79.488-14.528 108.48q0 91.008 36.48 179.52t101.504 165.504l-184 182.976q-22.976 22.016-17.024 72.512t38.976 83.52l44.032 44.032q33.024 33.024 83.52 38.976t72.512-17.024l121.024-121.984q46.016 46.016 86.976 73.984t106.496 46.976 149.504 19.008q67.008 0 122.496-20.992t91.52-54.528 60.48-76.48 35.008-84.992 10.496-83.008q0-124.032-62.016-262.976t-171.008-246.016zM704 960q-161.984 0-324.032-94.976l73.984-73.984q97.984 41.024 185.984 41.024 92.992 0 142.528-61.504t49.472-162.496q0-33.984-1.472-56t-8-55.488-19.52-59.008-38.016-57.024-60.992-60.48q25.984 44.992 44.992 129.024t19.008 158.976q0 62.016-35.008 110.976t-92.992 49.024q-64 0-134.976-28.992l132.992-132.992 65.984-286.016-286.016 65.984-163.008 163.008q-59.008-70.976-92.992-147.52t-33.984-145.472q0-38.016 11.008-70.528t35.52-60.992 70.016-44.48 107.52-16q97.984 0 204.48 44.992t190.528 128q94.016 92.032 153.472 225.472t59.52 241.472q0 28.992-9.984 62.528t-31.488 68.032-51.008 62.528-72.512 45.504-91.008 17.472z" />
<glyph unicode="&#xe663;" glyph-name="instagram" data-tags="instagram" d="M896 0h-768q-52.992 0-90.496 37.504t-37.504 90.496v768q0 52.992 37.504 90.496t90.496 37.504h768q52.992 0 90.496-37.504t37.504-90.496v-768q0-52.992-37.504-90.496t-90.496-37.504zM512 640q-52.992 0-90.496-37.504t-37.504-90.496 37.504-90.496 90.496-37.504 90.496 37.504 37.504 90.496-37.504 90.496-90.496 37.504zM896 864q0 12.992-9.472 22.528t-22.528 9.472h-128q-12.992 0-22.528-9.472t-9.472-22.528v-128q0-12.992 9.472-22.528t22.528-9.472h128q12.992 0 22.528 9.472t9.472 22.528v128zM896 544q0 12.992-9.472 22.528t-22.528 9.472h-64q-12.992 0-22.528-9.472t-9.472-22.528v-32q0-105.984-75.008-180.992t-180.992-75.008-180.992 75.008-75.008 180.992v32q0 12.992-9.472 22.528t-22.528 9.472h-64q-12.992 0-22.528-9.472t-9.472-22.528v-384q0-12.992 9.472-22.528t22.528-9.472h704q12.992 0 22.528 9.472t9.472 22.528v384z" />
<glyph unicode="&#xe664;" glyph-name="skype" data-tags="skype" d="M952.64 433.088c4.544 25.664 7.36 51.968 7.36 78.976 0 247.424-200.576 448-448 448-27.008 0-53.248-2.816-78.976-7.36-45.952 44.096-108.288 71.36-177.088 71.36-141.376 0-256-114.624-256-256 0-68.736 27.264-131.072 71.36-177.024-4.544-25.664-7.36-51.904-7.36-78.976 0-247.424 200.576-448 448-448 27.008 0 53.248 2.752 78.912 7.36 46.016-44.096 108.288-71.36 177.088-71.36 141.376 0 256 114.624 256 256 0 68.736-27.264 131.072-71.36 177.088zM709.248 332.672c-17.728-24.128-43.84-43.264-77.696-56.768-33.536-13.44-73.728-20.224-119.488-20.224-54.976 0-100.992 9.344-136.896 27.584-25.728 13.376-46.848 31.424-62.976 53.824-16.256 22.528-24.512 44.864-24.512 66.56 0 13.44 5.312 25.152 15.936 34.752 10.432 9.536 23.872 14.272 39.872 14.272 13.12 0 24.512-3.776 33.664-11.264 8.832-7.296 16.32-17.92 22.464-31.552 6.784-14.976 14.144-27.584 21.952-37.44 7.488-9.6 18.304-17.664 32.128-23.936s32.576-9.536 55.552-9.536c31.552 0 57.536 6.464 77.056 19.328 19.008 12.48 28.288 27.584 28.288 46.016 0 14.528-4.8 25.984-14.72 34.944-10.432 9.344-24.128 16.704-40.768 21.696-17.408 5.184-41.024 10.944-70.208 16.704-39.68 8.192-73.344 17.92-100.224 28.8-27.392 11.264-49.536 26.88-65.664 46.272-16.384 19.84-24.704 44.608-24.704 73.856 0 27.776 8.704 52.928 25.984 74.496 17.088 21.504 42.048 38.208 74.24 49.664 31.68 11.328 69.44 17.024 112.192 17.024 34.112 0 64.192-3.776 89.216-11.328 25.216-7.488 46.464-17.728 63.232-30.272 16.768-12.672 29.312-26.176 37.184-40.256s11.968-28.288 11.968-41.984c0-13.184-5.248-25.152-15.68-35.584-10.496-10.432-23.68-15.808-39.296-15.808-14.144 0-25.28 3.328-32.896 9.856-7.168 6.144-14.592 15.616-22.848 29.248-9.536 17.408-21.056 31.168-34.368 40.896-12.8 9.408-34.304 14.144-63.872 14.144-27.392 0-49.728-5.248-66.24-15.744-16-10.048-23.68-21.632-23.68-35.264 0-8.384 2.496-15.36 7.68-21.44 5.44-6.464 13.12-12.032 22.784-16.704 10.048-4.8 20.416-8.704 30.784-11.456 10.624-2.88 28.416-7.040 52.864-12.48 30.912-6.464 59.392-13.632 84.544-21.312 25.536-7.872 47.424-17.536 65.472-28.736 18.304-11.456 32.768-26.176 43.136-43.776 10.304-17.728 15.488-39.488 15.488-64.832-0.064-30.272-9.024-57.984-26.816-82.176z" />
<glyph unicode="&#xe665;" glyph-name="eliza-logo" data-tags="eliza-logo" d="M462.541 462.095l-23.245 33.905 23.245 33.905c3.092 4.506 27.873 40.1 69.56 87.245-17.797 8.018-37.591 12.626-58.532 12.626-66.048-0.010-138.721-59.914-138.721-133.775 0-73.882 74.332-133.765 138.721-133.765 20.941 0 40.735 4.608 58.532 12.626-41.687 47.135-66.468 82.729-69.56 87.235zM644.321 264.494c-42.813-18.033-87.378-29.102-132.321-29.102-185.129 0-351.908 178.196-419.4 260.987 80.046 98.673 247.255 260.229 419.4 260.229 45.824 0 90.511-10.936 132.864-28.631 20.449 17.336 42.281 34.437 65.423 50.678-61 31.068-127.98 51.753-198.287 51.753-282.767 0-512-334.408-512-334.408s229.233-334.408 512-334.408c70.308 0 137.288 20.695 198.277 51.753-23.347 16.384-45.353 33.649-65.956 51.149zM768 745.149c-152.986-99.082-256-249.149-256-249.149s103.014-150.067 256-249.149c152.986 99.082 256 249.149 256 249.149s-103.014 150.067-256 249.149zM763.832 412.974c-45.804 0-83.026 37.171-83.026 83.026 0 45.804 37.233 83.026 83.026 83.026 45.855 0 83.026-37.233 83.026-83.026 0-45.865-37.181-83.026-83.026-83.026zM898.683 412.974c-15.268 0-27.658 12.38-27.658 27.699 0 15.258 12.39 27.648 27.658 27.648 15.278 0 27.689-12.39 27.689-27.648 0-15.319-12.411-27.699-27.689-27.699z" />
<glyph unicode="&#xe666;" glyph-name="mail" data-tags="mail" d="M512 446.976l-449.024 449.024h897.984zM6.976 163.008q-6.976 14.016-6.976 28.992v640q0 14.976 6.976 28.992l350.016-348.992zM473.024 395.008q6.016-4.992 15.488-8t16.512-3.008h6.976q25.984-1.024 38.976 11.008l70.976 72 339.008-339.008h-897.984l339.008 339.008zM1017.024 860.992q6.976-14.016 6.976-28.992v-640q0-14.976-6.976-28.992l-350.016 348.992z" />
<glyph unicode="&#xe668;" glyph-name="git-commit" data-tags="git-commit" d="M758.848 576c-28.48 110.208-127.744 192-246.848 192s-218.368-81.792-246.912-192h-201.088v-128h201.088c28.544-110.272 127.808-192 246.912-192s218.368 81.728 246.848 192h201.152v128h-201.152zM512 384c-70.656 0-128 57.344-128 128s57.344 128 128 128c70.656 0 128-57.344 128-128s-57.344-128-128-128z" />
<glyph unicode="&#xe669;" glyph-name="key" data-tags="key" d="M1002.112 709.76l-101.12 101.12c-24.768 24.768-65.344 65.344-90.176 90.176l-101.12 101.12c-24.768 24.768-68.928 29.184-98.112 9.728l-276.416-184.32c-29.184-19.456-40.192-61.056-24.512-92.416l70.464-140.992c2.176-4.288 4.672-8.896 7.36-13.632l-356.544-356.544-32-224h192v64h128v128h128v128h128v71.168c6.4-3.84 12.544-7.232 18.176-10.048l140.992-70.464c31.36-15.68 72.96-4.608 92.416 24.512l184.32 276.416c19.456 29.184 15.104 73.344-9.728 98.112zM150.656 169.344l-45.248 45.248 311.552 311.552 45.248-45.248-311.552-311.552zM916.992 600.256l-45.248-45.248c-12.416-12.416-32.832-12.416-45.248 0l-271.552 271.552c-12.416 12.416-12.416 32.832 0 45.248l45.248 45.248c12.416 12.416 32.832 12.416 45.248 0l271.552-271.552c12.416-12.416 12.416-32.832 0-45.248z" />
<glyph unicode="&#xe66a;" glyph-name="calendar" data-tags="calendar" d="M320 640h128v-128h-128zM512 640h128v-128h-128zM704 640h128v-128h-128zM128 256h128v-128h-128zM320 256h128v-128h-128zM512 256h128v-128h-128zM320 448h128v-128h-128zM512 448h128v-128h-128zM704 448h128v-128h-128zM128 448h128v-128h-128zM832 1024v-64h-128v64h-448v-64h-128v64h-128v-1024h960v1024h-128zM896 64h-832v704h832v-704z" />
<glyph unicode="&#xe66b;" glyph-name="calendar2" data-tags="calendar2" d="M896 896h-96v-32c0-35.264-28.736-64-64-64s-64 28.736-64 64v32h-320v-32c0-35.264-28.736-64-64-64s-64 28.736-64 64v32h-96c-35.2 0-64-28.8-64-64v-704c0-35.2 28.8-64 64-64h768c35.2 0 64 28.8 64 64v704c0 35.2-28.8 64-64 64zM896 128.128c-0.064-0.064-0.064-0.064-0.128-0.128h-767.744c-0.064 0.064-0.064 0.064-0.128 0.128v575.872h768v-575.872zM288 832c17.664 0 32 14.336 32 32v128c0 17.664-14.336 32-32 32s-32-14.336-32-32v-128c0-17.664 14.336-32 32-32zM736 832c17.664 0 32 14.336 32 32v128c0 17.664-14.336 32-32 32s-32-14.336-32-32v-128c0-17.664 14.336-32 32-32zM576 640h-320v-64h256v-128h-256v-64h256v-128h-256v-64h320zM704 192h64v448h-128v-64h64zM872 40h-720c-35.2 0-64 20.8-64 56v-32c0-35.2 28.8-64 64-64h720c35.2 0 64 28.8 64 64v32c0-35.2-28.8-56-64-56z" />
<glyph unicode="&#xe66c;" glyph-name="save" data-tags="save" d="M960 0h-64v448q0 25.984-19.008 44.992t-44.992 19.008h-640q-27.008 0-45.504-19.008t-18.496-44.992v-448h-64q-25.984 0-44.992 19.008t-19.008 44.992v896q0 25.984 19.008 44.992t44.992 19.008h832l128-128v-832q0-25.984-19.008-44.992t-44.992-19.008zM768 960h-640v-256q0-27.008 18.496-45.504t45.504-18.496h512q25.984 0 44.992 18.496t19.008 45.504v256zM512 896h128v-192h-128v192zM224 448h576q12.992 0 22.528-9.472t9.472-22.528-9.472-22.528-22.528-9.472h-576q-12.992 0-22.528 9.472t-9.472 22.528 9.472 22.528 22.528 9.472zM224 256h576q12.992 0 22.528-9.472t9.472-22.528-9.472-22.528-22.528-9.472h-576q-12.992 0-22.528 9.472t-9.472 22.528 9.472 22.528 22.528 9.472zM224 64h576q12.992 0 22.528-9.472t9.472-22.528-9.472-22.528-22.528-9.472h-576q-12.992 0-22.528 9.472t-9.472 22.528 9.472 22.528 22.528 9.472z" />
<glyph unicode="&#xe66d;" glyph-name="move" data-tags="move" d="M1024 512l-192 192v-128h-256v256h128l-192 192-192-192h128v-256h-256v128l-192-192 192-192v128h256v-256h-128l192-192 192 192h-128v256h256v-128z" />
<glyph unicode="&#xe66e;" glyph-name="pushpin" data-tags="pushpin" d="M544 1024l-96-96 96-96-224-256h-224l176-176-272-360.64v-39.36h39.36l360.64 272 176-176v224l256 224 96-96 96 96-480 480zM448 480l-64 64 224 224 64-64-224-224z" />
<glyph unicode="&#xe670;" glyph-name="other" data-tags="other" d="M992 896h-960c-17.664 0-32-14.336-32-32v-64c0-17.664 14.336-32 32-32h960c17.664 0 32 14.336 32 32v64c0 17.664-14.336 32-32 32zM992 576h-960c-17.664 0-32-14.336-32-32v-64c0-17.664 14.336-32 32-32h960c17.664 0 32 14.336 32 32v64c0 17.664-14.336 32-32 32zM480 256h-448c-17.664 0-32-14.336-32-32v-64c0-17.664 14.336-32 32-32h448c17.664 0 32 14.336 32 32v64c0 17.664-14.336 32-32 32zM832 64l192 192h-384l192-192z" />
<glyph unicode="&#xe671;" glyph-name="foldertree" data-tags="foldertree" d="M640 288q0 12.992 9.472 22.528t22.528 9.472h128q12.992 0 22.528-9.472t9.472-22.528v-32h160q12.992 0 22.528-9.472t9.472-22.528v-192q0-12.992-9.472-22.528t-22.528-9.472h-320q-12.992 0-22.528 9.472t-9.472 22.528v32h-416q-12.992 0-22.528 9.472t-9.472 22.528v544h-160q-12.992 0-22.528 9.472t-9.472 22.528v320q0 12.992 9.472 22.528t22.528 9.472h192q12.992 0 22.528-9.472t9.472-22.528v-32h160q12.992 0 22.528-9.472t9.472-22.528v-256q0-12.992-9.472-22.528t-22.528-9.472h-160v-128h384v160q0 12.992 9.472 22.528t22.528 9.472h128q12.992 0 22.528-9.472t9.472-22.528v-32h160q12.992 0 22.528-9.472t9.472-22.528v-192q0-12.992-9.472-22.528t-22.528-9.472h-320q-12.992 0-22.528 9.472t-9.472 22.528v32h-384v-320h384v160z" />
<glyph unicode="&#xe672;" glyph-name="merge" data-tags="merge" d="M960 0h-384q-27.008 0-45.504 18.496t-18.496 45.504v64h64v-64h384v384h-64v64h64q25.984 0 44.992-19.008t19.008-44.992v-384q0-27.008-19.008-45.504t-44.992-18.496zM768 192h-512q-27.008 0-45.504 18.496t-18.496 45.504v512q0 25.984 18.496 44.992t45.504 19.008h512q27.008 0 45.504-19.008t18.496-44.992v-512q0-27.008-19.008-45.504t-44.992-18.496zM448 960h-384v-384h64v-64h-64q-27.008 0-45.504 18.496t-18.496 45.504v384q0 25.984 18.496 44.992t45.504 19.008h384q27.008 0 45.504-19.008t18.496-44.992v-64h-64v64z" />
<glyph unicode="&#xe673;" glyph-name="sharedfile" data-tags="sharedfile" d="M960 0h-896q-27.008 0-45.504 18.496t-18.496 45.504 18.496 45.504 45.504 18.496h384v128h-192q-27.008 0-45.504 18.496t-18.496 45.504v640q0 27.008 18.496 45.504t45.504 18.496h256v-288q0-12.992 9.472-22.528t22.528-9.472h286.976l1.024-1.024v-382.976q0-27.008-19.008-45.504t-44.992-18.496h-192v-128h384q27.008 0 45.504-19.008t18.496-45.504-18.496-44.992-45.504-18.496zM576 1025.024q25.984 0 44.032-17.984l193.024-193.984q19.008-17.984 17.984-44.992h-254.976v257.024z" />
<glyph unicode="&#xe674;" glyph-name="newspaper" data-tags="newspaper" d="M896 768v128h-896v-704c0-35.328 28.672-64 64-64h864c52.992 0 96 43.008 96 96v544h-128zM832 192h-768v640h768v-640zM128 704h640v-64h-640zM512 576h256v-64h-256zM512 448h256v-64h-256zM512 320h192v-64h-192zM128 576h320v-320h-320z" />
<glyph unicode="&#xe676;" glyph-name="mirror-h" data-tags="mirror-h" d="M576 0v1024h64l384-960v-64h-448zM0 64l384 960h64v-1024h-448v64zM384 64v800l-320-800h320z" />
<glyph unicode="&#xe677;" glyph-name="tag" data-tags="tag" d="M927.808 1024h-288.576c-52.928 0-126.784-30.592-164.224-68.032l-446.976-446.976c-37.44-37.44-37.44-98.624 0-136.064l344.896-344.896c37.44-37.44 98.624-37.44 136 0l446.976 446.976c37.44 37.44 68.032 111.296 68.032 164.224v288.576c0 52.928-43.264 96.192-96.192 96.192zM800 704c-52.992 0-96 43.008-96 96s43.008 96 96 96 96-43.008 96-96-43.008-96-96-96z" />
<glyph unicode="&#xe678;" glyph-name="tags" data-tags="tags" horiz-adv-x="1088" d="M992 960h-224c-52.8 0-126.528-30.528-163.904-67.904l-376.256-376.256c-37.312-37.312-37.312-98.432 0-135.744l280.256-280.256c37.312-37.312 98.432-37.312 135.744 0l376.256 376.256c37.312 37.312 67.904 111.104 67.904 163.904v224c0 52.8-43.2 96-96 96zM864 640c-52.992 0-96 43.008-96 96s43.008 96 96 96 96-43.008 96-96-43.008-96-96-96zM86.656 425.344l342.4-342.4c-36.288-19.136-82.432-13.568-112.896 16.896l-280.256 280.256c-37.312 37.312-37.312 98.432 0 135.744l376.256 376.256c37.312 37.312 111.104 67.904 163.904 67.904l-489.344-489.344c-12.416-12.416-12.416-32.832 0-45.248z" />
<glyph unicode="&#xe679;" glyph-name="sliders" data-tags="sliders" d="M448 896v16c0 26.432-21.632 48-48 48h-160c-26.432 0-48-21.568-48-48v-16h-192v-128h192v-16c0-26.368 21.568-48 48-48h160c26.368 0 48 21.632 48 48v16h576v128h-576zM256 768v128h128v-128h-128zM832 592c0 26.368-21.632 48-48 48h-160c-26.368 0-48-21.632-48-48v-16h-576v-128h576v-16c0-26.368 21.632-48 48-48h160c26.368 0 48 21.632 48 48v16h192v128h-192v16zM640 448v128h128v-128h-128zM448 272c0 26.368-21.632 48-48 48h-160c-26.432 0-48-21.632-48-48v-16h-192v-128h192v-16c0-26.368 21.568-48 48-48h160c26.368 0 48 21.632 48 48v16h576v128h-576v16zM256 128v128h128v-128h-128z" />
<glyph unicode="&#xe67a;" glyph-name="history" data-tags="history" d="M960 128h-576q-27.008 0-45.504 19.008t-18.496 45.504 18.496 44.992 45.504 18.496h576q27.008 0 45.504-18.496t18.496-44.992-19.008-45.504-44.992-19.008zM992 384h-640q-12.992 0-22.528 9.472t-9.472 22.528 9.472 22.528 22.528 9.472h640q12.992 0 22.528-9.472t9.472-22.528-9.472-22.528-22.528-9.472zM960 512h-576q-27.008 0-45.504 18.496t-18.496 45.504 18.496 45.504 45.504 18.496h576q27.008 0 45.504-19.008t18.496-45.504-19.008-44.992-44.992-18.496zM992 768h-640q-12.992 0-22.528 9.472t-9.472 22.528 9.472 22.528 22.528 9.472h640q12.992 0 22.528-9.472t9.472-22.528-9.472-22.528-22.528-9.472zM960 896h-576q-27.008 0-45.504 18.496t-18.496 45.504 18.496 45.504 45.504 18.496h576q27.008 0 45.504-18.496t18.496-45.504-19.008-45.504-44.992-18.496zM192 0h-128q-27.008 0-45.504 18.496t-18.496 45.504v128q0 27.008 18.496 45.504t45.504 18.496h128q27.008 0 45.504-18.496t18.496-45.504v-128q0-27.008-18.496-45.504t-45.504-18.496zM192 384h-128q-27.008 0-45.504 19.008t-18.496 44.992v128q0 27.008 18.496 45.504t45.504 18.496h128q25.984 0 44.992-19.008t19.008-44.992v-128q0-27.008-18.496-45.504t-45.504-18.496zM192 768h-128q-27.008 0-45.504 18.496t-18.496 45.504v128q0 25.984 18.496 44.992t45.504 19.008h128q27.008 0 45.504-19.008t18.496-44.992v-128q0-27.008-19.008-45.504t-44.992-18.496zM352 64h640q12.992 0 22.528-9.472t9.472-22.528-9.472-22.528-22.528-9.472h-640q-12.992 0-22.528 9.472t-9.472 22.528 9.472 22.528 22.528 9.472z" />
<glyph unicode="&#xe67b;" glyph-name="rpanel" data-tags="rpanel" d="M0 896v-768c0-38.4 25.6-64 64-64h576v896h-576c-38.4 0-64-25.6-64-64zM960 960h-256v-896h256c38.4 0 64 25.6 64 64v768c0 38.4-25.6 64-64 64z" />
<glyph unicode="&#xe67c;" glyph-name="rotateclockcw" data-tags="rotateclockcw" d="M960 320h-128q-25.984 0-44.992 19.008t-19.008 44.992v576q0 25.984 19.008 44.992t44.992 19.008h128q27.008 0 45.504-19.008t18.496-44.992v-576q0-27.008-18.496-45.504t-45.504-18.496zM640 0h-576q-25.984 0-44.992 19.008t-19.008 44.992v128q0 27.008 19.008 45.504t44.992 18.496h576q27.008 0 45.504-18.496t18.496-45.504v-128q0-25.984-18.496-44.992t-45.504-19.008zM576 192h-448q-25.984 0-44.992-18.496t-19.008-45.504 19.008-45.504 44.992-18.496h448q27.008 0 45.504 18.496t18.496 45.504-18.496 45.504-45.504 18.496zM576 768h-64q-89.024 0-157.504-54.528t-90.496-137.472h108.992q11.008-9.984 11.008-22.976t-11.008-22.976l-155.008-200q-11.008-9.984-25.984-9.984t-25.984 9.984l-155.008 200q-11.008 9.984-11.008 22.976t11.008 22.976h123.008q22.976 137.024 129.472 228.48t248.512 91.52h64q27.008 0 45.504-18.496t18.496-45.504-18.496-45.504-45.504-18.496z" />
<glyph unicode="&#xe67e;" glyph-name="clock" data-tags="clock" d="M658.752 274.752l-210.752 210.752v282.496h128v-229.504l173.248-173.248zM512 1024c-282.752 0-512-229.248-512-512s229.248-512 512-512 512 229.248 512 512-229.248 512-512 512zM512 128c-212.096 0-384 171.904-384 384s171.904 384 384 384c212.096 0 384-171.904 384-384s-171.904-384-384-384z" />
<glyph unicode="&#xe684;" glyph-name="cog2" data-tags="cog2" d="M933.76 413.76c-53.696 93.056-21.44 212.288 72.128 266.496l-100.608 174.272c-28.736-16.832-62.208-26.496-97.856-26.496-107.52 0-194.688 87.744-194.688 195.968h-201.28c0.256-33.408-8.064-67.264-25.984-98.24-53.696-93.056-173.184-124.672-266.88-70.784l-100.608-174.272c28.992-16.448 54.080-40.576 71.872-71.488 53.632-92.928 21.504-211.904-71.68-266.24l100.608-174.272c28.672 16.704 61.888 26.24 97.408 26.24 107.2 0 194.112-87.168 194.688-194.944h201.28c-0.064 33.088 8.256 66.56 25.984 97.216 53.632 92.928 172.8 124.608 266.432 71.040l100.608 174.272c-28.8 16.448-53.696 40.512-71.424 71.232zM512 304.64c-114.496 0-207.36 92.8-207.36 207.36s92.8 207.36 207.36 207.36c114.496 0 207.36-92.8 207.36-207.36s-92.8-207.36-207.36-207.36z" />
<glyph unicode="&#xe685;" glyph-name="maximize" data-tags="maximize" d="M64 960v-896h896v896h-896zM896 128h-768v576h768v-576z" />
<glyph unicode="&#xe686;" glyph-name="recover" data-tags="recover" d="M64 64h768v768h-768v-768zM128 640h640v-512h-640v512zM192 960v-64h704v-704h64v768h-768z" />
<glyph unicode="&#xe687;" glyph-name="scissors" data-tags="scissors" d="M890.752 314.816c-45.632 45.568-103.744 69.056-157.952 69.056h-29.12l-63.872 64 255.616 256.064c63.872 64 63.872 192 0 256.064l-383.424-384.064-383.424 384.064c-63.872-64-63.872-192 0-256.064l255.616-256.064-63.936-64h-29.12c-54.208 0-112.32-23.488-157.952-69.056-81.6-81.472-92.672-202.496-24.64-270.336 29.952-29.888 70.272-44.48 113.024-44.48 54.208 0 112.32 23.488 157.952 69.056 53.568 53.44 76.736 124.032 67.072 185.344l65.408 65.472 65.344-65.472c-9.664-61.376 13.504-131.904 67.072-185.344 45.632-45.568 103.744-69.056 157.952-69.056 42.688 0 83.008 14.592 113.024 44.48 68.032 67.84 56.96 188.928-24.64 270.336zM353.024 178.432c-7.68-17.856-19.008-34.368-33.6-48.896s-31.168-25.92-49.152-33.6c-16.128-6.912-32.96-10.56-48.64-10.56-15.168 0-36.608 3.392-52.864 19.584-16.128 16.128-19.52 37.312-19.52 52.288 0 15.552 3.648 32.192 10.496 48.192 7.68 17.856 19.008 34.368 33.6 48.896s31.168 25.92 49.152 33.6c16.128 6.912 32.96 10.56 48.64 10.56 15.168 0 36.608-3.392 52.864-19.584 16.128-16.128 19.52-37.312 19.52-52.288 0-15.552-3.648-32.192-10.56-48.192zM512 357.376c-49.92 0-90.368 40.512-90.368 90.496s40.448 90.496 90.368 90.496 90.368-40.512 90.368-90.496c0-49.984-40.448-90.496-90.368-90.496zM855.296 104.96c-16.256-16.192-37.696-19.584-52.864-19.584-15.68 0-32.512 3.648-48.64 10.56-17.984 7.68-34.496 19.008-49.152 33.6s-25.92 31.040-33.6 48.896c-6.912 16-10.496 32.704-10.496 48.192 0 14.976 3.392 36.16 19.52 52.288 16.256 16.192 37.696 19.584 52.864 19.584 15.68 0 32.512-3.648 48.64-10.56 17.984-7.68 34.496-19.008 49.152-33.6s25.92-31.040 33.6-48.896c6.912-16 10.496-32.64 10.496-48.192 0-14.976-3.392-36.16-19.52-52.288z" />
<glyph unicode="&#xe688;" glyph-name="paste" data-tags="paste" d="M832 704v160c0 17.6-14.4 32-32 32h-224v64c0 35.2-28.8 64-64 64h-128c-35.2 0-64-28.8-64-64v-64h-224c-17.6 0-32-14.4-32-32v-640c0-17.6 14.4-32 32-32h288v-192h448l192 192v512h-192zM384 959.872c0.064 0.064 0.064 0.064 0.128 0.128h127.744c0.064-0.064 0.064-0.064 0.128-0.128v-63.872h-128v63.872zM192 768v64h512v-64h-512zM832 90.496v101.504h101.504l-101.504-101.504zM960 256h-192v-192h-320v576h512v-384z" />
<glyph unicode="&#xe689;" glyph-name="copy" data-tags="copy" d="M864 896h-64v-64h32v-512h-256v-256h-384v768h32v64h-64c-17.6 0-32-14.4-32-32v-832c0-17.6 14.4-32 32-32h504l232 232v632c0 17.6-14.4 32-32 32zM640 64v192h192l-192-192zM768 896h-128v64c0 35.2-28.8 64-64 64h-128c-35.2 0-64-28.8-64-64v-64h-128v-128h512v128zM576 896h-128v63.872c0.064 0.064 0.064 0.064 0.128 0.128h127.744c0.064-0.064 0.064-0.064 0.128-0.128v-63.872z" />
<glyph unicode="&#xe68a;" glyph-name="spin1-8" data-tags="spin1-8" d="M441.6 768l-108.8 256h352l-102.4-256h-140.8z" />
<glyph unicode="&#xe68b;" glyph-name="spin2-8" data-tags="spin2-8" d="M640 742.4l108.8 256 249.6-249.6-256-108.8-102.4 102.4zM441.6 768l-108.8 256h352l-102.4-256h-140.8z" />
<glyph unicode="&#xe68c;" glyph-name="spin3-8" data-tags="spin3-8" d="M768 441.6v140.8l256 108.8v-352l-256 102.4zM640 742.4l108.8 256 249.6-249.6-256-108.8-102.4 102.4zM441.6 768l-108.8 256h352l-102.4-256h-140.8z" />
<glyph unicode="&#xe68d;" glyph-name="spin4-8" data-tags="spin4-8" d="M768 441.6v140.8l256 108.8v-352l-256 102.4zM640 742.4l108.8 256 249.6-249.6-256-108.8-102.4 102.4zM441.6 768l-108.8 256h352l-102.4-256h-140.8zM742.4 384l256-108.8-249.6-249.6-108.8 256 102.4 102.4z" />
<glyph unicode="&#xe68e;" glyph-name="spin5-8" data-tags="spin5-8" d="M768 441.6v140.8l256 108.8v-352l-256 102.4zM640 742.4l108.8 256 249.6-249.6-256-108.8-102.4 102.4zM441.6 768l-108.8 256h352l-102.4-256h-140.8zM582.4 256l108.8-256h-358.4l108.8 256h140.8zM742.4 384l256-108.8-249.6-249.6-108.8 256 102.4 102.4z" />
<glyph unicode="&#xe68f;" glyph-name="spin6-8" data-tags="spin6-8" d="M768 441.6v140.8l256 108.8v-352l-256 102.4zM640 742.4l108.8 256 249.6-249.6-256-108.8-102.4 102.4zM441.6 768l-108.8 256h352l-102.4-256h-140.8zM384 281.6l-108.8-256-249.6 249.6 256 108.8 102.4-102.4zM582.4 256l108.8-256h-358.4l108.8 256h140.8zM742.4 384l256-108.8-249.6-249.6-108.8 256 102.4 102.4z" />
<glyph unicode="&#xe690;" glyph-name="spin7-8" data-tags="spin7-8" d="M768 441.6v140.8l256 108.8v-352l-256 102.4zM640 742.4l108.8 256 249.6-249.6-256-108.8-102.4 102.4zM441.6 768l-108.8 256h352l-102.4-256h-140.8zM256 441.6l-256-108.8v358.4l256-108.8v-140.8zM384 281.6l-108.8-256-249.6 249.6 256 108.8 102.4-102.4zM582.4 256l108.8-256h-358.4l108.8 256h140.8zM742.4 384l256-108.8-249.6-249.6-108.8 256 102.4 102.4z" />
<glyph unicode="&#xe691;" glyph-name="spin8-8" data-tags="spin8-8" d="M768 441.024v142.016l256 105.984v-353.984zM643.008 744l105.984 254.976 249.984-249.984-254.976-107.008zM441.024 768l-105.984 256h353.984l-105.984-256h-142.016zM281.024 643.008l-256 105.984 251.008 249.984 105.984-254.976zM256 441.024l-256-105.984v353.984l256-105.984v-142.016zM382.016 280l-105.984-254.976-251.008 249.984 256 105.984zM582.976 256l105.984-256h-353.984l105.984 256h142.016zM744 380.992l254.976-105.984-249.984-249.984-105.984 254.976z" />
<glyph unicode="&#xe692;" glyph-name="loop" data-tags="loop" d="M874.048 874.048c-92.672 92.672-220.608 149.952-362.048 149.952-219.456 0-406.72-138.112-479.488-332.16l119.872-44.928c54.592 145.536 195.008 249.152 359.616 249.152 106.048 0 202.048-43.008 271.488-112.512l-143.488-143.488h384v384l-149.952-149.952zM512 128c-106.048 0-202.048 43.008-271.488 112.512l143.488 143.488h-384v-384l150.016 150.016c92.672-92.672 220.608-150.016 361.984-150.016 219.52 0 406.72 138.112 479.488 332.16l-119.872 44.928c-54.592-145.536-195.008-249.152-359.616-249.152z" />
<glyph unicode="&#xe693;" glyph-name="lock" data-tags="lock" d="M928 0h-832c-17.664 0-32 14.272-32 32v512c0 17.728 14.336 32 32 32h96v128c0 176.704 143.296 320 320 320s320-143.296 320-320v-128h96c17.728 0 32-14.272 32-32v-512c0-17.728-14.272-32-32-32zM704 720c0 97.216-86.016 176-192 176s-192-78.784-192-176v-144h384v144z" />
<glyph unicode="&#xe694;" glyph-name="link2" data-tags="link2" d="M896 767.999h-192c-70.4 0-128-57.6-128-128h255.999c38.4 0 64-25.6 64-64v-128c0-38.4-25.6-64-64-64h-255.999c0-70.4 57.6-128 128-128h192c70.4 0 128 57.6 128 128v255.999c0 70.4-57.6 128-128 128zM128.001 448v128c0 38.4 25.6 64 64 64h255.999c0 70.4-57.6 128-128 128h-192c-70.4 0-128-57.6-128-128v-255.999c0-70.4 57.6-128 128-128h192c70.4 0 128 57.6 128 128h-255.999c-38.4 0-64 25.6-64 64zM256.001 544v-64c0-19.2 12.8-32 32-32h447.999c19.2 0 32 12.8 32 32v64c0 19.2-12.8 32-32 32h-447.999c-19.2 0-32-12.8-32-32z" />
<glyph unicode="&#xe695;" glyph-name="check2" data-tags="check2" d="M999.68 951.040c-18.368 8.96-42.496 4.992-54.72-8.96l-496.96-494.080-179.648 150.016c-13.376 12.672-37.056 15.104-54.208 5.632s-22.144-27.648-11.328-41.728l207.808-290.624c7.232-9.472 20.352-15.296 34.56-15.296 0.128 0 0.256 0 0.32 0 14.272 0 27.456 6.080 34.56 15.744l533.12 637.056c10.816 14.656 4.8 33.344-13.504 42.24z" />
<glyph unicode="&#xe696;" glyph-name="folder" data-tags="folder" d="M448 960l128-128h448v-704h-1024v832z" />
<glyph unicode="&#xe697;" glyph-name="file" data-tags="file" d="M903.424 824.576c27.52-27.52 50.56-78.656 55.552-120.576h-318.976v318.976c41.92-4.992 93.056-28.032 120.576-55.552l142.848-142.848zM576 640h384v-560c0-44.032-36.032-80-80-80h-736c-44.032 0-80 36.032-80 80v864c0 44.032 36.032 80 80 80h432v-384z" />
<glyph unicode="&#xe698;" glyph-name="file-text" data-tags="file-text" d="M903.424 824.576c27.52-27.52 50.56-78.656 55.552-120.576h-318.976v318.976c41.92-4.992 93.056-28.032 120.576-55.552l142.848-142.848zM576 640v384h-432c-44.032 0-80-36.032-80-80v-864c0-44.032 36.032-80 80-80h736c44.032 0 80 36.032 80 80v560h-384zM832 128h-640v64h640v-64zM832 256h-640v64h640v-64zM832 384h-640v64h640v-64z" />
<glyph unicode="&#xe69a;" glyph-name="xbox" data-tags="xbox" d="M1024 64q-11.008 4.992-30.528 14.528t-78.976 41.984-118.016 67.52-137.472 89.984-147.008 110.976q-68.032-56-145.984-110.528t-140.032-91.52-115.008-65.984-81.472-43.008-29.504-14.016q9.984 9.024 28.032 25.472t68.48 67.52 96 100.992 99.52 119.488 91.008 129.472q-169.984 171.008-313.024 380.032l-6.016 9.024q8-8 23.488-22.528t64-54.016 98.496-73.024 121.984-70.976 140.032-58.496q68.032 20.992 139.008 57.024t124.032 73.472 96.512 71.488 65.472 54.976l22.976 22.016q-14.976-22.976-43.008-62.016t-111.488-142.016-164.48-185.024q36.992-60.032 89.984-128t102.528-121.984 93.504-98.496 70.528-69.504z" />
<glyph unicode="&#xe69c;" glyph-name="battlenet" data-tags="battlenet" d="M902.4 518.4c160 0 44.8 140.8-32 172.8 0 0 96 230.4 89.6 236.8 0 0-115.2-224-115.2-224-57.6 25.6-115.2 38.4-179.2 44.8-76.8 147.2-160 224-217.6 211.2-64-12.8-102.4-57.6-102.4-166.4-96 102.4-147.2-38.4-140.8-128-108.8-6.4-198.4-76.8-198.4-76.8s134.4 51.2 204.8 51.2c6.4-70.4 19.2-128 51.2-192-121.6-172.8-166.4-422.4 121.6-294.4-44.8-108.8 51.2-115.2 166.4-51.2l140.8-166.4-108.8 185.6c57.6 38.4 96 83.2 134.4 140.8 332.8-19.2 396.8 102.4 185.6 256v0zM601.6 748.8c-96 0-185.6-44.8-185.6-44.8 6.4 166.4 89.6 204.8 185.6 44.8zM345.6 665.6h-76.8c-12.8 64 25.6 121.6 70.4 83.2-6.4-12.8 0-64 6.4-83.2zM288 403.2c76.8-128 108.8-134.4 108.8-134.4-140.8-64-185.6-12.8-108.8 134.4zM486.4 224l44.8-70.4c-102.4-51.2-166.4 0-44.8 70.4zM556.8 172.8c-12.8 25.6-19.2 32-25.6 57.6 32 12.8 89.6 38.4 89.6 38.4s-70.4-12.8-89.6-12.8c64 51.2 224 236.8 224 236.8l-44.8 19.2c-83.2-89.6-160-172.8-268.8-236.8-140.8 160-160 243.2-179.2 358.4 0 0 51.2-6.4 70.4-6.4-6.4-32-12.8-102.4-12.8-102.4s12.8 64 38.4 89.6c19.2-108.8 89.6-307.2 89.6-307.2l38.4 25.6c-32 115.2-64 230.4-64 352 147.2 57.6 288 19.2 390.4-32-12.8-19.2-44.8-57.6-44.8-57.6s-44.8 51.2-83.2 70.4c25.6-25.6 51.2-57.6 64-83.2-102.4 32-313.6 70.4-313.6 70.4v-44.8c121.6-25.6 230.4-64 339.2-121.6-44.8-140.8-102.4-249.6-217.6-313.6zM736 307.2c32 57.6 57.6 121.6 64 179.2 115.2-89.6 147.2-172.8-64-179.2zM876.8 531.2l-76.8 32c0 0 32 44.8 44.8 70.4 83.2-64 64-96 32-102.4v0z" />
<glyph unicode="&#xe69d;" glyph-name="powercord" data-tags="powercord" d="M1024 741.504l-90.496 90.496-178.752-178.752-101.504 101.504 178.752 178.752-90.496 90.496-178.752-178.752-114.752 114.752-86.656-86.592 512-512 86.656 86.656-114.752 114.752zM274.752 274.752c165.76-165.76 385.216-36.352 519.296 75.456l-443.84 443.84c-111.808-134.080-241.216-353.536-75.456-519.296zM192 320l128-128-192-192-128 128z" />
<glyph unicode="&#xe69e;" glyph-name="play" data-tags="play" d="M256 896l640-384-640-384z" />
<glyph unicode="&#xe69f;" glyph-name="pause" data-tags="pause" d="M128 896h320v-768h-320zM576 896h320v-768h-320z" />
<glyph unicode="&#xe6a0;" glyph-name="stop" data-tags="stop" d="M128 896h768v-768h-768z" />
<glyph unicode="&#xe6a1;" glyph-name="star" data-tags="star" d="M1024 659.2l-352 51.2-160 320-160-320-352-51.2 256-249.6-57.6-352 313.6 160 313.6-166.4-57.6 358.4c0 0 256 249.6 256 249.6zM512 300.8l-224-115.2 44.8 249.6-185.6 172.8 249.6 38.4 115.2 224 108.8-224 249.6-38.4-179.2-179.2 44.8-249.6c0 0-224 121.6-224 121.6z" />
<glyph unicode="&#xe6a2;" glyph-name="star2" data-tags="star2" d="M1024 652.8l-352 51.2-160 320-160-320-352-51.2 256-249.6-57.6-352 313.6 166.4 313.6-166.4-57.6 352c0 0 256 249.6 256 249.6zM512 294.4v0 569.6l108.8-224 249.6-38.4-179.2-179.2 44.8-249.6-224 121.6z" />
<glyph unicode="&#xe6a3;" glyph-name="star3" data-tags="star3" d="M1024 652.8l-352 51.2-160 320-160-320-352-51.2 256-249.6-57.6-352 313.6 166.4 313.6-166.4-57.6 352c0 0 256 249.6 256 249.6z" />
<glyph unicode="&#xe6a4;" glyph-name="quill" data-tags="quill" d="M384 437.312c0 0 203.968 122.368 318.784 74.048 23.808 36.288 47.232 75.328 70.208 115.2-112.32 27.52-260.992 2.752-260.992 2.752s190.208 114.112 306.688 78.4c23.36 42.112 46.080 83.648 67.968 122.304-92.8 6.272-182.592-8.704-182.592-8.704s119.168 71.488 226.56 83.584c33.792 54.848 65.152 97.856 93.44 119.040-561.024 0-896-640-1024-1024h64l192 320c0 0 64-64 256 0 45.504 15.168 90.944 57.28 135.552 113.92-112.64 28.544-263.552 3.392-263.552 3.392z" />
<glyph unicode="&#xe6a5;" glyph-name="selectremove" data-tags="selectremove" d="M256 0h192v64h-192v-64zM64 128h-64v-128h128v64h-64v64zM0 896h64v64h64v64h-128v-128zM64 768h-64v-192h64v192zM448 1024h-192v-64h192v64zM320 448h384v128h-384v-128zM64 448h-64v-192h64v192zM960 576h64v192h-64v-192zM576 0h192v64h-192v-64zM896 1024v-64h64v-64h64v128h-128zM960 256h64v192h-64v-192zM576 960h192v64h-192v-64zM960 64h-64v-64h128v128h-64v-64z" />
<glyph unicode="&#xe6a6;" glyph-name="fix" data-tags="fix" d="M961.792 292.288l-372.8 304.256c-12.352 10.112-24.384 19.072-35.84 27.008 14.656 34.56 22.784 72.576 22.784 112.512 0 159.040-128.96 288-288 288-29.12 0-57.152-4.352-83.648-12.352l179.648-179.648v-192h-192l-179.648 179.648c-8-26.496-12.352-54.528-12.352-83.648 0-159.040 128.96-288 288-288 39.936 0 77.952 8.128 112.512 22.784 7.872-11.456 16.896-23.424 27.008-35.84l304.256-372.8c63.296-77.568 172.672-83.392 243.072-12.992s64.576 179.776-12.992 243.072zM864 64l-96 96 96 96 96-96-96-96z" />
<glyph unicode="&#xe6a7;" glyph-name="rpclose" data-tags="rpclose" d="M832 896v-704h128v704h-128zM384 640h-384v-192h384v-224l320 320-320 320v-224z" />
<glyph unicode="&#xe6a8;" glyph-name="git-compare" data-tags="git-compare" d="M896 302.016s0 305.984 0 401.984-96 192-192 192c-64 0-64 0-64 0v128l-192-192 192-192v128s32 0 64 0 64-32 64-64 0-401.984 0-401.984c-38.016-22.016-64-62.976-64-110.016 0-70.976 57.024-128 128-128s128 57.024 128 128c0 46.976-25.984 88-64 110.016zM832 128c-35.008 0-64 28.992-64 64s28.992 64 64 64 64-28.992 64-64-28.992-64-64-64zM384 256s-32 0-64 0-64 32-64 64 0 401.984 0 401.984c38.016 22.016 64 62.976 64 110.016 0 70.976-57.024 128-128 128s-128-57.024-128-128c0-46.976 25.984-88 64-110.016 0 0 0-305.984 0-401.984s96-192 192-192c64 0 64 0 64 0v-128l192 192-192 192v-128zM192 768c-35.008 0-64 28.992-64 64s28.992 64 64 64 64-28.992 64-64-28.992-64-64-64z" />
<glyph unicode="&#xe6a9;" glyph-name="git-merge" data-tags="git-merge" d="M768 576c-47.616 0-88.64-26.304-110.656-64.896-5.76 0.384-11.392 0.896-17.344 0.896-131.072 0-255.424 99.84-300.8 223.424 27.264 23.488 44.8 57.856 44.8 96.576 0 70.656-57.344 128-128 128s-128-57.344-128-128c0-47.232 25.856-88.064 64-110.272v-419.456c-38.144-22.208-64-62.976-64-110.272 0-70.656 57.344-128 128-128s128 57.344 128 128c0 47.232-25.856 88.064-64 110.272v230.272c84.16-89.024 200.384-148.544 320-148.544 6.4 0 11.648 0.448 17.344 0.64 22.144-38.464 63.104-64.64 110.656-64.64 70.656 0 128 57.344 128 128s-57.344 128-128 128zM256 128c-35.328 0-64 28.608-64 64s28.672 64 64 64c35.392 0 64-28.672 64-64s-28.608-64-64-64zM256 768c-35.328 0-64 28.608-64 64s28.672 64 64 64c35.392 0 64-28.608 64-64s-28.608-64-64-64zM768 384c-35.328 0-64 28.608-64 64s28.672 64 64 64c35.392 0 64-28.608 64-64s-28.608-64-64-64z" />
<glyph unicode="&#xe6aa;" glyph-name="pencil" data-tags="pencil" d="M768 960l-128-128 192-192 128 128-192 192zM64 256l0.704-192.576 191.296 0.576 512 512-192 192-512-512zM256 128h-128v128h64v-64h64v-64z" />
<glyph unicode="&#xe6ab;" glyph-name="github" data-tags="github" d="M512 1024c-282.752 0-512-229.248-512-512 0-226.24 146.688-418.112 350.144-485.824 25.6-4.672 34.944 11.136 34.944 24.64 0 12.16-0.448 52.544-0.704 95.296-142.4-30.912-172.48 60.352-172.48 60.352-23.296 59.136-56.832 74.88-56.832 74.88-46.528 31.744 3.52 31.104 3.52 31.104 51.392-3.584 78.464-52.736 78.464-52.736 45.696-78.272 119.872-55.616 148.992-42.496 4.672 33.024 17.92 55.616 32.512 68.352-113.664 12.928-233.216 56.896-233.216 253.056 0 55.936 19.968 101.568 52.672 137.408-5.248 12.992-22.848 65.088 5.056 135.552 0 0 42.944 13.76 140.8-52.48 40.832 11.392 84.608 17.024 128.128 17.216 43.52-0.192 87.296-5.888 128.192-17.28 97.664 66.304 140.672 52.48 140.672 52.48 28.032-70.528 10.368-122.56 5.12-135.488 32.832-35.84 52.608-81.472 52.608-137.408 0-196.672-119.744-240-233.792-252.672 18.432-15.872 34.752-46.976 34.752-94.72 0-68.416-0.704-123.648-0.704-140.48 0-13.632 9.344-29.568 35.264-24.576 203.328 67.84 349.888 259.712 349.888 485.824 0 282.752-229.248 512-512 512z" />
<glyph unicode="&#xe800;" glyph-name="blocked" data-tags="blocked" d="M874.048 874.048c-96.704 96.704-225.28 149.952-362.048 149.952s-265.344-53.248-362.048-149.952c-96.704-96.704-149.952-225.28-149.952-362.048s53.248-265.344 149.952-362.048c96.704-96.704 225.28-149.952 362.048-149.952s265.344 53.248 362.048 149.952c96.704 96.704 149.952 225.28 149.952 362.048s-53.248 265.344-149.952 362.048zM896 512c0-82.816-26.368-159.616-71.104-222.4l-535.296 535.296c62.784 44.736 139.584 71.104 222.4 71.104 211.712 0 384-172.288 384-384zM128 512c0 82.816 26.368 159.616 71.104 222.4l535.296-535.296c-62.784-44.736-139.584-71.104-222.4-71.104-211.712 0-384 172.288-384 384z" />
<glyph unicode="&#xe900;" glyph-name="question" data-tags="question" d="M985.6 710.4c-25.6 64-64 115.2-108.8 166.4s-102.4 83.2-166.4 108.8-128 38.4-198.4 38.4-134.4-12.8-198.4-38.4-121.6-64-166.4-108.8-76.8-102.4-108.8-166.4-38.4-128-38.4-198.4 12.8-134.4 38.4-198.4 64-115.2 108.8-166.4 102.4-83.2 166.4-108.8 128-38.4 198.4-38.4 134.4 12.8 198.4 38.4 115.2 64 166.4 108.8 83.2 102.4 108.8 166.4 38.4 128 38.4 198.4-12.8 134.4-38.4 198.4zM556.8 147.2c-12.8-12.8-25.6-19.2-44.8-19.2s-32 6.4-44.8 19.2-19.2 25.6-19.2 44.8 6.4 32 19.2 44.8 25.6 19.2 44.8 19.2 32-6.4 44.8-19.2 19.2-25.6 19.2-44.8-6.4-32-19.2-44.8zM716.8 480c-38.4-44.8-83.2-70.4-140.8-89.6v-6.4c0-19.2-6.4-32-19.2-44.8s-25.6-19.2-44.8-19.2-32 6.4-44.8 19.2-19.2 25.6-19.2 44.8c0 32 6.4 64 19.2 89.6s25.6 38.4 44.8 38.4c38.4 0 64 12.8 89.6 38.4s38.4 51.2 38.4 89.6-12.8 64-38.4 89.6-51.2 38.4-89.6 38.4-64-12.8-89.6-38.4-38.4-51.2-38.4-89.6c0-19.2-6.4-32-19.2-44.8s-25.6-19.2-44.8-19.2-32 6.4-44.8 19.2-19.2 25.6-19.2 44.8c0 70.4 25.6 128 76.8 179.2s108.8 76.8 179.2 76.8 128-25.6 179.2-76.8 76.8-108.8 76.8-179.2c0-57.6-19.2-108.8-51.2-160z" />
<glyph unicode="&#xe901;" glyph-name="opacity" data-tags="opacity" d="M953.6 256h-57.6v-83.2c19.2 25.6 44.8 51.2 57.6 83.2zM1024 512c0-44.8-6.4-89.6-19.2-128h-108.8v128h128zM640 384v128h128v-128h-128zM953.6 768c25.6-38.4 38.4-83.2 51.2-128h-108.8v128h57.6zM768 70.4v57.6h83.2c-25.6-19.2-51.2-44.8-83.2-57.6zM896 384v-128h-128v128h128zM640 1004.8c44.8-12.8 89.6-32 128-51.2v-57.6h-128v108.8zM640 768h128v-128h-128v128zM768 256v-128h-128v128h128zM768 896h83.2c19.2-12.8 32-32 44.8-44.8v-83.2h-128v128zM512 768v-128h128v-128h-128v-128h128v-128h-128v-128h128v-108.8c-38.4-12.8-83.2-19.2-128-19.2-281.6 0-512 230.4-512 512s230.4 512 512 512v-128h128v-128h-128zM768 512v128h128v-128h-128z" />
<glyph unicode="&#xe902;" glyph-name="comment" data-tags="comment" d="M896 896h-768c-38.4 0-64-25.6-64-64v-512c0-38.4 25.6-64 64-64h128v-192l192 192h448c38.4 0 64 25.6 64 64v512c0 38.4-25.6 64-64 64z" />
<glyph unicode="&#xe903;" glyph-name="facebook" data-tags="facebook" d="M608 832h160v192h-160c-123.52 0-224-100.48-224-224v-96h-128v-192h128v-512h192v512h160l32 192h-192v96c0 17.344 14.656 32 32 32z" />
<glyph unicode="&#xe904;" glyph-name="twitch" data-tags="twitch" d="M160 960l-96-160v-736h256v-128h128l128 128h160l288 288v608h-864zM896 416l-160-160h-160l-128-128v128h-192v576h640v-416zM672 704h96v-256h-96v256zM480 704h96v-256h-96v256z" />
<glyph unicode="&#xe905;" glyph-name="deviantart" data-tags="deviantart" d="M828.992 837.824v186.176h-186.176l-18.624-18.816-88-167.424-27.584-18.624h-313.6v-255.616h172.416l15.424-18.624-187.776-358.784v-186.176h186.176l18.624 18.816 88 167.424 27.584 18.624h313.6v255.616h-172.416l-15.424 18.816z" />
<glyph unicode="&#xe906;" glyph-name="google" data-tags="google" d="M522.176 585.216v-175.616h290.368c-11.776-75.392-87.808-220.8-290.368-220.8-174.784 0-317.376 144.768-317.376 323.2s142.592 323.2 317.376 323.2c99.392 0 166.016-42.432 204.032-78.976l139.008 133.824c-89.216 83.584-204.8 134.016-342.976 134.016-283.008 0-512-228.992-512-512s228.992-512 512-512c295.424 0 491.584 207.808 491.584 500.224 0 33.6-3.584 59.2-8 84.8l-483.584 0.192z" />
<glyph unicode="&#xe907;" glyph-name="google-plus" data-tags="google-plus" d="M325.824 566.592v-111.808h184.832c-7.424-48-55.808-140.608-184.832-140.608-111.168 0-201.984 92.224-201.984 205.824s90.816 205.824 201.984 205.824c63.424 0 105.6-27.008 129.792-50.176l88.384 85.184c-56.832 52.992-130.368 85.184-218.176 85.184-180.224-0.192-325.824-145.792-325.824-326.016s145.6-325.824 325.824-325.824c187.968 0 312.832 132.224 312.832 318.4 0 21.376-2.368 37.824-5.184 54.016h-307.584zM1024 576h-96v96h-96v-96h-96v-96h96v-96h96v96h96z" />
<glyph unicode="&#xe908;" glyph-name="heart" data-tags="heart" d="M755.2 960c-107.648 0-200.256-87.552-243.136-179.008-42.944 91.456-135.552 179.008-243.2 179.008-148.352 0-268.8-120.448-268.8-268.8 0-301.824 304.512-380.992 512-679.424 196.16 296.576 512 387.2 512 679.424 0 148.416-120.448 268.8-268.8 268.8z" />
<glyph unicode="&#xe909;" glyph-name="heart-broken" data-tags="heart-broken" d="M755.2 960c148.352 0 268.8-120.448 268.8-268.8 0-292.224-315.84-382.848-512-679.424-207.552 298.432-512 377.6-512 679.424 0 148.416 120.448 268.8 268.8 268.8 60.352 0 115.968-27.52 160.768-67.84l-77.632-124.16 224-128-128-320 352 384-224 128 61.888 92.864c35.392 21.76 75.2 35.136 117.312 35.136z" />
<glyph unicode="&#xe90a;" glyph-name="link-broken" d="M953.6 947.2v0c-96 102.4-249.6 102.4-345.6 6.4l-217.6-217.6c-96-96-96-249.6 0-345.6l6.4-6.4c6.4-6.4 19.2-12.8 25.6-19.2l76.8 83.2c-12.8 6.4-19.2 12.8-25.6 19.2l-6.4 6.4c-51.2 51.2-51.2 134.4 0 185.6l217.6 217.6c51.2 51.2 134.4 51.2 185.6 0l6.4-6.4c51.2-51.2 51.2-134.4 0-185.6l-96-96c19.2-44.8 25.6-89.6 25.6-134.4l153.6 153.6c89.6 96 89.6 249.6-6.4 339.2v0zM633.6 633.6c-12.8 6.4-19.2 19.2-25.6 25.6l-83.2-83.2c6.4-6.4 19.2-12.8 25.6-19.2l6.4-6.4c51.2-51.2 51.2-134.4 0-185.6l-217.6-217.6c-51.2-51.2-134.4-51.2-185.6 0l-6.4 6.4c-51.2 51.2-51.2 134.4 0 185.6l96 96c-12.8 44.8-19.2 89.6-19.2 134.4l-153.6-153.6c-96-96-96-249.6 0-339.2l6.4-6.4c96-96 249.6-96 339.2 0l217.6 217.6c96 96 96 249.6 0 345.6v0 0zM288 896v0c19.2 0 32-12.8 32-32v-128c0-19.2-12.8-32-32-32v0c-19.2 0-32 12.8-32 32v128c0 19.2 12.8 32 32 32zM0 608v0c0 19.2 12.8 32 32 32h128c19.2 0 32-12.8 32-32v0c0-19.2-12.8-32-32-32h-128c-19.2 0-32 12.8-32 32zM83.2 812.8v0c12.8 12.8 32 12.8 44.8 0l115.2-108.8c12.8-12.8 12.8-32 0-44.8v0c-12.8-12.8-38.4-12.8-51.2 0l-108.8 108.8c-12.8 12.8-12.8 32 0 44.8zM736 128v0c-19.2 0-32 12.8-32 32v128c0 19.2 12.8 32 32 32v0c19.2 0 32-12.8 32-32v-128c0-19.2-12.8-32-32-32zM1024 416v0c0-19.2-12.8-32-32-32h-128c-19.2 0-32 12.8-32 32v0c0 19.2 12.8 32 32 32h128c19.2 0 32-12.8 32-32zM940.8 211.2v0c-12.8-12.8-32-12.8-44.8 0l-115.2 108.8c-12.8 12.8-12.8 32 0 44.8v0c12.8 12.8 32 12.8 44.8 0l115.2-115.2c12.8-6.4 12.8-25.6 0-38.4z" />
<glyph unicode="&#xe90b;" glyph-name="volume-high" data-tags="volume-high" horiz-adv-x="1088" d="M890.048 101.952c-12.288 0-24.576 4.672-33.92 14.080-18.752 18.752-18.752 49.152 0 67.904 87.616 87.616 135.872 204.16 135.872 328.128s-48.256 240.448-135.872 328.128c-18.752 18.752-18.752 49.152 0 67.904s49.152 18.752 67.904 0c105.792-105.792 164.032-246.4 164.032-395.968s-58.24-290.176-164.032-395.968c-9.344-9.344-21.632-14.080-33.92-14.080zM719.552 192.448c-12.288 0-24.576 4.672-33.92 14.080-18.752 18.752-18.752 49.152 0 67.904 131.008 131.008 131.008 344.192 0 475.2-18.752 18.752-18.752 49.152 0 67.904s49.152 18.752 67.904 0c81.6-81.6 126.528-190.080 126.528-305.472s-44.928-223.872-126.528-305.472c-9.344-9.344-21.632-14.080-33.92-14.080v0zM548.992 283.008c-12.288 0-24.576 4.672-33.92 14.080-18.752 18.752-18.752 49.152 0 67.904 81.088 81.088 81.088 213.056 0 294.144-18.752 18.752-18.752 49.152 0 67.904s49.152 18.752 67.904 0c118.528-118.528 118.528-311.36 0-429.952-9.344-9.344-21.632-14.080-33.92-14.080zM416 64c-8.32 0-16.512 3.264-22.656 9.344l-246.656 246.656h-114.752c-17.664 0-32 14.336-32 32v320c0 17.664 14.336 32 32 32h114.752l246.656 246.656c9.152 9.152 22.912 11.904 34.88 6.912s19.776-16.64 19.776-29.568v-832c0-12.928-7.808-24.64-19.776-29.568-3.968-1.664-8.128-2.432-12.224-2.432z" />
<glyph unicode="&#xe90c;" glyph-name="volume-medium" data-tags="volume-medium" d="M719.552 192.448c-12.288 0-24.576 4.672-33.92 14.080-18.752 18.752-18.752 49.152 0 67.904 131.008 131.008 131.008 344.192 0 475.2-18.752 18.752-18.752 49.152 0 67.904s49.152 18.752 67.904 0c81.6-81.6 126.528-190.080 126.528-305.472s-44.928-223.872-126.528-305.472c-9.344-9.344-21.632-14.080-33.92-14.080v0zM548.992 283.008c-12.288 0-24.576 4.672-33.92 14.080-18.752 18.752-18.752 49.152 0 67.904 81.088 81.088 81.088 213.056 0 294.144-18.752 18.752-18.752 49.152 0 67.904s49.152 18.752 67.904 0c118.528-118.528 118.528-311.36 0-429.952-9.344-9.344-21.632-14.080-33.92-14.080zM416 64c-8.32 0-16.512 3.264-22.656 9.344l-246.656 246.656h-114.752c-17.664 0-32 14.336-32 32v320c0 17.664 14.336 32 32 32h114.752l246.656 246.656c9.152 9.152 22.912 11.904 34.88 6.912s19.776-16.64 19.776-29.568v-832c0-12.928-7.808-24.64-19.776-29.568-3.968-1.664-8.128-2.432-12.224-2.432z" />
<glyph unicode="&#xe90d;" glyph-name="volume-low" data-tags="volume-low" d="M548.992 283.008c-12.288 0-24.576 4.672-33.92 14.080-18.752 18.752-18.752 49.152 0 67.904 81.088 81.088 81.088 213.056 0 294.144-18.752 18.752-18.752 49.152 0 67.904s49.152 18.752 67.904 0c118.528-118.528 118.528-311.36 0-429.952-9.344-9.344-21.632-14.080-33.92-14.080zM416 64c-8.32 0-16.512 3.264-22.656 9.344l-246.656 246.656h-114.752c-17.664 0-32 14.336-32 32v320c0 17.664 14.336 32 32 32h114.752l246.656 246.656c9.152 9.152 22.912 11.904 34.88 6.912s19.776-16.64 19.776-29.568v-832c0-12.928-7.808-24.64-19.776-29.568-3.968-1.664-8.128-2.432-12.224-2.432z" />
<glyph unicode="&#xe90e;" glyph-name="volume-mute" data-tags="volume-mute" d="M416 64c-8.32 0-16.512 3.264-22.656 9.344l-246.656 246.656h-114.752c-17.664 0-32 14.336-32 32v320c0 17.664 14.336 32 32 32h114.752l246.656 246.656c9.152 9.152 22.912 11.904 34.88 6.912s19.776-16.64 19.776-29.568v-832c0-12.928-7.808-24.64-19.776-29.568-3.968-1.664-8.128-2.432-12.224-2.432z" />
<glyph unicode="&#xe90f;" glyph-name="volume-mute2" data-tags="volume-mute2" d="M960 404.864v-84.864h-84.864l-107.136 107.136-107.136-107.136h-84.864v84.864l107.136 107.136-107.136 107.136v84.864h84.864l107.136-107.136 107.136 107.136h84.864v-84.864l-107.136-107.136 107.136-107.136zM416 64c-8.32 0-16.512 3.264-22.656 9.344l-246.656 246.656h-114.752c-17.664 0-32 14.336-32 32v320c0 17.664 14.336 32 32 32h114.752l246.656 246.656c9.152 9.152 22.912 11.904 34.88 6.912s19.776-16.64 19.776-29.568v-832c0-12.928-7.808-24.64-19.776-29.568-3.968-1.664-8.128-2.432-12.224-2.432z" />
<glyph unicode="&#xe910;" glyph-name="bell" data-tags="bell" d="M512 32c57.6 0 102.4 38.4 102.4 96h-211.2c6.4-57.6 51.2-96 108.8-96zM832 320v268.8c0 160-89.6 288-243.2 326.4v32c0 44.8-38.4 76.8-76.8 76.8s-76.8-32-76.8-76.8v-32c-153.6-32-243.2-166.4-243.2-326.4v-268.8l-128-76.8v-51.2h896v51.2l-128 76.8z" />
<glyph unicode="&#xe911;" glyph-name="bell-off" data-tags="bell-off" d="M832 588.8c0 160-89.6 288-243.2 326.4v32c0 44.8-38.4 76.8-76.8 76.8s-76.8-32-76.8-76.8v-32c-12.8 0-19.2-6.4-32-6.4l428.8-428.8v108.8zM512 32c57.6 0 102.4 38.4 102.4 96h-211.2c6.4-57.6 51.2-96 108.8-96zM960 192l-768 768-64-64 115.2-115.2c-32-51.2-51.2-121.6-51.2-192v-268.8l-128-76.8v-51.2h768l64-64 64 64z" />
<glyph unicode="&#xe912;" glyph-name="filter" data-tags="filter" d="M0 1024v-128l384-320v-320l256-256v576l384 320v128z" />
<glyph unicode="&#xe913;" glyph-name="minus2" data-tags="minus2" d="M64 576h896v-128h-896v128z" />
<glyph unicode="&#xe914;" glyph-name="plus2" data-tags="plus2" d="M576 576v384h-128v-384h-384v-128h384v-384h128v384h384v128z" />
<glyph unicode="&#xe915;" glyph-name="cross" data-tags="cross" d="M896 800l-96 96-288-288-288 288-96-96 288-288-288-288 96-96 288 288 288-288 96 96-288 288c0 0 288 288 288 288z" />
<glyph unicode="&#xe916;" glyph-name="check" data-tags="check" d="M864 864l-480-480-224 224-128-128 352-352 608 608-128 128z" />
<glyph unicode="&#xe917;" glyph-name="photo" data-tags="photo" d="M304 416c0-114.88 93.12-208 208-208s208 93.12 208 208-93.12 208-208 208-208-93.12-208-208zM960 768h-224c-16 64-32 128-96 128h-256c-64 0-80-64-96-128h-224c-35.2 0-64-28.8-64-64v-576c0-35.2 28.8-64 64-64h896c35.2 0 64 28.8 64 64v576c0 35.2-28.8 64-64 64zM512 131.968c-156.864 0-284.032 127.168-284.032 284.032s127.168 284.032 284.032 284.032c156.864 0 284.032-127.168 284.032-284.032s-127.168-284.032-284.032-284.032zM960 576h-128v64h128v-64z" />
<glyph unicode="&#xe918;" glyph-name="image" data-tags="image" d="M959.872 896c0.064-0.064 0.064-0.064 0.128-0.128v-767.744c-0.064-0.064-0.064-0.064-0.128-0.128h-895.744c-0.064 0.064-0.064 0.064-0.128 0.128v767.744c0.064 0.064 0.064 0.064 0.128 0.128h895.744zM960 960h-896c-35.2 0-64-28.8-64-64v-768c0-35.2 28.8-64 64-64h896c35.2 0 64 28.8 64 64v768c0 35.2-28.8 64-64 64v0zM832 736c0-52.992-43.008-96-96-96s-96 43.008-96 96 43.008 96 96 96 96-43.008 96-96zM896 192h-768v128l224 384 256-320h64l224 192z" />
<glyph unicode="&#xe919;" glyph-name="images" data-tags="images" horiz-adv-x="1152" d="M1088 896h-64v64c0 35.2-28.8 64-64 64h-896c-35.2 0-64-28.8-64-64v-768c0-35.2 28.8-64 64-64h64v-64c0-35.2 28.8-64 64-64h896c35.2 0 64 28.8 64 64v768c0 35.2-28.8 64-64 64zM128 832v-640h-63.872c-0.064 0.064-0.064 0.064-0.128 0.128v767.744c0.064 0.064 0.064 0.064 0.128 0.128h895.744c0.064-0.064 0.064-0.064 0.128-0.128v-63.872h-768c-35.2 0-64-28.8-64-64v0zM1088 64.128c-0.064-0.064-0.064-0.064-0.128-0.128h-895.744c-0.064 0.064-0.064 0.064-0.128 0.128v767.744c0.064 0.064 0.064 0.064 0.128 0.128h895.744c0.064-0.064 0.064-0.064 0.128-0.128v-767.744zM960 672c0-52.992-43.008-96-96-96s-96 43.008-96 96 43.008 96 96 96 96-43.008 96-96zM1024 128h-768v128l224 384 256-320h64l224 192z" />
<glyph unicode="&#xe91a;" glyph-name="skull" data-tags="skull" d="M768 218v-122q0-40-28-68t-68-28-68 28-28 68q0-40-28-68t-68-28-68 28-28 68q0-40-28-68t-68-28-68 28-28 68v122q-89 63-140.5 156.5t-51.5 201.5q0 91 38 174t102.5 143 153 95.5 186.5 35.5 186.5-35.5 153-95.5 102.5-143 38-174q0-108-51.5-202t-140.5-156zM288 704q-40 0-68-28t-28-68 28-68 68-28 68 28 28 68-28 68-68 28zM384 320h192l-96 128zM672 704q-40 0-68-28t-28-68 28-68 68-28 68 28 28 68-28 68-68 28z" />
<glyph unicode="&#xe91b;" glyph-name="fill" data-tags="fill" d="M911.872 370.24c0 0 114.752-125.44 114.752-200.192 0-61.376-53.376-114.752-114.752-114.752s-112.064 53.376-112.064 114.752c0 74.752 112.064 200.192 112.064 200.192zM127.36 455.616h547.008l-274.88 272.192-272.128-272.192zM773.12 514.304c34.688-34.688 34.688-88.064 0-120.064l-312.192-312.192c-16-16-40-26.688-61.376-26.688s-42.688 10.688-58.688 26.688l-314.88 312.192c-34.688 32.064-34.688 85.376 0 120.064l293.504 293.504-136.064 136.128 82.688 80.064 507.008-509.696z" />
<glyph unicode="&#xe91c;" glyph-name="fill-empty" data-tags="fill-empty" d="M911.872 370.24c0 0 114.752-125.44 114.752-200.192 0-61.376-53.376-114.752-114.752-114.752s-112.064 53.376-112.064 114.752c0 74.752 112.064 200.192 112.064 200.192zM127.36 455.616l272.128-276.416 274.88 276.416-274.88 272.192-272.128-272.192zM773.12 514.304c34.688-34.688 34.688-88.064 0-120.064l-312.192-312.192c-16-16-40-26.688-61.376-26.688s-42.688 10.688-58.688 26.688l-314.88 312.192c-34.688 32.064-34.688 85.376 0 120.064l293.504 293.504-136.064 136.128 82.688 80.064 507.008-509.696z" />
<glyph unicode="&#xe91d;" glyph-name="road" data-tags="road" d="M928 0h-320q-13 0-22.5 9.5t-9.5 22.5v32h-128v-32q0-13-9.5-22.5t-22.5-9.5h-320q-13 0-22.5 9.5t-9.5 22.5l192 960q0 13 9.5 22.5t22.5 9.5h128q13 0 22.5-9.5t9.5-22.5v-32h128v32q0 13 9.5 22.5t22.5 9.5h128q13 0 22.5-9.5t9.5-22.5l192-960q0-13-9.5-22.5t-22.5-9.5zM576 832h-128v-256h128v256zM448 448v-256h128v256h-128z" />
<glyph unicode="&#xe91e;" glyph-name="tasker" data-tags="tasker" d="M448 293.504l-237.248 237.248 90.496 90.496 146.752-146.752 466.752 466.752 90.496-90.496zM1024 704v-448c0-141.184-114.816-256-256-256h-512c-141.184 0-256 114.816-256 256v512c0 141.184 114.816 256 256 256h512l-128-128h-384c-70.592 0-128-57.408-128-128v-512c0-70.592 57.408-128 128-128h512c70.592 0 128 57.408 128 128v320l128 128z" />
<glyph unicode="&#xe91f;" glyph-name="insertpicture" data-tags="insertpicture" d="M992 192q13 0 22.5-9.5t9.5-22.5v-128q0-13-9.5-22.5t-22.5-9.5h-128q-13 0-22.5 9.5t-9.5 22.5v32h-640v-32q0-13-9.5-22.5t-22.5-9.5h-128q-13 0-22.5 9.5t-9.5 22.5v128q0 13 9.5 22.5t22.5 9.5h32v640h-32q-13 0-22.5 9.5t-9.5 22.5v128q0 13 9.5 22.5t22.5 9.5h128q13 0 22.5-9.5t9.5-22.5v-32h640v32q0 13 9.5 22.5t22.5 9.5h128q13 0 22.5-9.5t9.5-22.5v-128q0-13-9.5-22.5t-22.5-9.5h-32v-640h32zM64 80q0-7 4.5-11.5t11.5-4.5h32q7 0 11.5 4.5t4.5 11.5v32q0 7-4.5 11.5t-11.5 4.5h-32q-7 0-11.5-4.5t-4.5-11.5v-32zM128 944q0 7-4.5 11.5t-11.5 4.5h-32q-7 0-11.5-4.5t-4.5-11.5v-32q0-7 4.5-11.5t11.5-4.5h32q7 0 11.5 4.5t4.5 11.5v32zM832 864v32h-640v-32q0-13-9.5-22.5t-22.5-9.5h-32v-640h32q13 0 22.5-9.5t9.5-22.5v-32h640v32q0 13 9.5 22.5t22.5 9.5h32v640h-32q-13 0-22.5 9.5t-9.5 22.5zM960 944q0 7-4.5 11.5t-11.5 4.5h-32q-7 0-11.5-4.5t-4.5-11.5v-32q0-7 4.5-11.5t11.5-4.5h32q7 0 11.5 4.5t4.5 11.5v32zM944 128h-32q-7 0-11.5-4.5t-4.5-11.5v-32q0-7 4.5-11.5t11.5-4.5h32q7 0 11.5 4.5t4.5 11.5v32q0 7-4.5 11.5t-11.5 4.5zM477 409l149 150q18 18 46.5 18t46.5-18l49-49v-254h-140zM352 576q-40 0-68 28t-28 68 28 68 68 28 68-28 28-68-28-68-68-28zM367 430l173-174h-284v156l18 18q18 19 46.5 19t46.5-19z" />
<glyph unicode="&#xe920;" glyph-name="pulse" data-tags="pulse" d="M806.4 512l-102.4 224-128-294.4-160 518.4-160-512-32 64h-224v-128h153.6l102.4-320 160 486.4 160-486.4 128 384 32-64h288v128z" />
<glyph unicode="&#xe921;" glyph-name="fire" data-tags="fire" d="M480 64q-113 0-209 55.5t-151.5 151.5-55.5 209q0 44 13 79.5t32 63.5 38 61 32 87 13 125q0-10 10.5-19.5t25-19 32-33.5 28.5-56q16-49 52-88.5t76-39.5q52 0 88.5 59t54 159 17.5 230q15-44 46-92t65.5-87 72.5-89 67.5-97.5 49-111 19.5-131.5q0-113-55.5-209t-151.5-151.5-209-55.5zM608 704q-51-136-96-192-19-24-47.5-43t-52-30.5-45.5-26-34.5-37-12.5-55.5q0-61 47.5-94.5t112.5-33.5q96 0 160 50.5t64 137.5q0 67-11 115.5t-25 72-32 60-28 76.5z" />
<glyph unicode="&#xe922;" glyph-name="wand2" data-tags="wand2" d="M1007 20q-19-19-45-20t-44 17l-449 450q-18 18-17 44t20 45 45 20 44-17l449-450q18-18 17-44t-20-45zM644 640l-128-32-148 143q-17 18-43 17t-45-20-20-45 17-44l143-147-32-128q-2-3-5.5-8t-5.5-8-5-6.5-5.5-5-6-1.5-6.5 3l-126 154h-192q-16 5-26 13t-6 19l128 192-65 193q0 13 9.5 22.5t22.5 9.5l193-65 192 128q11 4 19-6t13-26v-192l153-126q3-3 3-6.5t-1.5-6-5-6-6.5-5.5-8-5-7-5z" />
<glyph unicode="&#xe923;" glyph-name="blackhole2" data-tags="blackhole2" d="M576 64q-104 0-192.5 51.5t-140 140-51.5 192.5q0 106 75 181t181 75q34 0 78-19t79-57.5 35-83.5q0-59-11-84 33 15 54 46.5t21 69.5q0 106-75 181t-181 75q-87 0-160.5-43t-116.5-116.5-43-160.5q0-125 37.5-228t90.5-156q-139 46-197.5 139t-58.5 245q0 91 35.5 174t95.5 143 143 95.5 174 35.5q104 0 192.5-51.5t140-140 51.5-192.5q0-106-75-181t-181-75q-34 0-78 19t-79 57.5-35 83.5q0 59 11 84-33-15-54-46.5t-21-69.5q0-106 75-181t181-75q87 0 160.5 43t116.5 116.5 43 160.5q0 124-37.5 227.5t-90.5 156.5q139-46 197.5-139t58.5-245q0-91-35.5-174t-95.5-143-143-95.5-174-35.5z" />
<glyph unicode="&#xe924;" glyph-name="blackhole" data-tags="blackhole" d="M576 64q-104 0-192.5 51.5t-140 140-51.5 192.5q0 64 32 122.5t92 96 132 37.5q50 0 89-45.5t39-114.5q-2 4-6 10.5t-16.5 23-26.5 29-35.5 23-43.5 10.5q-52 0-90-50.5t-38-141.5q0-106 75-181t181-75q87 0 160.5 43t116.5 116.5 43 160.5q0 125-37.5 228t-90.5 156q139-46 197.5-139t58.5-245q0-91-35.5-174t-95.5-143-143-95.5-174-35.5zM576 320q-50 0-89 45.5t-39 114.5q2-4 6-10.5t16.5-23 26.5-29 35.5-23 43.5-10.5q52 0 90 50.5t38 141.5q0 106-75 181t-181 75q-87 0-160.5-43t-116.5-116.5-43-160.5q0-125 37.5-228t90.5-156q-139 46-197.5 139t-58.5 245q0 91 35.5 174t95.5 143 143 95.5 174 35.5q104 0 192.5-51.5t140-140 51.5-192.5q0-64-32-122.5t-92-96-132-37.5z" />
<glyph unicode="&#xe925;" glyph-name="patreon" data-tags="patreon" d="M640.512 960c-176.704 0-320.512-143.744-320.512-320.512 0-176.128 143.808-319.488 320.512-319.488 176.192 0 319.488 143.36 319.488 319.488 0 176.768-143.296 320.512-319.488 320.512zM0 64h192v896h-192v-896z" />
<glyph unicode="&#xe926;" glyph-name="libra" data-tags="libra" d="M1024 358.4c0 0 0 0 0 0l-166.4 364.8c6.4 6.4 6.4 12.8 6.4 19.2 0 12.8-6.4 25.6-19.2 32v38.4c12.8 0 19.2 6.4 19.2 19.2v0c0 6.4-6.4 12.8-12.8 19.2l-300.8 51.2c6.4 6.4 12.8 19.2 12.8 38.4 0 32-25.6 51.2-51.2 51.2s-51.2-25.6-51.2-57.6c0-12.8 6.4-25.6 12.8-38.4l-300.8-44.8c-6.4 0-12.8-12.8-12.8-19.2v0c0-12.8 6.4-19.2 19.2-19.2v-38.4c-12.8-6.4-19.2-19.2-19.2-32 0-6.4 0-12.8 6.4-19.2l-166.4-364.8c0 0 0 0 0-6.4 0 0 0 0 0-6.4 0-70.4 83.2-121.6 192-121.6s192 51.2 192 121.6c0 0 0 0 0 6.4 0 0 0 0 0 6.4l-160 364.8c6.4 6.4 6.4 12.8 6.4 19.2 0 12.8-6.4 25.6-19.2 32v38.4h262.4c-12.8 0-19.2-6.4-19.2-19.2s6.4-19.2 19.2-19.2v-403.2c-12.8 0-19.2-6.4-19.2-19.2v-230.4l-115.2-38.4c-6.4 0-12.8-6.4-19.2-19.2h-19.2c-12.8 0-19.2-6.4-19.2-19.2s6.4-19.2 19.2-19.2v-19.2c0 0 6.4-6.4 19.2-6.4h384c12.8 0 19.2 6.4 19.2 19.2v19.2c12.8 0 19.2 6.4 19.2 19.2s-6.4 19.2-19.2 19.2h-19.2c-6.4 6.4-12.8 12.8-19.2 19.2l-115.2 38.4v230.4c0 12.8-6.4 19.2-19.2 19.2v390.4c12.8 0 19.2 6.4 19.2 19.2s-12.8 19.2-19.2 19.2h262.4v-38.4c-12.8-6.4-19.2-19.2-19.2-32 0-6.4 0-12.8 6.4-19.2l-160-364.8c0 0 0 0 0-6.4 0 0 0 0 0-6.4 0-70.4 83.2-121.6 192-121.6s192 57.6 192 134.4c0-6.4 0 0 0 0zM44.8 371.2l147.2 326.4 147.2-326.4h-294.4zM678.4 371.2l153.6 326.4 147.2-326.4h-300.8z" />
<glyph unicode="&#xe927;" glyph-name="arrow2" data-tags="arrow2" d="M512 896l-384-384h256v-384h256v384h256z" />
</font>
</defs>
</svg>
