<svg version="1.1" xmlns="http://www.w3.org/2000/svg" viewBox="0 0 58 58">
	<path fill="#F0C419" d="M45,29c0,8.837-7.163,16-16,16v13c16.016,0,29-12.984,29-29S45.016,0,29,0v13 C37.837,13,45,20.163,45,29z"/>
	<path fill="#E57E25" d="M29,58c8.008,0,15.258-3.246,20.506-8.494c-4.542-4.542-5.29-5.29-9.192-9.192 C37.418,43.209,33.418,45,29,45s-8.418-1.791-11.314-4.686l-9.192,9.192C13.742,54.754,20.992,58,29,58z"/>
	<path fill="#26B99A" d="M13,29c0-8.837,7.163-16,16-16V0C12.984,0,0,12.984,0,29c0,8.008,3.246,15.258,8.494,20.506 l9.192-9.192C14.791,37.418,13,33.418,13,29z"/>
</svg>