<svg xmlns="http://www.w3.org/2000/svg" version="1.1" viewBox="0 0 16 16">
	<path fill="#f5ac41" d="M10.8,7.9c-0.1-1.8-1.4-2.8-3-2.8H7.7c-1.8,0-2.8,1.4-2.8,3.1c0,1.8,1.2,3,2.8,3 c1.8,0,3-1.3,3.1-2.9L10.8,7.9L10.8,7.9z M7.7,3.5c1.2,0,2.4,0.5,3.2,1.4v0c0-0.4,0.3-0.7,0.7-0.7l0.1,0c0.6,0,0.7,0.6,0.7,0.7 l0,6.3c0,0.4,0.4,0.6,0.7,0.4c1-1,2.2-5.3-0.6-7.8C9.8,1.4,6.2,1.8,4.3,3.1c-2,1.4-3.3,4.5-2.1,7.4c1.4,3.2,5.3,4.1,7.6,3.2 c1.2-0.5,1.7,1.1,0.5,1.6c-1.9,0.8-7,0.7-9.4-3.4C-0.7,9-0.6,4.1,3.7,1.5C7-0.4,11.4,0.1,14,2.8c2.7,2.9,2.6,8.2-0.1,10.3 c-1.2,0.9-3,0-3-1.4l0-0.4c-0.8,0.8-2,1.3-3.2,1.3c-2.4,0-4.5-2.1-4.5-4.5C3.2,5.7,5.3,3.5,7.7,3.5z"/>
</svg>