<svg version="1.1" xmlns="http://www.w3.org/2000/svg" viewBox="0 0 512 512">
	<g fill="#4C80A0">
		<path d="M440.8,407.2c-2.6,0-5.6-1-7.7-3.1c-4.1-4.1-3.6-10.8,0.5-14.4 c37.9-35.4,58.4-82.5,58.4-133.8c0-50.7-21-99.4-58.4-133.3c-4.1-3.6-4.6-10.3-0.5-14.4c3.6-4.1,10.3-4.6,14.4-0.5 c41,37.9,64.6,91.7,64.6,148.6S488.9,366,447.4,404.9C445.9,406.2,443.3,407.2,440.8,407.2z"/>
		<path d="M410,350.4c-2.6,0-4.6-1-6.7-2.6c-4.1-3.6-5.1-10.3-1-14.4c17.9-21.5,28.2-49.2,28.2-77.4 s-10.3-55.9-28.2-77.4c-3.6-4.1-3.1-10.8,1-14.4c4.1-3.6,10.8-3.1,14.4,1c21.5,25.6,33.3,57.4,33.3,90.7s-11.8,65.1-33.3,90.7 C415.6,349.3,413.1,350.4,410,350.4z"/>
		<path d="M369,304.2c-1.5,0-3.6-0.5-5.1-1.5c-5.1-3.1-6.7-9.2-3.6-13.8c5.6-9.7,8.7-21,8.7-32.8 c0-11.8-3.1-22.6-8.7-32.8c-3.1-5.1-1-11.3,3.6-13.8c5.1-3.1,11.3-1,13.8,3.6c7.7,13.3,11.8,27.7,11.8,43.1 c0,15.4-4.1,30.2-11.8,43.1C375.7,302.2,372.6,304.2,369,304.2z"/>
		<path fill="#52A7D4" d="M129.2,351.4l172.2,130.7c6.7,5.1,16.4,0.5,16.4-8.2V38.2c0-8.7-9.7-13.3-16.4-8.2L133.3,157.1"/>
		<path fill="#4C9BC6" d="M133.3,351.4l168.1,130.7c6.7,5.1,16.4,0.5,16.4-8.2v-51.3c0-28.2-22-58.4-48.7-67.1 l-135.8-44.6L133.3,351.4L133.3,351.4z"/>
		<path fill="#4C88AC" d="M307.5,494.4c-4.6,0-8.7-1.5-12.3-4.1L123,359.6c-4.6-3.6-5.6-9.7-2.1-14.4 c3.6-4.6,9.7-5.6,14.4-2.1l172.2,130.7V38.2L139.4,165.3c-4.6,3.6-10.8,2.6-14.4-2.1c-3.6-4.6-2.6-10.8,2.1-14.4l168.1-127 c6.2-4.6,14.4-5.6,21.5-2.1c6.7,3.7,11.3,10.8,11.3,18.5v435.6c0,7.7-4.6,14.9-11.3,18.5C313.7,493.9,310.6,494.4,307.5,494.4z"/>
		<path fill="#4A8FB6" d="M133.3,350.9c0,11.3-9.2,20.5-20.5,20.5H51.3c-22.6,0-41-18.5-41-41V186.9 c0-22.6,18.5-41,41-41h61.5c11.3,0,20.5,9.2,20.5,20.5v82"/>
		<path d="M112.8,381.6H51.3C23.1,381.6,0,358.5,0,330.3V186.9c0-28.2,23.1-51.3,51.3-51.3h61.5 c16.9,0,30.8,13.8,30.8,30.8v82c0,5.6-4.6,10.3-10.3,10.3c-5.6,0-10.3-4.6-10.3-10.3v-82c0-5.6-4.6-10.3-10.3-10.3H51.3 c-16.9,0-30.8,13.8-30.8,30.8v143.5c0,16.9,13.8,30.8,30.8,30.8h61.5c5.6,0,10.3-4.6,10.3-10.3c0-5.7,4.6-10.3,10.3-10.3 c5.6,0,10.3,4.6,10.3,10.3C143.5,367.8,129.7,381.6,112.8,381.6z"/>
		<path d="M133.3,315c-5.6,0-10.3-4.6-10.3-10.3v-15.4c0-5.6,4.6-10.3,10.3-10.3 c5.6,0,10.3,4.6,10.3,10.3v15.4C143.5,310.4,138.9,315,133.3,315z"/>
	</g>
</svg>