<svg version="1.1" xmlns="http://www.w3.org/2000/svg" viewBox="0 0 512 512">
    <path fill="#adb8c4" d="M213.4,330.3c1.7-4.1,4.8-14.1,0-17.8c-30.1-23.2-50.7-68.5-50.7-111.9c0-61.9,41.8-97.4,93.4-97.4 s93.4,35.5,93.4,97.4c0,43.4-20.6,88.7-50.7,111.9c-6,4.6-1.9,14.8,0,19.2c2.9,6.7,15.1,16.5,21.6,19.8c11.7,5.9,51.4,9.9,51.4,9.9 c26.2,5,45,27.2,45,53v23.3c0,7,8.4,10.7,13.5,5.9c51-47.6,82.7-115.7,81.6-191.2C510,111.9,396.3-0.1,255.7,0 C114.5,0.1,0,114.7,0,256c0,74.2,31.5,140.9,81.9,187.6c5.1,4.8,13.5,1.1,13.5-5.9v-23.4c0-25.7,18.8-47.9,45-53 c0,0,39.8-3.8,51.4-9.9C198.5,347.9,210.5,337.3,213.4,330.3z"/>
</svg>