<svg xmlns="http://www.w3.org/2000/svg" viewBox="0 0 512 512">
<path fill="#00B0F0" d="M80,404V293.13l56,32.14l200-115.28l-80-46.19l-120,69.28L16.92,164.33C6,192.79,0,223.69,0,256 c0,61.08,21.41,117.16,57.11,161.16L80,404z"/>
<path fill="#00B0F0" d="M34.19,128.12L136,186.9l80-46.19L85.29,65.24C65.12,83.31,47.82,104.52,34.19,128.12z"/>
<path d="M376,186.9l101.81-58.78c-13.63-23.6-30.93-44.81-51.1-62.87L296,140.71L376,186.9z"/>
<path d="M176,348.55l80,46.19l176-101.61V404l22.89,13.16C490.59,373.16,512,317.08,512,256c0-32.31-6-63.21-16.92-91.67L176,348.55z"/>
</svg>