<svg xmlns="http://www.w3.org/2000/svg" viewBox="0 0 512 512">
<path d="M131.06,0c0,0-28.91,70.93-26.58,81.91c2.03,9.94,10.07,0.34,13.47,7.64c6.05,12.77,59.86,101.3,53.19,106.67 c-1.69,1.47-42.59-0.43-73.51-6.32c-56.77-10.81-102.56,2.54-83.32,45.65C42.64,299,158.34,402.27,120.2,434.14 c-44.18,36.95,21.44,126.81,85.74,43.6c11.77-15.23,31.75-79.17-1.75-75.26c-40.5,4.74-15.28-32.98-15.28-32.98l25.25-32.36 c14.02-2.05,145.51-23.2,145.51-23.2l-4.57-29.2l-188.71,21.9c0,0-26.13-35.1-38.9-54.82c-10.13-12.41,67.06,5.28,82.62-11.38 c21.6-23.01,8.22-47.46,8.22-47.46l-71.2-139.01L131.06,0z M255.03,47.56L187.16,90.2l17.39,31.25l124.31-63.66L255.03,47.56z  M120.11,132.84l-50.5,34.19l52.16,11.3l18.84-13.12L120.11,132.84z M309.48,159.33l-56.42,37.17l56.21,35.11l0.06-23.72 c56.1,13.44,151.66,52.06,136.79,206.86l25.86-79.92l30.16,36.11c-5.95-180.52-162.82-184.51-192.73-185.61L309.48,159.33z  M229.03,349.64l-21.53,27.98l119.94,15.9c0,0,20.16-19.3,16.26-20.52C313.73,363.67,257.29,354.64,229.03,349.64L229.03,349.64z"/>
</svg>