<svg xmlns="http://www.w3.org/2000/svg" viewBox="0 0 700 700">
<path d="M612.51,350c-68.85,0-133.69,32.42-175,87.5c-61.05-58.84-157.7-58.84-218.75,0v-175l43.75-131.25l87.5,43.75h87.5 c24.16,0,43.75-19.59,43.75-43.75V87.5L449.6,24.18C442.19,9.36,427.04,0,410.47,0h-51.51c-51.47,0-102.43,9.08-150.57,26.74 c-20.41,7.49-37.34,22.16-47.26,41.52C108.74,170.51,0.74,368.47,0,566.75c-0.12,30.79,14.18,60.42,39.58,77.84 c103.52,71.08,303.39,73.71,428.24,8.03C491.9,681.56,528.17,700,568.75,700H700V368.3c-27.25-11.9-56.97-18.3-87.5-18.3L612.51,350 z"/>
</svg>