<svg xmlns="http://www.w3.org/2000/svg" viewBox="0 0 700 700">
<path d="M437.9,384.72l-83.34,63.07l83.34,51.29L337.45,613.43h55.57l153.57-135.72L437.9,384.72z M654.33,237.26l-83.44,74.21 l-67.25-66.26c0.5-1.25,1.01-2.52,0.98-4c-0.27-32.3,13.5-22.29,35.63-20.83c22.11,1.49,48.65-39.81,60.43-70.77 c11.8-30.96,7.39-67.83-47.16-81.1s-69.3,47.19-73.71,67.83c-4.47,20.64-17.73,26.61-17.73,26.61H425.2 c-0.61,1.25-0.86,2.36-1.41,3.59L309.96,54.36L208.29,229.48l34.22-10.88l67.45-75.8l53.05,50.58L0,645.64h50.29l429.93-340.62 l99.07,94.37L700,220.83L654.33,237.26z"/>
</svg>