<svg xmlns="http://www.w3.org/2000/svg" viewBox="0 0 256 256">
<path d="M198,72.8c4.8-1.9,8.1-6.6,8.1-12c0-5.9-4-10.8-9.3-12.4l15.9-22.2c1.5-2.1,2.2-4.6,2.1-7l-0.1-0.7 c-0.6-7.3-5.1-13.5-11.9-16.6c-6.9-3.1-14.6-2.3-20.6,2.2c-5.4,4.1-14,8.9-23.8,8.9c-6.4,0-12.1-1.6-17-4.7 c-8.2-5.2-18.7-5.2-26.8,0c-4.8,3.1-10.6,4.7-17,4.7c-9.8,0-18.3-4.9-23.8-8.9c-6-4.5-13.7-5.3-20.6-2.2C46.4,4.9,42,11.1,41.4,18.4 l-0.1,0.7c-0.2,2.4,0.6,4.9,2.1,7l15.9,22.2c-5.4,1.6-9.3,6.5-9.3,12.4c0,5.4,3.4,10.1,8.1,12C44.7,87.9,15.2,129,15.2,195.3v8.6 c0,17,9.9,32.2,25.3,38.8C61,251.5,90.5,256,128,256s67-4.5,87.5-13.3c15.4-6.6,25.3-21.9,25.3-38.8v-8.6 C240.8,129,211.3,87.9,198,72.8z M158.2,127c-0.6,1.9-2.3,3.1-4.1,3.1c-0.4,0-0.8-0.1-1.2-0.2c-0.7-0.2-16.2-4.7-16.2-25.9 c0-0.1-0.4-16.5-8.7-28c-8.3,11.5-8.7,27.9-8.7,28c0,19.3-17.6,40.8-18.4,41.7c-0.9,1-2.1,1.6-3.3,1.6c-1,0-2-0.3-2.8-1 c-1.8-1.5-2.1-4.3-0.6-6.1c0.2-0.2,16.4-20,16.4-36.3c0-0.9,0.4-17.1,8.6-30.4h17.6c8.1,13.3,8.5,29.5,8.6,30.3 c0,14.4,9.5,17.5,9.9,17.6C157.5,122.4,158.8,124.8,158.2,127z M193.1,65.1h-2.7H128H65.6h-2.7c-2.4,0-4.3-1.9-4.3-4.3 c0-2.4,1.9-4.3,4.3-4.3H65h126h2.1c2.4,0,4.3,1.9,4.3,4.3C197.4,63.1,195.5,65.1,193.1,65.1z"/>
</svg>