<svg xmlns="http://www.w3.org/2000/svg" viewBox="0 0 256 256">
<path d="M102.8,5.2c-29,7.3-66.6,21.9-85.7,33.3C8.5,43.6,1.5,48.2,1.5,48.9c0,0.7,1.5,8.3,3.2,16.8 c4.8,24,9.8,49.6,10.7,55.4c2.3,13.9,30.3,72.3,38.3,79.5c0.8,0.7,7.4,7.8,14.6,15.6C88,237.7,115.4,256,128,256s40-18.3,59.8-39.8 c7.2-7.8,13.8-15,14.6-15.6c8-7.2,36-65.6,38.3-79.5c0.9-5.8,6-31.4,10.7-55.4c1.7-8.5,3.2-16.2,3.2-16.8c0-0.7-7-5.4-15.5-10.5 c-11.5-6.9-22.5-11.8-42.1-19.2c-26-9.7-61.6-19.5-70.1-19.2C124.6,0.1,113.8,2.4,102.8,5.2z M142.2,68.2 c15.8,5,27.3,11.3,34.7,18.9l6.5,6.6l-2.4,14.3c-4.2,25.4-13.4,45.3-27.6,60.3c-9,9.4-20.4,17-25.4,17s-16.4-7.6-25.4-17 c-14.2-15-23.3-34.8-27.6-60.3l-2.4-14.3l6.5-6.6c7.4-7.7,17.6-13.3,33.7-18.6C126.8,64,128.5,64,142.2,68.2z"/>
</svg>