<svg xmlns="http://www.w3.org/2000/svg" viewBox="0 0 16 16">
<path d="M8,0C3.58,0,0,3.58,0,8s3.58,8,8,8s8-3.58,8-8S12.42,0,8,0z M10.85,4.85C10.75,4.95,10.64,5,10.5,5H6.23 C6.17,5,6.11,5.02,6.06,5.07C6.01,5.12,5.98,5.18,5.98,5.25v1.5c0,0.07,0.03,0.13,0.08,0.18C6.11,6.98,6.17,7,6.23,7H9.5 c0.14,0,0.25,0.05,0.35,0.15C9.95,7.25,10,7.36,10,7.5S9.95,7.75,9.85,7.85C9.75,7.95,9.64,8,9.5,8H6.23C6.17,8,6.11,8.02,6.06,8.07 C6.01,8.12,5.98,8.18,5.98,8.25v3.25c0,0.14-0.05,0.25-0.14,0.35C5.75,11.95,5.63,12,5.49,12c-0.14,0-0.26-0.05-0.36-0.15 c-0.1-0.1-0.15-0.22-0.15-0.35v-7c0-0.14,0.05-0.25,0.15-0.35C5.23,4.05,5.35,4,5.48,4h5.02c0.14,0,0.25,0.05,0.35,0.15 C10.95,4.25,11,4.36,11,4.5S10.95,4.75,10.85,4.85z"/>
</svg>