<svg xmlns="http://www.w3.org/2000/svg" viewBox="0 0 16 16">
<path d="M8,0C3.58,0,0,3.58,0,8s3.58,8,8,8s8-3.58,8-8S12.42,0,8,0z M11,9c0,0.13-0.04,0.23-0.12,0.31l-2.44,2.42 C8.26,11.91,8.12,12,8,12c-0.15,0-0.29-0.09-0.44-0.27L5.14,9.31C5.05,9.23,5,9.13,5,9V4.5c0-0.14,0.05-0.25,0.15-0.35 C5.25,4.05,5.37,4,5.51,4c0.14,0,0.26,0.05,0.35,0.15C5.95,4.25,6,4.36,6,4.5v4.33l2,2l2-2V4.5c0-0.14,0.05-0.25,0.15-0.35 C10.25,4.05,10.37,4,10.51,4c0.14,0,0.26,0.05,0.35,0.15C10.95,4.25,11,4.36,11,4.5h0V9z"/>
</svg>