<!-- Generated by IcoMoon.io -->
<svg version="1.1" xmlns="http://www.w3.org/2000/svg" width="16" height="16" viewBox="0 0 16 16">
<title>cloud</title>
<path d="M12 14h-8.5q-1.453 0-2.477-1.023t-1.023-2.477q0-0.891 0.422-1.656t1.141-1.25q0.531 1.078 1.508 1.82t2.18 0.977q-1.031-0.594-1.641-1.625t-0.609-2.266q0-1.859 1.32-3.18t3.18-1.32q1.375 0 2.492 0.75t1.633 1.969q-1.063 0.344-1.844 1.148t-1.094 1.898q0.547-0.813 1.422-1.289t1.891-0.477q1.656 0 2.828 1.172t1.172 2.828-1.172 2.828-2.828 1.172z"></path>
</svg>
