<svg xmlns="http://www.w3.org/2000/svg" viewBox="0 0 700 700">
<path d="M439.64,292.23l-59.01,16.86c-6.63,1.91-13.64-1.53-16.2-7.94l-16.84-42.11l-26.42,44.04c-3.62,6.03-11.29,8.24-17.56,5.12 l-35.43-17.72l25.73,38.59c2.04,3.06,2.74,6.83,1.93,10.42c-0.81,3.59-3.05,6.7-6.21,8.59l-37.45,22.47l33.17,6.63 c3.79,0.76,7.06,3.1,9,6.44c1.94,3.34,2.35,7.35,1.13,11.02l-17.44,52.33l66.68-28.57c1.69-0.74,3.49-1.1,5.29-1.1 c2.31,0,4.61,0.6,6.68,1.77l65.53,37.44l-17.84-62.44c-1.9-6.64,1.53-13.63,7.94-16.2l25.27-10.1l-22.91-4.58 c-4.41-0.88-8.08-3.9-9.79-8.05c-1.72-4.15-1.26-8.89,1.24-12.62L439.64,292.23z M699.89,307.9c-0.56-4.44-3.32-8.32-7.33-10.32 l-122.9-61.44l88.69-190.05c2.36-5.06,1.35-11.05-2.53-15.06c-3.88-4-9.83-5.21-14.97-3l-180.08,77.17L359.52,3.95 c-2.85-2.85-6.78-4.29-10.85-3.88c-4.01,0.4-7.64,2.57-9.87,5.93l-74.32,111.48L19.22,1.3C13.47-1.41,6.65,0.24,2.78,5.27 c-3.85,5.02-3.69,12.06,0.41,16.9l135.6,160.26L8.86,229.66c-4.64,1.69-7.99,5.79-8.72,10.67c-0.73,4.89,1.29,9.78,5.24,12.75 l92.47,69.36l-64.93,43.29c-3.99,2.66-6.26,7.25-5.97,12.04c0.29,4.79,3.12,9.06,7.41,11.21L98.43,421L3.94,515.49 c-4.37,4.36-5.2,11.13-2.04,16.42c3.16,5.3,9.54,7.74,15.42,5.99l109.77-32.94L81.46,641.89c-1.75,5.25-0.11,11.03,4.13,14.58 c4.24,3.55,10.22,4.15,15.09,1.49l138.67-75.64l100.58,113.15c2.57,2.87,6.23,4.52,10.07,4.52c4.04,0.11,7.57-1.67,10.13-4.59 l86.74-99.12L612.18,698c2.17,1.34,4.61,2,7.05,2c2.97,0,5.93-0.98,8.37-2.91c4.43-3.52,6.19-9.44,4.41-14.81l-60.55-181.66 l86.5,10.81c5.48,0.69,10.89-2.08,13.53-6.98c2.63-4.9,1.98-10.91-1.64-15.14l-72.1-84.11l97.67-85.45 C698.78,316.79,700.46,312.35,699.89,307.9L699.89,307.9z M489.63,375.96l-56.03,22.41l23.58,82.54c1.51,5.26-0.33,10.92-4.63,14.29 c-2.42,1.9-5.35,2.87-8.31,2.87c-2.29,0-4.6-0.58-6.68-1.77l-88.41-50.52l-88.07,37.74c-4.88,2.08-10.52,1.13-14.42-2.46 c-3.9-3.59-5.33-9.14-3.66-14.17l22.1-66.3l-52.35-10.47c-5.45-1.09-9.67-5.42-10.62-10.9c-0.95-5.48,1.57-10.98,6.34-13.84 l55.21-33.12l-46.02-69.02c-3.39-5.08-2.93-11.8,1.11-16.37c4.03-4.58,10.63-5.87,16.11-3.13l69.62,34.81l33.97-56.62 c2.63-4.38,7.49-6.97,12.62-6.49c5.1,0.41,9.52,3.67,11.42,8.41l22.41,56.03l82.55-23.58c5.46-1.55,11.25,0.44,14.57,5.01 c3.33,4.55,3.46,10.71,0.33,15.4l-42.7,64.04l47.6,9.52c5.84,1.17,10.22,6.03,10.76,11.97 C498.57,368.16,495.16,373.75,489.63,375.96L489.63,375.96z"/>
</svg>