<svg xmlns="http://www.w3.org/2000/svg" viewBox="0 0 16 16">
<path d="M14.5,8c0-1.34-0.4-2.58-1.09-3.61L16,0.5L15.5,0l-3.95,2.56C10.53,1.89,9.31,1.5,8,1.5S5.47,1.89,4.45,2.56L0.5,0L0,0.5 l2.59,3.89C1.9,5.42,1.5,6.66,1.5,8s0.4,2.58,1.09,3.61L0,15.5L0.5,16l3.95-2.56C5.47,14.11,6.69,14.5,8,14.5s2.53-0.39,3.55-1.06 L15.5,16l0.5-0.5l-2.59-3.89C14.1,10.58,14.5,9.34,14.5,8z M13.5,13.5c0,0-3.64-3-5.5-3s-5.5,3-5.5,3s3-3.79,3-5.5s-3-5.5-3-5.5 s3.64,3,5.5,3s5.5-3,5.5-3s-3,3.79-3,5.5S13.5,13.5,13.5,13.5z"/>
</svg>