<svg xmlns="http://www.w3.org/2000/svg" viewBox="0 0 16 16">
<path d="M15 6h-6v1h4.031q0.531 0.016 0.672 0.156l2.141 1.469q0.156 0.156 0.156 0.375t-0.156 0.375l-2.141 1.469q-0.156 0.156-0.703 0.156h-4v4q0 0.406-0.289 0.703t-0.711 0.297-0.711-0.297-0.289-0.703v-4h-6q-0.406 0-0.703-0.297t-0.297-0.703v-2q0-0.406 0.297-0.703t0.703-0.297h6v-1h-4q-0.547 0-0.703-0.156l-2.141-1.469q-0.156-0.156-0.156-0.375t0.156-0.375l2.141-1.469q0.141-0.156 0.672-0.156h4.031v-1q0-0.406 0.289-0.703t0.711-0.297 0.711 0.297 0.289 0.703v1h6q0.406 0 0.703 0.289t0.297 0.711v2q0 0.422-0.297 0.711t-0.703 0.289z"></path>
</svg>