<svg xmlns="http://www.w3.org/2000/svg" viewBox="0 0 16 16">
<path d="M15.734 15.688q-0.297 0.297-0.703 0.313t-0.688-0.266l-7.016-7.031q-0.281-0.281-0.266-0.688t0.313-0.703 0.703-0.313 0.688 0.266l7.016 7.031q0.281 0.281 0.266 0.688t-0.313 0.703zM10.063 6l-2 0.5-2.313-2.234q-0.266-0.281-0.672-0.266t-0.703 0.313-0.313 0.703 0.266 0.688l2.234 2.297-0.5 2q-0.031 0.047-0.086 0.125t-0.086 0.125-0.078 0.102-0.086 0.078-0.094 0.023-0.102-0.047l-1.969-2.406h-3q-0.25-0.078-0.406-0.203t-0.094-0.297l2-3-1.016-3.016q0-0.203 0.148-0.352t0.352-0.148l3.016 1.016 3-2q0.172-0.063 0.297 0.094t0.203 0.406v3l2.391 1.969q0.047 0.047 0.047 0.102t-0.023 0.094-0.078 0.094-0.102 0.086-0.125 0.078-0.109 0.078z"/>
</svg>