<svg xmlns="http://www.w3.org/2000/svg" viewBox="0 0 16 16">
<path d="M15.5 8h-2.5v4h1q0.406 0 0.703 0.297t0.297 0.703v2q0 0.422-0.297 0.711t-0.703 0.289h-3q-0.422 0-0.711-0.289t-0.289-0.711v-2q0-0.406 0.289-0.703t0.711-0.297h1v-4h-7v4h1q0.406 0 0.703 0.297t0.297 0.703v2q0 0.422-0.297 0.711t-0.703 0.289h-3q-0.422 0-0.711-0.289t-0.289-0.711v-2q0-0.406 0.289-0.703t0.711-0.297h1v-4h-3.5q-0.203 0-0.352-0.148t-0.148-0.352 0.148-0.352 0.352-0.148h7.5v-3h-1q-0.422 0-0.711-0.289t-0.289-0.711v-2q0-0.406 0.289-0.703t0.711-0.297h3q0.406 0 0.703 0.297t0.297 0.703v2q0 0.422-0.297 0.711t-0.703 0.289h-1v3h6.5q0.203 0 0.352 0.148t0.148 0.352-0.148 0.352-0.352 0.148z"/>
</svg>