<svg xmlns="http://www.w3.org/2000/svg" viewBox="0 0 512 512">
<path d="M314.31,12.5l-24.8,11.49l-31.84,132.66l65.57-120.73L314.31,12.5L314.31,12.5z M42.93,38.82 c12.34,82.96,52.22,152.49,108.03,211.07c15.24-10.31,30.63-20.9,46.06-31.71c-23.89-29.45-40.81-60.6-47-93.03 C113.12,96.58,77.11,67.59,42.93,38.82L42.93,38.82z M463.95,38.85c-33.34,28.08-68.42,56.36-104.36,84.27 c-11.14,62.79-62.63,120.84-127.47,171.04C161.57,348.78,74.1,394.37,0,425.07l0,35.34c100.98-36.8,210.85-87.75,298.54-158.06 C383.76,234.01,447.69,148.09,463.95,38.85L463.95,38.85z M209.32,48.93l-9.17,29.99l43.87,78.78l-7.41-91.99L209.32,48.93 L209.32,48.93z M332.98,143.61C219.51,230.14,99.68,311.43,0,368.63v34.61c71.07-30.1,153.74-73.87,219.79-125.01 C273.52,236.63,315.57,190.33,332.98,143.61L332.98,143.61z M177.1,145.93c7.93,20.37,20.52,40.63,36.66,60.45 c7.58-5.37,15.16-10.81,22.74-16.28C216.62,175.6,196.76,160.87,177.1,145.93L177.1,145.93z M358.89,275.7 c-10.32,10.21-21.11,20.04-32.25,29.55c59.21,40.21,126.4,74.57,185.36,99.37v-33.52C464.71,344.15,412.69,311.65,358.89,275.7z  M310.47,318.62c-12.56,10.05-25.55,19.68-38.85,28.95c75.83,48.67,161.01,86.02,240.38,114.7v-35.82 C448.54,400.33,374.95,363.12,310.47,318.62L310.47,318.62z M247.26,374.73l-49.8,84.37l8.42,25.44l29.92-12.23L247.26,374.73 L247.26,374.73z M264.34,375.6l55.39,112.81l39.32,11.08l-3.81-34.47L264.34,375.6L264.34,375.6z"/>
</svg>