<svg xmlns="http://www.w3.org/2000/svg"  viewBox="0 0 700 700">
<path d="M388.88,272.32c0,42.94-34.81,77.76-77.75,77.76s-77.76-34.82-77.76-77.76s34.82-77.75,77.76-77.75 S388.88,229.38,388.88,272.32 M583.26,272.32c0.07-95.19-49.62-183.49-131-232.86C370.87-9.9,269.61-13.17,185.22,30.87 C100.82,74.91,45.58,159.84,39.52,254.85c-6.05,95,37.97,186.25,116.09,240.65V700h311.04l-0.01-116.64h116.64V427.85l77.76-38.88 L583.26,272.32z M447.19,274.27c-0.05,17.28-3.41,34.39-9.89,50.4l35.06,20.24l-19.44,33.67l-35.39-20.43v-0.01 c-11.52,14.59-25.91,26.65-42.28,35.45l13.99,38.43l-36.53,13.3l-13.78-37.86v-0.01c-18.33,3.84-37.26,3.84-55.59,0l-13.78,37.86 l-36.53-13.3L247,393.6c-16.37-8.79-30.76-20.86-42.28-35.45l-35.39,20.43l-19.44-33.67l35.06-20.24v0.01 c-6.48-16.02-9.84-33.12-9.89-50.4c0-1.43,0.38-2.76,0.42-4.18l-40.02-7.06l6.75-38.29l40.27,7.1 c5.79-17.67,15.16-33.96,27.53-47.85l-26.22-31.26l29.78-24.99l26.14,31.16v0.01c15.84-9.78,33.55-16.16,51.98-18.75V99.32h38.88 v40.84c18.44,2.58,36.14,8.98,51.98,18.75l26.14-31.16l29.78,24.99L412.25,184l-0.01-0.01c12.37,13.88,21.75,30.17,27.53,47.85 l40.27-7.1l6.75,38.29l-40.02,7.06C446.81,271.51,447.19,272.84,447.19,274.27L447.19,274.27z"/>
</svg>