<svg xmlns="http://www.w3.org/2000/svg" viewBox="0 0 16 16">
<path d="M7 15q-1.016 0-1.961-0.469t-1.492-1.164-0.547-1.367q0-0.469-0.25-0.664t-0.5 0-0.25 0.664v3q0 0.328-0.336 0.664t-0.664 0.336-0.664-0.336-0.336-0.664v-3q0-0.594 0.039-1t0.156-0.813 0.336-0.648 0.586-0.391 0.883-0.148q0.531 0 0.969 0.156t0.68 0.344 0.602 0.344 0.75 0.156q0.422 0 0.656-0.008t0.664-0.047 0.703-0.133 0.602-0.25 0.539-0.43 0.336-0.633q0.234-0.703 0.352-1.555t0.133-1.398 0.016-1.547q-0.75 0-1.375-0.625t-0.625-1.375v-1q0-0.328 0.336-0.664t0.664-0.336 0.664 0.336 0.336 0.664v0.5q0 0.5 2 0.5 0.266 0 0.523-0.156t0.461-0.344 0.609-0.344 0.906-0.156q1.172 0 1.836 1.477t0.664 3.93q0 2.047-0.703 3.695t-1.93 2.711-2.852 1.625-3.516 0.563z"/>
</svg>