<svg xmlns="http://www.w3.org/2000/svg" viewBox="0 0 16 16">
<path d="M15.87,2.65c0.04-0.06,0.06-0.11,0.08-0.15c0.02-0.04,0.03-0.09,0.04-0.15C15.99,2.29,16,2.25,16,2.22V0.5 c0-0.14-0.05-0.25-0.15-0.35S15.64,0,15.5,0h-1.73c0,0-0.04,0.01-0.13,0.02c-0.08,0.01-0.13,0.02-0.15,0.04 c-0.02,0.02-0.06,0.04-0.15,0.08c-0.08,0.04-0.14,0.08-0.16,0.12L8,5.44L2.81,0.25C2.79,0.21,2.73,0.17,2.65,0.13 C2.56,0.1,2.52,0.07,2.5,0.05C2.48,0.04,2.44,0.03,2.35,0.02C2.27,0.01,2.23,0,2.23,0H0.5C0.36,0,0.25,0.05,0.15,0.15S0,0.36,0,0.5 v1.72c0,0.03,0.01,0.08,0.02,0.13C0.03,2.41,0.04,2.46,0.05,2.5C0.07,2.54,0.1,2.59,0.13,2.65c0.04,0.06,0.08,0.11,0.12,0.16L5.44,8 L3.95,9.48L2.63,8.16C2.53,8.05,2.41,8,2.27,8C2.12,8,2,8.05,1.89,8.16L1.14,8.91c-0.1,0.1-0.16,0.23-0.16,0.38 c0,0.15,0.05,0.27,0.16,0.38l1.83,1.81l-2.81,2.8C0.05,14.38,0,14.51,0,14.66s0.05,0.28,0.16,0.38v0l0.8,0.8 C1.06,15.95,1.18,16,1.34,16c0.15,0,0.28-0.05,0.4-0.16l2.8-2.81l1.83,1.83c0.09,0.1,0.21,0.16,0.36,0.16 c0.15,0,0.27-0.05,0.38-0.16l0.75-0.75C7.95,14,8,13.88,8,13.73c0-0.15-0.05-0.27-0.16-0.36l-1.33-1.33L8,10.56l1.48,1.48 l-1.33,1.33C8.05,13.47,8,13.59,8,13.73c0,0.15,0.05,0.27,0.16,0.38l0.75,0.75c0.1,0.1,0.23,0.16,0.38,0.16 c0.15,0,0.27-0.05,0.36-0.16l1.83-1.83l2.8,2.81c0.11,0.1,0.25,0.16,0.4,0.16c0.15,0,0.28-0.05,0.38-0.16l0.8-0.8v0 c0.1-0.1,0.16-0.23,0.16-0.38s-0.05-0.28-0.16-0.4l-2.81-2.8l1.83-1.81c0.1-0.1,0.16-0.23,0.16-0.38c0-0.15-0.05-0.27-0.16-0.38 l-0.75-0.75C14,8.05,13.88,8,13.73,8c-0.15,0-0.27,0.05-0.36,0.16l-1.33,1.33L10.56,8l5.19-5.19C15.79,2.76,15.83,2.71,15.87,2.65z"/>
</svg>