<svg xmlns="http://www.w3.org/2000/svg" viewBox="0 0 1000 1000">
<path d="M591.31,1000l214.9-293.37H698.76l144.69-293.37c0,0,49.59-70.2-24.8-103.27C744.27,276.84,99.57,0,99.57,0 S76.61,0,70.9,62.76c0,20.51-33.27,214.08,421.22,300.92c-231.43-12.35-359.49-49.59-359.49-49.59S103.76,404.9,264.88,500 c86.73,0,235.31,5.2,232.24,11.84c-5.2,10.92-211.53,25.41-211.53,25.41s-90.92,20.61,119.8,152.86 c37.14,28.88,161.12-49.59,161.12-49.59s-37.14,111.53-28.88,140.51c8.27,28.88,95,16.53,95,16.53L591.31,1000z"/>
</svg>