<svg xmlns="http://www.w3.org/2000/svg" viewBox="0 0 16 16">
<path d="M15.703 15.703q-0.297 0.297-0.711 0.297t-0.711-0.297l-3.094-3.094q-1.875 1.391-4.188 1.391-1.422 0-2.719-0.555t-2.234-1.492-1.492-2.234-0.555-2.719 0.555-2.719 1.492-2.234 2.234-1.492 2.719-0.555 2.719 0.555 2.234 1.492 1.492 2.234 0.555 2.719q0 2.313-1.391 4.188l3.094 3.094q0.297 0.297 0.297 0.711t-0.297 0.711zM7 2q-1.359 0-2.508 0.672t-1.82 1.82-0.672 2.508 0.672 2.516 1.82 1.82 2.508 0.664 2.508-0.664 1.82-1.82 0.672-2.516-0.672-2.508-1.82-1.82-2.508-0.672zM9 8h-1v1q0 0.422-0.297 0.711t-0.711 0.289-0.703-0.289-0.289-0.711v-1h-1q-0.422 0-0.711-0.289t-0.289-0.703 0.289-0.711 0.711-0.297h1v-1q0-0.406 0.289-0.703t0.703-0.297 0.711 0.297 0.297 0.703v1h1q0.406 0 0.703 0.297t0.297 0.711-0.297 0.703-0.703 0.289z"/>
</svg>