<svg xmlns="http://www.w3.org/2000/svg" viewBox="0 0 512 512">
<g fill="#00b0f0">
	<path d="M192,172v104c0,2.21,1.79,4,4,4h56c2.21,0,4-1.79,4-4v-32c0-2.21-1.79-4-4-4h-16c-2.21,0-4-1.79-4-4v-24 c0-2.21,1.79-4,4-4h80c2.21,0,4-1.79,4-4v-32c0-2.21-1.79-4-4-4H196C193.79,168,192,169.79,192,172z"/>
	<path d="M280,244v56c0,2.21-1.79,4-4,4h-80c-2.21,0-4,1.79-4,4v32c0,2.21,1.79,4,4,4h120c2.21,0,4-1.79,4-4v-96 c0-2.21-1.79-4-4-4h-32C281.79,240,280,241.79,280,244z"/>
</g>
<g fill="#444444">
	<path d="M280,33.66v56.69c0,1.06,0.42,2.08,1.17,2.83l132,132c2.52,2.52,0.74,6.83-2.83,6.83H348c-2.21,0-4,1.79-4,4 v40c0,2.21,1.79,4,4,4h62.34c3.56,0,5.35,4.31,2.83,6.83l-132,132c-0.75,0.75-1.17,1.77-1.17,2.83v56.69 c0,3.56,4.31,5.35,6.83,2.83l222.34-222.34c1.56-1.56,1.56-4.09,0-5.66L286.83,30.83C284.31,28.31,280,30.09,280,33.66z"/>
	<path d="M225.17,30.83L2.83,253.17c-1.56,1.56-1.56,4.09,0,5.66l222.34,222.34c2.52,2.52,6.83,0.74,6.83-2.83v-56.69 c0-1.06-0.42-2.08-1.17-2.83l-132-132c-2.52-2.52-0.74-6.83,2.83-6.83H164c2.21,0,4-1.79,4-4v-40c0-2.21-1.79-4-4-4h-62.36 c-3.56,0-5.35-4.31-2.83-6.83l132.02-132.1c0.75-0.75,1.17-1.77,1.17-2.83V33.66C232,30.09,227.69,28.31,225.17,30.83z"/>
</g>
</svg>