<svg xmlns="http://www.w3.org/2000/svg" viewBox="0 0 512 512">
<path d="M382.7,0.01c-9.37,0.18-19.26,3.94-28.85,11.11c-13.64,10.2-26.02,27.24-32.97,48.48 c-6.94,21.23-7,42.29-2.03,58.54c4.98,16.25,14.46,27.27,26.99,31.35c12.53,4.08,26.73,0.78,40.37-9.43 c13.64-10.2,26.02-27.28,32.97-48.51c6.94-21.23,7.04-42.29,2.06-58.54c-4.98-16.26-14.49-27.24-27.02-31.32 c-3.13-1.02-6.36-1.58-9.66-1.69C383.93-0.01,383.32,0,382.7,0.01L382.7,0.01z M214.4,75.45c-23.45,0.03-46.91,2.38-70.37,7.67 c-26.93,32.24-47.4,65.14-57.16,106.45l40.4,19.25c8.94-33.22,23.23-58.18,46.89-83.24c24.55-8.48,49.1-6.74,73.64,1.62 c-80.25,70.41-55.31,130.45-86.85,244.81c-46.11,19.31-91.99,22.19-133.23,0L4.38,422.35c64.23,29.28,135.92,32.23,206.3,0 c22.02-46.96,29.42-95.78,27.02-143.67C298.75,356.45,328.8,403.51,345.74,512h62.63c-3.37-15.9-6.71-30.69-10.1-44.56 c-24.35-99.6-51.09-150.94-108.34-214.48c10.48-39.06,23.94-64.5,56.69-80.3c12.07,21.37,32.41,39.65,55.23,52.87l105.26,1.69 l0.51-44.35l-93.54-2.3c-8.7-6.01-16.13-12.68-22.43-19.8c-16.09,9.82-34.62,13.58-52.06,7.91c-19.91-6.48-33.67-23.74-40.07-44.63 c-3.76-12.29-5.13-26-3.98-40.27C268.5,78.51,241.44,75.42,214.4,75.45L214.4,75.45z"/>
</svg>