<svg xmlns="http://www.w3.org/2000/svg" viewBox="0 0 512 512">
<path d="M279.49,0.01c-7.11,0.18-14,2.47-19.25,7.8c-0.53,0.53-1,1.08-1.47,1.64l-0.21-0.21 c-19.53,24.81-39.08,56.04-50.03,90.93c-12.25,39.03-14.01,81.8,6.22,125.6l-18.57,8.58c-15.65-33.89-19.49-67.75-15.9-99.55 c-9.27,5.46-17.96,12.23-25.92,20.04c-24.48-31.95-54.69-61.93-83.71-83.17c-1.54-1.53-3.28-2.91-5.27-4.04 c-3.7-2.1-7.64-3.13-11.63-3.32c-0.42-0.02-0.82-0.04-1.23-0.03c-0.42,0-0.85,0.02-1.26,0.03c-5.83,0.22-11.68,2.11-16.89,4.99 c-9.54,5.27-18.11,13.97-24.62,25.1C3.23,105.55-0.14,117.25,0,128.11c0.14,10.86,4.26,21.95,14.12,27.57 c0.4,0.23,0.82,0.41,1.23,0.61l-0.14,0.27c29.87,18.42,69.34,43.09,94.8,74c-7.2,25.16-8.58,51.14-2.87,73.76 c16.75,66.43,68.31,126.72,123.69,164.86c27.69,19.07,56.25,32.59,81.22,38.85c24.97,6.25,45.82,4.97,58.99-2.91 c29.71-17.78,49.6-49.94,61.62-88.12c-7.47,4.39-15.4,8.01-23.66,10.81c-39.15,13.24-85.47,9.56-124.34-11.01 c-38.87-20.57-70.15-58.79-77.18-112.95l20.28-2.63c6.21,47.81,32.73,79.63,66.48,97.49c33.75,17.86,74.86,20.99,108.2,9.71 c33.34-11.28,58.73-35.72,64.6-75.4c4.85-32.81-4.23-77.18-37.04-132.82c-20.95,2.39-42.32,6.97-61.97,12.65l-5.68-19.63 c13.93-4.03,28.66-7.52,43.64-10.16c2.88,0.24,5.83,0.03,8.79-0.79c1.12-0.31,2.18-0.69,3.21-1.13c0.04-0.01,0.07-0.03,0.1-0.03 c-0.01-0.01,0-0.03,0-0.04c9-3.88,14.7-12.55,17.41-21.92c3.02-10.47,2.95-22.68-0.31-35.15c-3.26-12.48-9.15-23.13-16.93-30.71 c-5.83-5.68-13.37-9.85-21.37-10.33c-2.45-0.14-4.92,0.07-7.42,0.69l-0.1-0.44c-17.55,6.39-36.91,15.05-55.81,26.4 c-9.79,12.45-17.47,24.6-22.43,36.52c-7.71,18.52-9.31,36.24-2.67,56.29l-19.39,6.46c-8.16-24.62-6.02-48.51,3.18-70.62 c8.13-19.51,21.59-37.86,37.92-56.22l-0.17-0.17c0.68-0.55,1.35-1.13,1.98-1.78c7.97-8.07,9.02-19.82,6.4-30.4 c-2.62-10.58-8.79-21.09-17.85-30.27l-0.07-0.04c-9.05-9.15-19.45-15.42-29.96-18.09c-2.63-0.67-5.33-1.09-8.04-1.23 c-0.51-0.03-1.03-0.06-1.54-0.07C280.46,0,279.97-0.01,279.49,0.01L279.49,0.01z M280.21,20.39c0.39,0,0.83,0,1.27,0.03 c1.17,0.09,2.5,0.34,4,0.72c6.03,1.53,13.75,5.83,20.49,12.65c6.73,6.82,11.02,14.65,12.55,20.82c1.53,6.18,0.39,9.61-1.09,11.11 c-1.49,1.51-4.67,2.59-10.7,1.06c-6.03-1.53-13.75-5.87-20.49-12.69c-6.74-6.82-11.02-14.65-12.55-20.82 c-1.53-6.18-0.39-9.57,1.09-11.08C275.75,21.21,277.45,20.4,280.21,20.39L280.21,20.39z M52.43,84.71c1.19,0.03,2.15,0.33,2.84,0.72 c1.84,1.05,3.72,3.83,3.8,10.06c0.08,6.22-2.1,14.78-6.94,23.05c-4.84,8.27-11.29,14.47-16.86,17.54 c-5.57,3.08-9.17,2.86-11.01,1.81c-1.84-1.05-3.71-3.83-3.8-10.06c-0.08-6.22,2.1-14.81,6.94-23.08 c4.84-8.27,11.29-14.43,16.86-17.51c2.79-1.54,5.08-2.26,6.91-2.46C51.62,84.73,52.03,84.7,52.43,84.71L52.43,84.71z M172.73,86.12 c-14.23,0.08-28.94,6-37.21,15.46c7.49,7.82,14.74,15.81,21.65,23.94c8.59-6.33,17.8-11.74,27.57-15.97 c1.25-5.24,2.68-10.41,4.27-15.49c0.47-1.5,0.97-2.99,1.47-4.48C185.04,87.18,178.94,86.08,172.73,86.12L172.73,86.12z  M395.01,103.38c0.3-0.02,0.62-0.02,0.96,0c2,0.15,4.66,1.33,8,4.59c4.46,4.34,9,11.93,11.42,21.2c2.42,9.27,2.21,18.2,0.44,24.32 c-1.76,6.11-4.45,8.53-6.5,9.09c-2.05,0.56-5.32-0.1-9.78-4.44c-4.46-4.34-9-11.93-11.42-21.2c-2.42-9.27-2.21-18.2-0.45-24.32 c1.76-6.11,4.45-8.53,6.5-9.09C394.45,103.45,394.71,103.41,395.01,103.38L395.01,103.38z"/>
</svg>