<svg xmlns="http://www.w3.org/2000/svg" viewBox="0 0 700 700">
<path d="M157.75,174.54c11.48-1.95,21.25-2.57,29.31-1.83c6.35,0.74,10.75,2.32,13.19,4.77 c1.23,0.97,1.83,2.19,1.83,3.67v1.46c0.24,0.49,0.49,1.1,0.73,1.83c0.25,1.22,0.13,2.45-0.36,3.67 c5.13,51.34,23.45,95.46,54.96,132.38c-15.4,7.08-28.71,15.28-39.94,24.56h-0.37c-28.59,23.96-47.27,52.68-56.06,86.17 c-13.92-29.09-16.36-68.93-7.32-119.54c0.25-1.46,0.13-2.94-0.37-4.39c-15.64-35.94-26.63-69.93-32.98-101.94 c-0.73-0.49-1.22-1.1-1.47-1.83c-0.73-0.73-1.22-1.95-1.46-3.67c-1.71-5.38,2.81-10.63,13.56-15.77h-0.73 C137.59,179.67,146.76,176.5,157.75,174.54L157.75,174.54z M331.8,35.2c7.32-2.69,14.9-4.77,22.72-6.23h1.83 c1.71,0,3.3-0.61,4.77-1.83c1.46-1.22,2.32-2.69,2.57-4.4L366.97,0l29.68,1.1l2.56,20.9c0.25,1.71,1.1,3.18,2.57,4.4 c1.46,1.22,3.05,1.83,4.76,1.83c1.47,0,3.06,0.24,4.77,0.73h1.46c0.25,0,0.49,0.12,0.74,0.37h0.36c14.9,2.93,27.36,8.8,37.37,17.6 v0.37c13.92,11.48,20.89,26.4,20.89,44.73c0,0.49-0.12,1.22-0.37,2.19c-17.1,2.21-32.98,5.5-47.63,9.91 c-3.18-2.19-6.23-3.79-9.16-4.77c-5.13-1.95-12.58-2.93-22.35-2.93c-19.54,0-36.52,5.99-50.93,17.96 c-15.63,12.22-23.45,27.75-23.45,46.57c0,3.18,0.12,5.74,0.37,7.7c-21.74,25.66-36.15,57.69-43.23,96.07 c-6.35-12.22-11.24-22.6-14.66-31.17c-10.51-25.17-15.76-48.27-15.76-69.28c0-12.22,1.59-24.21,4.77-35.94 c0.24-1.46,0.12-2.81-0.37-4.03c-0.49-1.47-1.23-2.57-2.2-3.3l-22.71-18.7l16.12-25.3l20.15,9.17c1.22,0.48,2.57,0.6,4.03,0.36 c1.22-0.24,2.44-0.73,3.67-1.46c0.98-0.98,1.71-2.09,2.2-3.3c0.24-0.98,0.61-1.71,1.1-2.21c0.24-0.25,0.49-0.49,0.73-0.73 c4.15-5.87,8.67-11,13.56-15.4c0.98-1.22,1.71-2.45,2.19-3.67c0.25-1.46,0.12-2.81-0.37-4.04l-8.79-25.66l27.48-12.1l11,16.5 c0.73,1.22,1.95,2.07,3.67,2.57c1.71,0.49,3.3,0.49,4.76,0c1.71-0.73,3.42-1.22,5.13-1.46C331.31,35.33,331.55,35.2,331.8,35.2 L331.8,35.2z M332.89,160.97c0-14.42,5.99-26.15,17.96-35.2c11.72-9.78,25.65-14.67,41.77-14.67c7.32,0,13.06,0.73,17.22,2.21h0.37 c2.45,0.97,4.89,2.57,7.33,4.76c0.97,0.74,2.07,1.22,3.3,1.47c1.22,0.24,2.45,0.12,3.67-0.37c16.37-4.89,34.32-8.56,53.86-11h0.37 c14.17-1.71,29.07-2.69,44.7-2.94c19.78,18.83,21.01,40.22,3.67,64.17c-23.94-0.24-44.95,2.09-63.02,6.97 c-56.92,14.42-86.96,51.83-90.13,112.2c-34.2,4.9-64.12,11.74-89.77,20.54c0.49-6.59,1.22-13.07,2.2-19.43 c0.24-0.49,0.37-0.98,0.37-1.47c4.88-46.2,19.78-83.72,44.7-112.57c0.74-0.74,1.23-1.59,1.47-2.57c0.25-1.21,0.37-2.32,0.37-3.29 C333.02,168.31,332.89,165.37,332.89,160.97L332.89,160.97z M535.9,321.95c0.98-0.98,2.07-1.83,3.3-2.57 c14.41,13.45,24.43,25.06,30.04,34.83c7.32,13.2,11.85,32.63,13.56,58.31c1.22,24.94-6.96,49.74-24.55,74.44v-0.37 c-37.37,50.84-57.41,79.21-60.09,85.07l-0.37,0.36c-20.27,45.96-35.78,76.88-46.53,92.77c-16.37,23.47-41.9,35.21-76.58,35.21 c-45.68-0.48-92.09-29.09-139.24-85.81c-43.73-52.32-65.71-97.05-65.95-134.21c0-9.04,0.61-17.61,1.83-25.66 c0.25-0.49,0.37-0.98,0.37-1.47v-0.36c5.62-38.14,23.94-70.16,54.96-96.07c12.46-10.27,27.72-19.07,45.8-26.4 c0-0.24,0.12-0.36,0.37-0.36h0.37c2.19-1.23,4.27-2.21,6.23-2.94c0.24-0.24,0.61-0.48,1.1-0.72 c27.85-10.52,61.56-18.46,101.13-23.84h0.37h2.19c46.66,44.73,96.61,51.59,149.87,20.53C534.55,322.43,535.17,322.19,535.9,321.95 L535.9,321.95z M456.75,193.61c-9.77,62.09,9.16,103.28,56.79,123.57c-43.23,19.07-83.91,9.66-122.01-28.23 c-0.73-0.74-1.59-1.35-2.57-1.83h-0.36C391.52,239.45,414.25,208.27,456.75,193.61L456.75,193.61z M161.06,196.9 c9.53-2.45,17.6-5.13,24.18-8.07c2.19-1.71,4.03-3.06,5.5-4.03c-1.23-0.49-2.81-0.86-4.77-1.1c-7.32-0.73-16.13-0.12-26.38,1.83 c-9.28,1.46-17.1,4.15-23.45,8.07c-0.24,0-0.37,0.12-0.37,0.37c-4.15,1.95-6.46,3.18-6.96,3.67c0.98,0.48,3.06,0.97,6.23,1.46 C142.62,199.1,151.29,198.36,161.06,196.9L161.06,196.9z"/>
</svg>