<svg xmlns="http://www.w3.org/2000/svg" viewBox="0 0 700 700">
<path d="M44.2,689.53c8.34,0,15.48-2.38,22.63-5.96c127.41-78.59,204.8-157.18,245.28-204.8l-1.19,83.35 C309.73,649.04,424.04,680,466.9,606.18l1.19-2.38c78.59,35.72,153.6-55.96,102.4-126.21l-38.11-52.39l70.25,10.71 c85.73,13.1,133.36-95.26,64.29-148.84l-2.38-1.19c46.44-72.63-34.53-159.55-110.73-119.07l-82.16,45.25l32.15-80.96 c32.15-80.96-64.29-151.22-130.98-96.44l-2.38,1.19c-60.72-61.92-164.32-1.19-140.5,82.16l23.81,84.54l-57.15-27.38 c-78.59-36.91-154.79,54.78-103.59,125.02l1.19,2.38c-65.49,57.15-11.91,163.12,72.63,145.26l71.45-15.48 c-36.91,41.68-107.16,109.54-217.9,178.6c-20.24,13.1-26.2,39.29-14.29,59.53C15.62,682.39,29.91,689.53,44.2,689.53L44.2,689.53z"/>
</svg>