<svg xmlns="http://www.w3.org/2000/svg" viewBox="0 0 512 512">
<path d="M395.88,75.47c-81.4,62.24-83.28,107.94-95.76,150.82c-19.15,65.83-32.32,101.74-159.2,96.96 c-91.03-3.44-118.5-33.52-118.5-101.74c0-160.4,135.26-169.97,135.26-169.97l79,5.98c63.44-81.4,166.38-46.68,147.23,14.36 C383.91,71.88,399.92,72.38,395.88,75.47z M332.44,38.36c-28.51-5.94-41.89,25.14-41.89,25.14l59.85,5.98 C350.4,69.48,361.17,44.35,332.44,38.36z M127.48,209.52c-25.74-1.54-47.56,13.28-48.75,33.1c-1.19,19.82,18.72,37.13,44.45,38.67 c25.74,1.54,47.56-13.28,48.75-33.1S153.21,211.06,127.48,209.52z M9.25,286.14c-34.71,129.28,32.32,193.91,132.87,209.47 c63.4,9.81,213.12,15.51,254.42-33.59c22.09-26.26,6.53-99.28,16.11-157.93c2.39-67.03,58.65-178.35,16.76-190.32 c-79.28-22.65-99.35,163.99-129.98,209.9c-5.28,30.7-5.28,125.26-13.66,125.26c-9.65,0-17.95-89.77-25.14-94.56 C216.33,351.98,47.56,392.67,9.25,286.14z M453.06,256.22c33.8,70.62,0.28,125.68-15.28,137.65v59.94c0,0,73.02-31.21,74.21-115 c0.62-43.27-38.3-168.78-38.3-168.78S462.92,233.47,453.06,256.22z"/>
</svg>