<svg xmlns="http://www.w3.org/2000/svg" viewBox="0 0 512 512">
<path d="M226.79,270.63l14.64,14.54L160.59,366l-12.07,72.79c-0.41,2.06-1.34,4.02-2.89,5.57l-64.65,64.65 c-1.96,1.96-4.54,2.99-7.32,2.99c-2.68,0-5.36-1.03-7.22-2.99l-5.57-5.57c-2.16-2.16-3.3-5.26-2.99-8.35l4.74-45.68l-45.78,4.64 c-3.09,0.31-6.08-0.72-8.35-2.89l-5.46-5.57c-1.96-1.96-2.99-4.54-2.99-7.32c0-2.68,1.03-5.36,2.99-7.22l64.65-64.65 c1.44-1.55,3.4-2.58,5.57-2.89l72.79-12.07L226.79,270.63z M511.16,14.5l-76.2,172.91c-1.65,3.81-5.46,6.19-9.49,6.19 c-0.62,0-1.24-0.1-1.86-0.21l-76.2-14.23l-62.28,62.28l-14.64-14.54l62.28-62.28l-14.13-76.2c-0.93-4.74,1.55-9.38,5.98-11.34 l172.92-76.2c3.81-1.75,8.45-0.82,11.44,2.16C511.99,6.05,512.81,10.58,511.16,14.5L511.16,14.5z M511.99,438.28 c0,2.78-1.14,5.36-2.99,7.32l-5.57,5.57c-2.16,2.16-5.26,3.2-8.35,2.89l-45.68-4.64l4.64,45.68c0.31,3.09-0.72,6.19-2.99,8.35 l-5.46,5.57c-1.96,1.96-4.54,2.99-7.32,2.99c-2.68,0-5.36-1.03-7.32-2.99l-64.55-64.65c-1.55-1.55-2.58-3.5-2.89-5.57L351.45,366 L164.52,179.16l-76.09,14.23c-0.62,0.1-1.34,0.21-1.96,0.21c-4.02,0-7.73-2.37-9.38-6.19L0.88,14.49 c-1.75-3.92-0.83-8.45,2.16-11.44c2.99-2.99,7.53-3.92,11.44-2.16l172.92,76.2c4.33,1.96,6.8,6.6,5.98,11.34l-14.33,76.2L366,351.46 l72.79,12.07c2.06,0.31,4.02,1.34,5.57,2.89l64.65,64.65C510.86,432.91,512,435.59,511.99,438.28L511.99,438.28z"/>
</svg>