<svg xmlns="http://www.w3.org/2000/svg" viewBox="0 0 256 256">
<path d="M156.1,224.5H99.2V90.7h56.8V224.5z M127.6,10.9c-18.4,0-28.4,71-28.4,71h56.8C156.1,81.8,146,10.9,127.6,10.9z  M161.3,233.4H93.9c-3.2,0-5.9,2.6-5.9,5.9c0,3.2,2.6,5.9,5.9,5.9h67.4c3.2,0,5.9-2.6,5.9-5.9C167.2,236.1,164.6,233.4,161.3,233.4z  M68,90.7H11.1v133.8H68V90.7z M39.6,10.9c-18.4,0-28.4,71-28.4,71H68C68,81.8,58,10.9,39.6,10.9z M73.3,233.4H5.9 c-3.2,0-5.9,2.6-5.9,5.9c0,3.2,2.6,5.9,5.9,5.9h67.4c3.2,0,5.9-2.6,5.9-5.9C79.1,236.1,76.5,233.4,73.3,233.4z M244.9,90.7H188 v133.8h56.8V90.7z M216.4,10.9c-18.4,0-28.4,71-28.4,71h56.8C244.9,81.8,234.8,10.9,216.4,10.9z M250.1,233.4h-67.4 c-3.2,0-5.9,2.6-5.9,5.9c0,3.2,2.6,5.9,5.9,5.9h67.4c3.2,0,5.9-2.6,5.9-5.9C256,236.1,253.4,233.4,250.1,233.4z"/>
</svg>