<svg xmlns="http://www.w3.org/2000/svg" viewBox="0 0 512 512">
<path d="M145.58,0L70.31,15.07C70.19,80.19,68.37,147.74,21.95,201c65.48,44.37,159.55,60.15,224.04,46.92V137.84L91.77,69.37 l8.23-18.28l156,69.41l156-69.41l8.23,18.28L266,137.84v110.08c64.49,13.23,158.56-2.56,224.05-46.92 c-46.48-53.26-48.26-120.81-48.37-185.93L366.41,0c-14.34,15.43-22.91,31.3-36.58,45.07c-15.01,14.92-36.58,25.17-73.83,25.17 s-58.82-10.25-73.83-25.17C168.49,31.3,159.93,15.43,145.58,0L145.58,0z M31.26,230.24c24.55,53.48,46.91,115.3,54.28,177.79 l72.27,25.35c4.67-58.6,31.36-115.64,70.83-162.45C167.38,277.94,92.21,264.49,31.26,230.24L31.26,230.24z M480.71,230.24 c-60.93,34.25-136.1,47.7-197.36,40.7c39.47,46.81,66.16,103.85,70.83,162.45l72.5-25.46C434.01,344.77,456.25,283.61,480.71,230.24 L480.71,230.24z M255.99,270.38c-45.03,47.92-75.28,108.86-78.61,169.79l68.6,24.02V344.88H266v119.31l68.6-24.02 C331.16,379.24,301.03,318.31,255.99,270.38z M424.67,429.83l-123.09,43.03v20.9l122.53-49.04 C424.23,439.73,424.45,434.83,424.67,429.83z M87.43,429.94c0.33,5,0.44,9.9,0.56,14.9l122.42,48.92v-20.79L87.43,429.94 L87.43,429.94z M281.57,479.87l-25.57,9.01l-25.57-8.9v21.79L255.99,512l25.57-10.23V479.87z"/>
</svg>