<svg xmlns="http://www.w3.org/2000/svg" viewBox="0 0 256 256">
<path d="M95,31.8L88.7,8.3c0-4.6,4.7-8.3,10.5-8.3h57.6c5.8,0,10.5,3.7,10.5,8.3L161,31.8H95z M216,168 c0,48.6-39.4,88-88,88s-88-39.4-88-88c0-34.4,19.8-64.2,48.6-78.7v-29h-0.1c-5.6,0-10.1-4.5-10.1-10.1c0-5.6,4.5-10.1,10.1-10.1 h78.9c5.6,0,10.1,4.5,10.1,10.1c0,5.6-4.5,10.1-10.1,10.1h-0.1v29C196.2,103.8,216,133.6,216,168z M199.1,168 c0,0-2.2-23.3-18.4-25.9c-16.2-2.6-39.8,31.4-71.2,24.1c-31.4-7.3-41.4-10.6-47.3-7.3c-5.9,3.3-5.2,9.2-5.2,9.2 c0,39.3,31.8,71.1,71.1,71.1S199.1,207.3,199.1,168z"/>
</svg>