<svg xmlns="http://www.w3.org/2000/svg" viewBox="0 0 256 256">
<path d="M256,128c0,6.4-1,12.6-2.8,18.4c-1.8,5.8-4.5,11.3-7.8,16.2c-6.7,9.9-16.1,17.7-27.2,22.4 c-7.4,3.1-15.6,4.9-24.1,4.9c-6.9,0-13.5-1.3-19.6-3.4c-0.4-0.1-0.8-0.3-1.2-0.4c-6.4-2.5-12.3-5.9-17.6-9.9c-2.7-2-5.3-4.2-7.7-6.4 c-0.8-0.8-1.6-1.5-2.5-2.3c-4.3-4.1-8.4-8.6-12.3-13.1c-5.2-6.1-10.1-12.4-15-18.6c-4.8-6.1-9.4-12.1-14.1-17.5 c-4.6-5.5-9.3-10.4-13.9-14.4c-3.1-2.7-6.1-5-9.2-6.9c-4-2.5-8-4.2-12-5.1c-2.3-0.5-4.7-0.8-7.1-0.8c-3.9,0-7.6,0.6-11.1,1.7 c-3.5,1.1-6.7,2.7-9.7,4.7c-5.9,4-10.7,9.7-13.5,16.4c-1.9,4.4-2.9,9.3-2.9,14.5c0,3.9,0.6,7.6,1.7,11.1c1.1,3.5,2.7,6.7,4.7,9.7 c4,5.9,9.7,10.7,16.4,13.5c4.4,1.9,9.3,2.9,14.5,2.9c2.3,0,4.4-0.2,6.5-0.7c2.1-0.4,4.2-1.1,6.3-1.9c4.1-1.7,8.3-4.3,12.6-7.7 c2.8-2.3,5.7-4.9,8.5-7.8c3.8-3.9,7.6-8.2,11.4-12.8c0.4-0.4,0.7-0.9,1.1-1.3c1.7,2.2,3.4,4.3,5.1,6.5l0.2,0.3 c3.4,4.3,6.8,8.7,10.4,13.1c-4.2,5-8.6,9.9-13.3,14.4c-4.7,4.5-9.7,8.7-15.2,12.3c-6.3,4-13.2,7.3-20.8,9c-4.1,0.9-8.3,1.4-12.7,1.4 c-6.4,0-12.6-1-18.4-2.8c-5.8-1.8-11.3-4.5-16.2-7.8c-9.9-6.7-17.7-16.1-22.4-27.2C1.7,144.7,0,136.5,0,128c0-6.4,1-12.6,2.8-18.4 c1.8-5.8,4.5-11.3,7.8-16.2c6.7-9.9,16.1-17.7,27.2-22.4c7.4-3.1,15.6-4.9,24.1-4.9c1.4,0,2.7,0,4.1,0.1c5.9,0.4,11.5,1.7,16.7,3.7 c5.6,2.2,10.8,5.1,15.6,8.5c0.7,0.5,1.4,1,2,1.5c3.6,2.7,7,5.6,10.2,8.7c4.3,4.1,8.4,8.6,12.3,13.1c5.2,6.1,10.1,12.4,15,18.6 c1.8,2.3,3.6,4.6,5.3,6.8c2.9,3.7,5.9,7.3,8.8,10.7c3.5,4.1,7,7.9,10.4,11.2c1.2,1.1,2.3,2.2,3.5,3.2c3.1,2.7,6.1,5,9.2,6.9 c1,0.6,2,1.2,3,1.7c3,1.6,6,2.7,9,3.4c2.3,0.5,4.7,0.8,7.2,0.8c3.9,0,7.6-0.6,11.1-1.7c3.5-1.1,6.7-2.7,9.7-4.7 c5.9-4,10.7-9.7,13.5-16.4c1.9-4.4,2.9-9.3,2.9-14.5c0-3.9-0.6-7.6-1.7-11.1c-1.1-3.5-2.7-6.7-4.7-9.7c-4-5.9-9.7-10.7-16.4-13.5 c-4.4-1.9-9.3-2.9-14.5-2.9c-2.3,0-4.4,0.2-6.5,0.7c-2.1,0.4-4.2,1.1-6.3,1.9c-4.1,1.7-8.3,4.3-12.6,7.7c-2.8,2.3-5.7,4.9-8.5,7.8 c-3.8,3.9-7.6,8.2-11.4,12.8c-0.4,0.4-0.7,0.9-1.1,1.3c-1.7-2.2-3.4-4.3-5.1-6.5l-0.3-0.3c-3.4-4.3-6.8-8.7-10.4-13 c4.2-5,8.6-9.9,13.3-14.4c4.7-4.5,9.7-8.7,15.2-12.2c6.3-4.1,13.2-7.3,20.8-9c4.1-0.9,8.3-1.4,12.7-1.4c6.4,0,12.6,1,18.4,2.8 c5.8,1.8,11.3,4.5,16.2,7.8c9.9,6.7,17.7,16.1,22.4,27.2C254.3,111.3,256,119.5,256,128z"/>
</svg>