<svg xmlns="http://www.w3.org/2000/svg" viewBox="0 0 16 16">
<path d="M15 14q-0.188 0-0.781-0.531-0.516-0.172-0.719 0.031t-0.031 0.719q0.531 0.594 0.531 0.781 0 0.406-0.297 0.703t-0.711 0.297-0.703-0.297-0.289-0.703q0-0.188-0.063-0.43t-0.297-0.742-0.391-0.82-0.609-1.242l-1.125-1.063q0.016-0.031 0.109-0.188t0.18-0.281 0.195-0.234 0.227-0.195 0.266-0.172 0.195-0.117l1.078 1.125q0.922 0.453 1.242 0.609t0.82 0.391 0.742 0.297 0.43 0.063q0.406 0 0.703 0.297t0.297 0.711-0.297 0.703-0.703 0.289zM9.5 9.5q-0.188 0.188-0.336 0.469t-0.281 0.406-0.383 0.125q-0.688 0-1.305-0.156t-1.016-0.367-1.016-0.5-1.164-0.477q-2.281-0.766-3.141-1.711t-0.859-2.789q0-1.859 1.32-3.18t3.18-1.32q1.844 0 2.789 0.859t1.711 3.141q0.219 0.641 0.633 1.445t0.641 1.484 0.227 1.57q0 0.234-0.133 0.367t-0.414 0.297-0.453 0.336z"/>
</svg>