<svg xmlns="http://www.w3.org/2000/svg" viewBox="0 0 16 16">
<path d="M8,0C3.58,0,0,3.58,0,8s3.58,8,8,8s8-3.58,8-8S12.42,0,8,0z M6.3,6.71C6.49,6.9,6.73,7,7,7h2c0.55,0,1.02,0.2,1.41,0.59 S11,8.45,11,9v1c0,0.55-0.2,1.02-0.59,1.41S9.55,12,9,12H7c-0.55,0-1.02-0.2-1.41-0.59S5,10.55,5,10c0-0.14,0.05-0.25,0.15-0.35 C5.25,9.55,5.36,9.5,5.5,9.5s0.25,0.05,0.35,0.15C5.95,9.75,6,9.86,6,10c0,0.28,0.1,0.52,0.29,0.71S6.72,11,7,11h2 c0.27,0,0.51-0.1,0.7-0.29S10,10.28,10,10V9c0-0.27-0.1-0.51-0.3-0.7S9.27,8,9,8H7C6.45,8,5.98,7.8,5.59,7.41S5,6.55,5,6 s0.2-1.02,0.59-1.41S6.45,4,7,4h2c0.55,0,1.02,0.2,1.41,0.59S11,5.45,11,6c0,0.14-0.05,0.25-0.15,0.35c-0.1,0.1-0.22,0.15-0.35,0.15 s-0.25-0.05-0.35-0.15C10.05,6.25,10,6.14,10,6c0-0.27-0.1-0.51-0.29-0.7S9.28,5,9,5H7C6.73,5,6.49,5.1,6.3,5.3S6,5.73,6,6.01 S6.1,6.52,6.3,6.71z"/>
</svg>