<svg xmlns="http://www.w3.org/2000/svg" viewBox="0 0 16 16">
<path d="M8,0C3.58,0,0,3.58,0,8s3.58,8,8,8s8-3.58,8-8S12.42,0,8,0z M8.5,11c0.14,0,0.25,0.05,0.35,0.15 C8.95,11.25,9,11.36,9,11.5s-0.05,0.25-0.15,0.35C8.75,11.95,8.64,12,8.5,12h-2c-0.14,0-0.25-0.05-0.35-0.15 C6.05,11.75,6,11.64,6,11.5s0.05-0.25,0.15-0.35C6.25,11.05,6.36,11,6.5,11H7V5H6.5C6.36,5,6.25,4.95,6.15,4.85 C6.05,4.75,6,4.64,6,4.5s0.05-0.25,0.15-0.35C6.25,4.05,6.36,4,6.5,4h2c0.14,0,0.25,0.05,0.35,0.15C8.95,4.25,9,4.36,9,4.5 S8.95,4.75,8.85,4.85C8.75,4.95,8.64,5,8.5,5H8v6H8.5z"/>
</svg>