<!-- Generated by IcoMoon.io -->
<svg version="1.1" xmlns="http://www.w3.org/2000/svg" width="16" height="16" viewBox="0 0 16 16">
<title>cloudsync</title>
<path d="M13.672 11.625l0.328 1.25q0 0.313-0.172 0.719t-0.375 0.406h-1q-0.516 0.906-1.438 1.453t-2.016 0.547q-1.25 0-2.258-0.695t-1.461-1.82q-0.188-0.031-0.297-0.156l-0.813-0.813q-0.219-0.203-0.156-0.516h-0.516q-1.453 0-2.477-1.023t-1.023-2.477q0-0.891 0.422-1.656t1.141-1.25q0.531 1.078 1.508 1.82t2.18 0.977q-1.031-0.594-1.641-1.625t-0.609-2.266q0-1.859 1.32-3.18t3.18-1.32q1.375 0 2.492 0.75t1.633 1.969q-1.063 0.344-1.844 1.156t-1.094 1.891q0.547-0.813 1.422-1.289t1.891-0.477q1.656 0 2.828 1.172t1.172 2.828q0 1.188-0.641 2.164t-1.688 1.461zM9 9q-0.969 0-1.734 0.563t-1.078 1.453h-1.016q-0.172 0.188-0.172 0.453t0.172 0.453l0.828 1.078q0.094 0.094 0.219 0.141h0.016q0.188 0.078 0.406 0.039t0.359-0.18l0.828-1.078q0.172-0.188 0.172-0.453t-0.172-0.453h-0.563q0.266-0.469 0.727-0.742t1.008-0.273q0.156 0 0.344 0.031l0.641-0.844q-0.516-0.188-0.984-0.188zM12.828 12.094l-0.828-1.094q-0.094-0.094-0.234-0.141v0q-0.188-0.078-0.414-0.039t-0.352 0.18l-0.828 1.094q-0.172 0.188-0.172 0.453t0.172 0.453h0.547q-0.266 0.453-0.719 0.727t-1 0.273q-0.156 0-0.344-0.031l-0.641 0.859q0.5 0.172 0.984 0.172 0.969 0 1.734-0.555t1.078-1.445h1.016q0.172-0.188 0.172-0.453t-0.172-0.453z"></path>
</svg>
