<svg xmlns="http://www.w3.org/2000/svg" viewBox="0 0 16 16">
<path d="M13,6V5c0-1.1-2.24-2-5-2S3,3.9,3,5v1c0,0.36,0.26,0.7,0.69,1C3.26,7.29,3,7.63,3,8v1c0,0.37,0.26,0.7,0.69,1 C3.26,10.29,3,10.63,3,11v1c0,1.1,2.24,2,5,2s5-0.9,5-2v-1c0-0.37-0.26-0.71-0.69-1C12.74,9.7,13,9.37,13,9V8 c0-0.37-0.25-0.71-0.68-1.01C12.74,6.7,13,6.36,13,6z M12.5,11c0,0.3-0.45,0.67-1.15,0.95c-0.29,0.11-0.61,0.21-0.95,0.29 C9.68,12.41,8.86,12.5,8,12.5s-1.68-0.09-2.4-0.26c-0.35-0.08-0.67-0.18-0.95-0.29C3.95,11.67,3.5,11.3,3.5,11 c0-0.22,0.25-0.49,0.68-0.73C5.09,10.71,6.46,11,8,11s2.91-0.29,3.82-0.73C12.25,10.51,12.5,10.78,12.5,11z M12.5,8 c0,0.3-0.45,0.67-1.15,0.95c-0.29,0.11-0.61,0.21-0.95,0.29C9.68,9.41,8.86,9.5,8,9.5S6.32,9.41,5.6,9.24 C5.26,9.16,4.94,9.07,4.65,8.95C3.95,8.67,3.5,8.3,3.5,8c0-0.22,0.25-0.49,0.68-0.73C5.09,7.71,6.46,8,8,8s2.91-0.29,3.82-0.73 C12.25,7.51,12.5,7.78,12.5,8z M11.35,5.95c-0.29,0.11-0.61,0.21-0.95,0.29C9.68,6.41,8.86,6.5,8,6.5S6.32,6.41,5.6,6.24 C5.26,6.16,4.94,6.07,4.65,5.95C3.95,5.67,3.5,5.3,3.5,5s0.45-0.67,1.15-0.95C5.54,3.7,6.73,3.5,8,3.5s2.46,0.2,3.35,0.55 C12.05,4.33,12.5,4.7,12.5,5S12.05,5.67,11.35,5.95z"/>
</svg>