<svg xmlns="http://www.w3.org/2000/svg" viewBox="0 0 1000 1000">
<path fill="transparent" d="M942.4,300.45c-25.67-68.16-64.87-128.95-113.38-175.8C769.6,67.3,703.78,34.6,627.81,24.68 C612.22,22.58,582.92,21.82,498,22c-52.96,0-113.57,0.88-122.44,2c-59.84,6.95-118.6,31.36-169.93,70.73 c-51.18,39.25-94.85,93.22-126.27,156.06C41.79,325.83,21.93,411.84,22,500c0.07,88.14,20.06,174.7,57.73,249.86 c32.11,63.86,76.34,118.15,127.91,156.99c51.87,39.07,111.83,63.04,173.36,69.31c10.4,1.12,36.7,1.84,85.55,1.84 c14.12,0,29.77,0.09,47.8,0l113.01-1.24l0.98-0.01l23.15-4.98c68.12-14.97,126.39-46.68,178.13-96.94 c38.8-37.86,66.24-76.19,91.77-128.17c35.93-73,56.23-143.87,56.61-228.66C978.34,442.86,968,368.43,942.4,300.45z"/>
<g fill="#8A4200">
	<path d="M962.8,291.25c-26.85-71.3-67.87-134.89-118.61-183.91c-62.15-60-131.02-94.2-210.49-104.58 C617.39,0.57,586.83-0.19,498,0c-55.4,0-118.9,0.81-128.18,1.98c-62.6,7.27-124.07,32.87-177.77,74.05 c-53.54,41.06-99.22,97.52-132.09,163.26C20.66,317.79-0.07,407.77,0,500c0.07,92.21,20.94,182.76,60.35,261.38 c33.59,66.8,79.86,123.59,133.8,164.23c54.26,40.87,116.99,65.95,181.36,72.51c10.88,1.17,38.39,1.88,89.49,1.88 c14.77,0,31.14,0.09,50,0l118.22-1.25l1.02-0.01l24.21-5.21c71.26-15.67,132.21-48.83,186.35-101.41 c40.59-39.6,69.3-79.71,96-134.08C978.41,681.67,999.6,607.7,1000,519C1000.36,440.4,989.58,362.36,962.8,291.25z M865.58,193.61 l10.34,15.7c5.74,8.81,13.98,22.59,18.38,30.63l8.23,14.93H827.1h-75.44l-5.36-11.1c-2.87-5.94-10.15-19.15-16.27-29.1 c-5.93-9.96-10.91-18.76-11.3-19.72c-0.38-0.77,32.55-1.34,73.14-1.34L865.58,193.61L865.58,193.61z M662.42,71.06h60.69l16.87,9.2 c19.53,10.53,45.76,28.91,60.69,42.31l10.53,9.57l-70.65,0.19H669.9l-20.3-19.72c-11.1-10.72-26.61-24.12-34.08-29.87 c-7.66-5.74-13.98-10.53-13.98-10.91C601.54,71.45,628.92,71.06,662.42,71.06z M461.36,944.29c-29.33,5.83-77.05,5.83-106.37,0 C200.66,913.4,80.21,763.17,55.27,570.47c-29-224.13,85.95-445.97,261.6-505.01c15.64-5.09,48.33-12.15,63.62-13.73 c5.67-0.6,13.45-0.88,21.92-0.88c14.71,0,31.47,0.85,42.71,2.37l0,0C614.47,76.11,745.55,241.66,763.89,455.8 c8.63,102.97-14.67,215.21-62.33,300.23C643.82,859.16,560.75,924.26,461.36,944.29z M894.3,759.76 c-4.41,8.23-12.64,22.02-18.38,30.63l-10.34,15.89h-73.71c-40.59,0-73.52-0.57-73.14-1.53c0.38-0.77,5.36-9.57,11.3-19.53 c6.13-9.96,13.4-23.17,16.27-29.29l5.36-10.91h75.44h75.44L894.3,759.76z M869.42,377.41h-76.2l-2.11-8.23 c-1.15-4.4-4.98-18.19-8.42-30.63l-6.13-22.4h76.01h76.2l5.74,18.57c3.25,10.34,7.08,24.12,8.62,30.63l2.68,12.06H869.42z"/>
	<path d="M627.27,485.91c-20.93,102.3-111.46,179.25-219.93,179.25c-108.46,0-198.96-76.95-219.92-179.25 c-2.95,14.62-4.54,29.77-4.54,45.25c0,123.99,100.5,224.47,224.46,224.47c123.98,0,224.47-100.48,224.47-224.47 C631.81,515.67,630.26,500.53,627.27,485.91 M304.18,302.63c-10.11,6.64-19.63,14.42-28.53,23.3c-70.97,70.99-70.97,186.08,0,257.06 c35.5,35.49,82,53.24,128.54,53.24c46.53,0,93.05-17.74,128.54-53.24c8.88-8.87,16.62-18.45,23.27-28.53 c-30.23,19.97-65.12,29.95-100.02,29.95c-46.51,0-93.05-17.73-128.54-53.23C265.35,469.08,257.6,373.2,304.18,302.63 M455.73,243.89 c-82.48,0.01-150.05,66.12-151.45,148.92c-1.44,83.69,65.19,152.69,148.91,154.09c0.9,0.02,1.79,0.04,2.7,0.04 c9.52,0,18.86-0.89,27.86-2.57c-131.25-156.13,5.13-296.84,5.13-296.84c-9.82-2.2-20.02-3.44-30.48-3.62 C457.51,243.9,456.62,243.89,455.73,243.89"/>
</g>
</svg>