<svg xmlns="http://www.w3.org/2000/svg" viewBox="0 0 16 16">
<path d="M15 16h-8q-0.422 0-0.711-0.289t-0.289-0.711v-3h3.5q0.484 0 0.867-0.281t0.539-0.719h2.594q0.203 0 0.352-0.148t0.148-0.352-0.148-0.352-0.352-0.148h-2.5v-2h2.5q0.203 0 0.352-0.148t0.148-0.352-0.148-0.352-0.352-0.148h-2.5v-2h4q0.406 0 0.703 0.297t0.297 0.703v9q0 0.406-0.289 0.703t-0.711 0.297zM13.5 13h-5q-0.203 0-0.352 0.148t-0.148 0.352 0.148 0.352 0.352 0.148h5q0.203 0 0.352-0.148t0.148-0.352-0.148-0.352-0.352-0.148zM9 11h-8q-0.422 0-0.711-0.289t-0.289-0.711v-9q0-0.406 0.289-0.703t0.711-0.297h8q0.422 0 0.711 0.297t0.289 0.703v9q0 0.422-0.297 0.711t-0.703 0.289zM7.5 2h-5q-0.203 0-0.352 0.148t-0.148 0.352 0.148 0.352 0.352 0.148h5q0.203 0 0.352-0.148t0.148-0.352-0.148-0.352-0.352-0.148zM7.5 5h-5q-0.203 0-0.352 0.148t-0.148 0.352 0.148 0.352 0.352 0.148h5q0.203 0 0.352-0.148t0.148-0.352-0.148-0.352-0.352-0.148zM7.5 8h-5q-0.203 0-0.352 0.148t-0.148 0.352 0.148 0.352 0.352 0.148h5q0.203 0 0.352-0.148t0.148-0.352-0.148-0.352-0.352-0.148z"/>
</svg>