<svg xmlns="http://www.w3.org/2000/svg" viewBox="0 0 700 700">
<path d="M316.71,364.88h70.85c7.03,0,12.88-5.42,13.42-12.43l17.72-230.27c0.31-4.07-1.24-8.07-4.22-10.86 c-2.98-2.79-7.03-4.08-11.11-3.5l-123.99,17.72c-3.59,0.51-6.82,2.44-8.96,5.37c-2.13,2.93-3.01,6.59-2.41,10.17l35.43,212.55 C304.5,360.11,310.12,364.87,316.71,364.88L316.71,364.88z M363.18,10.69C361.87,4.46,356.37,0,350,0 c-6.36,0-11.87,4.46-13.17,10.69L319.59,92.6l59.06-8.44L363.18,10.69z M689.31,336.82L502.7,297.54 c-2.17-6.36-4.71-12.53-7.6-18.47l104.15-159.69c3.48-5.33,2.75-12.37-1.75-16.88c-4.5-4.5-11.54-5.25-16.88-1.75l-140.31,91.5 l-12.48,162.26c-0.69,9.01-4.49,17.06-10.12,23.44c6.3,7.12,10.24,16.37,10.24,26.61v53.14c0,22.27-18.12,40.38-40.38,40.38H316.7 c-22.27,0-40.38-18.12-40.38-40.38v-53.14c0-10.16,3.9-19.35,10.12-26.46c-4.85-5.51-8.29-12.33-9.57-20.05l-28.91-173.44 l-128.57-83.85c-5.34-3.5-12.38-2.75-16.88,1.75c-4.5,4.5-5.23,11.54-1.75,16.87L204.9,279.07c-2.89,5.94-5.43,12.11-7.6,18.47 L10.69,336.83C4.46,338.14,0,343.64,0,350.01s4.46,11.87,10.69,13.17l186.61,39.29c2.17,6.36,4.71,12.53,7.6,18.46L100.76,580.62 c-3.48,5.33-2.75,12.37,1.75,16.88c4.49,4.5,11.53,5.24,16.88,1.75L279.08,495.1c5.94,2.89,12.11,5.43,18.46,7.6l39.29,186.61 c1.3,6.23,6.8,10.68,13.17,10.68s11.87-4.46,13.17-10.69l39.29-186.61c6.36-2.17,12.53-4.71,18.46-7.6l159.69,104.14 c5.33,3.48,12.38,2.74,16.88-1.75c4.5-4.5,5.23-11.54,1.75-16.88L495.1,420.92c2.89-5.94,5.43-12.11,7.6-18.46l186.61-39.29 c6.23-1.3,10.68-6.8,10.68-13.17C700,343.64,695.54,338.14,689.31,336.82L689.31,336.82z M387.56,391.1H316.7 c-7.43,0-13.46,6.03-13.46,13.46v53.14c0,7.43,6.03,13.46,13.46,13.46h70.85c7.43,0,13.46-6.03,13.46-13.46v-53.14 C401.02,397.13,394.99,391.1,387.56,391.1z"/>
</svg>