<svg xmlns="http://www.w3.org/2000/svg" viewBox="0 0 700 700">
<path d="M689.68,334.88l-82.61-29.5c-20.65-7.38-36.14-22.13-44.26-42.05c-8.11-19.92-7.38-42.05,1.48-61.22l36.88-80.4 c2.95-6.64,1.48-14.02-2.95-19.18c-5.17-5.17-12.54-5.9-19.18-2.95l-79.66,37.62c-19.92,9.59-41.31,9.59-61.22,1.48 c-19.92-8.11-35.4-24.34-42.78-44.26l-29.5-83.35C363.64,4.42,357.75,0,350.37,0c-7.38,0-13.27,4.42-15.49,11.06l-29.5,82.61 c-7.38,20.65-22.13,36.14-42.78,44.26c-19.92,8.11-42.05,8.11-61.22-1.48l-79.66-36.88c-6.64-2.95-14.02-1.48-19.18,2.95 c-5.17,5.17-5.9,12.54-2.95,19.18l37.62,79.66c9.59,19.92,9.59,41.31,1.48,61.22c-8.11,19.92-24.34,35.4-44.26,42.78l-83.35,29.5 C4.42,337.1,0,342.99,0,350.37s4.42,13.27,11.06,15.49l82.61,29.5c20.65,7.38,36.14,22.13,44.26,42.78 c8.11,19.92,8.11,42.05-1.48,61.22l-36.88,79.66c-2.95,6.64-1.48,14.02,2.95,19.18c5.17,5.17,12.54,6.64,19.18,2.95l79.66-37.62 c19.92-9.59,41.31-9.59,61.22-1.48c19.92,8.11,35.4,24.34,42.78,44.26l29.5,82.61c2.21,6.64,8.85,11.06,15.49,11.06 c7.38,0,13.27-4.42,15.49-11.06l29.5-82.61c7.38-20.65,22.13-36.14,42.78-44.26c19.92-8.11,42.05-8.11,61.22,1.48l79.66,37.62 c6.64,2.95,14.02,1.48,19.18-2.95c5.17-5.17,6.64-12.54,2.95-19.18l-37.62-79.66c-9.59-19.92-9.59-41.31-1.48-61.22 c8.11-19.92,24.34-35.4,44.26-42.78l82.61-29.5c6.64-2.21,11.06-8.85,11.06-15.49C700.01,343.73,696.32,337.1,689.68,334.88 L689.68,334.88z M595.26,364.39c-28.77,10.33-52.37,32.46-64.17,61.22c-11.8,28.77-11.06,60.49,2.21,88.51l17.7,37.62l-37.62-17.7 c-28.03-13.27-60.49-14.02-88.51-2.21c-28.77,11.8-50.9,35.4-61.22,64.17l-13.29,38.36l-14.02-39.09 c-10.33-28.77-32.46-52.37-61.22-64.17c-13.27-5.17-27.29-8.11-42.05-8.11c-16.23,0-31.72,3.69-46.47,10.33l-37.62,17.7l17.7-37.62 c13.27-28.03,14.02-59.75,2.21-88.51c-11.8-28.77-35.4-50.9-64.17-61.22l-38.36-13.29l39.09-14.02 c28.77-10.33,52.37-32.46,64.17-61.22c11.8-28.77,11.06-60.49-2.21-88.51L149.73,149l37.62,17.7c28.03,13.27,59.75,14.02,88.51,2.21 c28.77-11.8,50.9-35.4,61.22-64.17l14.02-39.09l14.02,39.09c10.33,28.77,32.46,52.37,61.22,64.17c28.77,11.8,60.49,11.06,88.51-2.21 l37.62-17.7l-17.7,37.62c-13.27,28.03-14.02,59.75-2.21,88.51c11.8,28.77,35.4,50.9,64.17,61.22l39.09,14.02L595.26,364.39z  M502.32,287.67c-9.59-22.13-12.54-47.21-9.59-71.55c0-2.21-0.74-4.42-2.21-5.9c-1.48-1.48-3.69-2.21-5.9-2.21 c-24.34,2.95-48.68-0.74-71.55-9.59c-22.87-9.59-42.05-24.34-57.53-43.52c-1.48-1.48-3.69-2.95-5.17-2.95 c-2.21,0-4.42,0.74-5.17,2.95c-14.75,19.18-34.67,34.67-57.53,43.52c-22.13,9.59-47.21,12.54-71.55,9.59c-2.21,0-4.42,0.74-5.9,2.21 c-1.48,1.48-2.21,3.69-2.21,5.9c2.95,24.34,0,48.68-9.59,71.55c-9.59,22.13-24.34,42.05-43.52,57.53c-1.48,1.48-2.95,3.69-2.95,5.17 c0,2.21,0.74,4.42,2.95,5.17c19.18,14.75,34.67,34.67,43.52,57.53c9.59,22.87,12.54,47.21,9.59,71.55c0,2.21,0.74,4.42,2.21,5.9 c1.48,1.48,3.69,2.21,5.9,2.21c24.34-2.95,48.68,0,71.55,9.59c22.87,9.59,42.05,24.34,57.53,43.52c1.48,1.48,3.69,2.95,5.17,2.95 c2.21,0,4.42-0.74,5.17-2.95c14.75-19.18,34.67-34.67,57.53-43.52c22.13-9.59,47.21-12.54,71.55-9.59c2.21,0,4.42-0.74,5.9-2.21 c1.48-1.48,2.21-3.69,2.21-5.9c-2.95-24.34,0-48.68,9.59-71.55c9.59-22.87,24.34-42.05,43.52-57.53c1.48-1.48,2.95-3.69,2.95-5.17 c0-2.21-0.74-4.42-2.95-5.17C526.66,329.72,511.17,309.8,502.32,287.67z M329.72,256.69c0-11.8,9.59-20.65,20.65-20.65 s20.65,9.59,20.65,20.65v116.54c0,11.06-9.59,20.65-20.65,20.65s-20.65-9.59-20.65-20.65V256.69z M350.37,465.44 c-14.02,0-25.82-11.06-25.82-25.82c0-14.02,11.06-25.82,25.82-25.82c14.02,0,25.82,11.06,25.82,25.82 C376.19,453.63,364.39,465.44,350.37,465.44z"/>
</svg>