<svg xmlns="http://www.w3.org/2000/svg" viewBox="0 0 16 16">
<path d="M15.75 9h-1.5q-0.109 0-0.18-0.070t-0.070-0.18v-1.5q0-0.109 0.070-0.18t0.18-0.070h1.5q0.109 0 0.18 0.070t0.070 0.18v1.5q0 0.109-0.070 0.18t-0.18 0.070zM14.75 6h-1.5q-0.109 0-0.18-0.070t-0.070-0.18v-1.5q0-0.109 0.070-0.18t0.18-0.070h1.5q0.109 0 0.18 0.070t0.070 0.18v1.5q0 0.109-0.070 0.18t-0.18 0.070zM13.75 3h-1.5q-0.109 0-0.18-0.070t-0.070-0.18v-1.5q0-0.109 0.070-0.18t0.18-0.070h1.5q0.109 0 0.18 0.070t0.070 0.18v1.5q0 0.109-0.070 0.18t-0.18 0.070zM12 5.75q0 0.109-0.070 0.18t-0.18 0.070h-1.5q-0.109 0-0.18-0.070t-0.070-0.18v-1.5q0-0.109 0.070-0.18t0.18-0.070h1.5q0.109 0 0.18 0.070t0.070 0.18v1.5zM10.75 3h-1.5q-0.109 0-0.18-0.070t-0.070-0.18v-1.5q0-0.109 0.070-0.18t0.18-0.070h1.5q0.109 0 0.18 0.070t0.070 0.18v1.5q0 0.109-0.070 0.18t-0.18 0.070zM9 5.75q0 0.109-0.070 0.18t-0.18 0.070h-1.5q-0.109 0-0.18-0.070t-0.070-0.18v-1.5q0-0.109 0.070-0.18t0.18-0.070h1.5q0.109 0 0.18 0.070t0.070 0.18v1.5zM7.75 3h-1.5q-0.109 0-0.18-0.070t-0.070-0.18v-1.5q0-0.109 0.070-0.18t0.18-0.070h1.5q0.109 0 0.18 0.070t0.070 0.18v1.5q0 0.109-0.070 0.18t-0.18 0.070zM6 5.75q0 0.109-0.070 0.18t-0.18 0.070h-1.5q-0.109 0-0.18-0.070t-0.070-0.18v-1.5q0-0.109 0.070-0.18t0.18-0.070h1.5q0.109 0 0.18 0.070t0.070 0.18v1.5zM4.75 3h-1.5q-0.109 0-0.18-0.070t-0.070-0.18v-1.5q0-0.109 0.070-0.18t0.18-0.070h1.5q0.109 0 0.18 0.070t0.070 0.18v1.5q0 0.109-0.070 0.18t-0.18 0.070zM3 5.75q0 0.109-0.070 0.18t-0.18 0.070h-2.5q-0.109 0-0.18-0.070t-0.070-0.18v-1.5q0-0.109 0.070-0.18t0.18-0.070h2.5q0.109 0 0.18 0.070t0.070 0.18v1.5zM1.75 3h-1.5q-0.109 0-0.18-0.070t-0.070-0.18v-1.5q0-0.109 0.070-0.18t0.18-0.070h1.5q0.109 0 0.18 0.070t0.070 0.18v1.5q0 0.109-0.070 0.18t-0.18 0.070zM0.25 7h3.5q0.109 0 0.18 0.070t0.070 0.18v1.5q0 0.109-0.070 0.18t-0.18 0.070h-3.5q-0.109 0-0.18-0.070t-0.070-0.18v-1.5q0-0.109 0.070-0.18t0.18-0.070zM0.25 13h1.5q0.109 0 0.18 0.070t0.070 0.18v1.5q0 0.109-0.070 0.18t-0.18 0.070h-1.5q-0.109 0-0.18-0.070t-0.070-0.18v-1.5q0-0.109 0.070-0.18t0.18-0.070zM0 11.75v-1.5q0-0.109 0.070-0.18t0.18-0.070h2.5q0.109 0 0.18 0.070t0.070 0.18v1.5q0 0.109-0.070 0.18t-0.18 0.070h-2.5q-0.109 0-0.18-0.070t-0.070-0.18zM3.25 13h1.5q0.109 0 0.18 0.070t0.070 0.18v1.5q0 0.109-0.070 0.18t-0.18 0.070h-1.5q-0.109 0-0.18-0.070t-0.070-0.18v-1.5q0-0.109 0.070-0.18t0.18-0.070zM4 11.75v-1.5q0-0.109 0.070-0.18t0.18-0.070h1.5q0.109 0 0.18 0.070t0.070 0.18v1.5q0 0.109-0.070 0.18t-0.18 0.070h-1.5q-0.109 0-0.18-0.070t-0.070-0.18zM5.25 9q-0.109 0-0.18-0.070t-0.070-0.18v-1.5q0-0.109 0.070-0.18t0.18-0.070h1.5q0.109 0 0.18 0.070t0.070 0.18v1.5q0 0.109-0.070 0.18t-0.18 0.070h-1.5zM9 10.25v1.5q0 0.109-0.070 0.18t-0.18 0.070h-1.5q-0.109 0-0.18-0.070t-0.070-0.18v-1.5q0-0.109 0.070-0.18t0.18-0.070h1.5q0.109 0 0.18 0.070t0.070 0.18zM8.25 7h1.5q0.109 0 0.18 0.070t0.070 0.18v1.5q0 0.109-0.070 0.18t-0.18 0.070h-1.5q-0.109 0-0.18-0.070t-0.070-0.18v-1.5q0-0.109 0.070-0.18t0.18-0.070zM12 10.25v1.5q0 0.109-0.070 0.18t-0.18 0.070h-1.5q-0.109 0-0.18-0.070t-0.070-0.18v-1.5q0-0.109 0.070-0.18t0.18-0.070h1.5q0.109 0 0.18 0.070t0.070 0.18zM11.25 7h1.5q0.109 0 0.18 0.070t0.070 0.18v1.5q0 0.109-0.070 0.18t-0.18 0.070h-1.5q-0.109 0-0.18-0.070t-0.070-0.18v-1.5q0-0.109 0.070-0.18t0.18-0.070zM6.25 13h6.5q0.109 0 0.18 0.070t0.070 0.18v1.5q0 0.109-0.070 0.18t-0.18 0.070h-6.5q-0.109 0-0.18-0.070t-0.070-0.18v-1.5q0-0.109 0.070-0.18t0.18-0.070zM13 10.25q0-0.109 0.070-0.18t0.18-0.070h1.5q0.109 0 0.18 0.070t0.070 0.18v1.5q0 0.109-0.070 0.18t-0.18 0.070h-1.5q-0.109 0-0.18-0.070t-0.070-0.18v-1.5zM14.25 13h1.5q0.109 0 0.18 0.070t0.070 0.18v1.5q0 0.109-0.070 0.18t-0.18 0.070h-1.5q-0.109 0-0.18-0.070t-0.070-0.18v-1.5q0-0.109 0.070-0.18t0.18-0.070z"/>
</svg>