<svg xmlns="http://www.w3.org/2000/svg" viewBox="0 0 700 700">
<path d="M294.95,72.62c-13.27-6.71-58.33-28.87-78.75-28.87c-13.71,0-18.23,8.46-19.69,12.1c-4.67,12.54,1.6,26.54,49.58,68.98 l315.15,253.61c26.1,21,42.44,49.29,46.08,79.48c2.48,19.83-0.87,35-9.62,44.92c-14.73,16.48-46.81,21.29-93.63,14 c-2.18-0.29-1.16-0.73-3.21-0.15c-0.29,0-20.56-3.79-32.96-72.92c-3.79-21-15.02-40.25-31.64-54.25L127.09,130.23 c-1.31-1.16-2.91-2.04-4.52-2.62c-1.02-0.44-27.56-9.77-55.12-9.77c-32.08,0-48.27,12.83-56.15,23.62 C-3,161.15-3.73,189.88,9.11,229.55c3.35,9.77,84.73,241.21,338.63,389.08c42.29,24.64,89.83,37.62,137.38,37.62 c30.77,0,60.67-5.4,88.82-16.19c63.14-24.21,104.12-68.84,122.06-132.71C745.87,329.29,313.9,83.27,294.95,72.62L294.95,72.62z  M137.94,119.48l80.46,52.51c3.5,2.29,6.64,5.04,9.32,8.19l59.68,70.12c6.48,7.62,14.36,13.73,23.42,18.17l65.68,32.16 c5.43,2.66,10.15,6.31,14.03,10.88l57.29,67.3c6.48,7.62,14.36,13.73,23.43,18.17l15.18,7.43c14.85,7.26,24.07,21.81,24.07,37.98 v21.81c0,8.06,6.53,14.58,14.58,14.58s14.58-6.52,14.58-14.58v-21.81c0-27.39-15.49-51.98-40.42-64.18l-15.17-7.43 c-5.45-2.67-10.17-6.32-14.04-10.88l-57.29-67.3c-6.5-7.63-14.38-13.75-23.42-18.17l-65.67-32.15c-5.45-2.67-10.17-6.32-14.04-10.88 l-59.68-70.13c-4.5-5.29-9.75-9.9-15.59-13.72l-80.46-52.51c-6.74-4.42-15.78-2.49-20.18,4.24 C129.3,106.04,131.19,115.07,137.94,119.48L137.94,119.48z"/>
</svg>