<svg xmlns="http://www.w3.org/2000/svg" viewBox="0 0 700 700">
<path d="M341.81,3.29c-6.22,6.48-19.18,20.59-32.06,43.11c-22.41-13.48-43.24-19.47-49.68-21.05c-5.98-1.37-11.99,2.11-13.77,8 c0,0-12.21,40.68-6.31,83.1c-18.59-3.73-35.81-3.94-41.06-3.53c-6.71,0.4-11.72,6.33-10.94,13.01 c6.24,54.07,40.03,100.32,73.71,132.27c17.14,16.26,34.7,29.32,49.88,38.42c9.81,5.88,18.84,10.17,26.68,12.63v145.09l-34.91-13.24 c0.56-7.7,0.19-16.78-1.11-26.96c-2.26-17.56-7.17-38.87-15.2-61.09c-15.78-43.67-44.61-93.15-91.64-120.54 c-5.8-3.39-13.26-1.19-16.29,4.81c-2.48,4.66-9.21,20.49-13.23,39.01c-36.49-22.41-78.66-27.5-78.66-27.5 c-6.09-0.73-11.73,3.38-12.87,9.41c-1.12,6.53-3.96,28-0.59,53.93c-25.79,2.78-43.9,8.99-52.34,12.1c-2.71,1.11-4.92,3.22-6.15,5.88 c-1.37,2.86-1.52,6.14-0.41,9.11c0,0,9.32,23.97,26.66,46.67c-19.38,13.51-33.57,29.8-39.21,37.05c-3.66,4.93-2.88,11.86,1.8,15.84 c0,0,32.96,27.85,73.51,38.98c-10.19,14.51-17.6,30.36-19.67,36.25c-2.33,6.27,1.07,13.2,7.45,15.2 c52.08,15.97,107.79,3.75,150.92-14.45c21.77-9.19,40.74-20.02,55.17-30.28c10.33-7.35,18.68-14.66,24.06-21.44l42.75,16.22v208.76 c-0.35,15.9,23.69,15.9,23.33,0V479.34l42.84-16.25c5.38,6.78,13.73,14.09,24.06,21.44c14.42,10.26,33.39,21.1,55.17,30.28 c43.12,18.19,98.83,30.42,150.92,14.45c6.38-2,9.78-8.93,7.45-15.2c-2.06-5.89-9.47-21.75-19.67-36.25 c40.55-11.14,73.51-38.98,73.51-38.98c4.68-3.98,5.45-10.9,1.8-15.84c-5.65-7.25-19.83-23.54-39.21-37.05 c17.34-22.69,26.66-46.67,26.66-46.67c1.1-2.97,0.96-6.26-0.41-9.11c-1.23-2.66-3.44-4.77-6.15-5.88 c-8.44-3.1-26.55-9.32-52.34-12.1c3.37-25.93,0.54-47.4-0.59-53.93c-1.14-6.03-6.78-10.15-12.87-9.41c0,0-42.16,5.09-78.66,27.51 c-4.03-18.53-10.76-34.36-13.24-39.01c-3.03-6-10.49-8.2-16.29-4.81c-47.03,27.39-75.87,76.87-91.64,120.54 c-8.03,22.22-12.94,43.53-15.2,61.09c-1.31,10.18-1.68,19.25-1.11,26.96l-35,13.29l-0.02-145.13c7.87-2.44,16.95-6.74,26.8-12.65 c15.18-9.1,32.71-22.15,49.86-38.42c33.95-32.22,67.49-78.34,73.74-132.45c0.73-6.65-4.27-12.52-10.94-12.9 c-6.22-0.47-23.73-0.04-41.11,3.46c6.05-41.62-6.27-82.96-6.27-82.96c-1.77-5.88-7.8-9.37-13.79-8c-8.9,2.27-29.53,8.73-49.68,21.08 c-13.84-24.98-32.06-43.14-32.06-43.14c-2.28-2.2-5.35-3.4-8.52-3.28C346.72,0.1,343.93,1.25,341.81,3.29L341.81,3.29z"/>
</svg>