<svg xmlns="http://www.w3.org/2000/svg" viewBox="0 0 16 16">
<path d="M12,11c0-0.27-0.1-0.51-0.3-0.7S11.27,10,11,10s-0.51,0.1-0.7,0.3S10,10.73,10,11s0.1,0.51,0.3,0.7S10.73,12,11,12 s0.51-0.1,0.7-0.3S12,11.27,12,11z M6,5c0-0.27-0.1-0.51-0.3-0.7S5.27,4,5,4S4.49,4.1,4.3,4.3S4,4.73,4,5c0,0.27,0.1,0.51,0.3,0.7 S4.73,6,5,6s0.51-0.1,0.7-0.3S6,5.27,6,5z M14,11c0,0.83-0.29,1.53-0.88,2.12C12.54,13.71,11.83,14,11,14s-1.53-0.29-2.12-0.88 S8,11.83,8,11c0-0.83,0.29-1.54,0.88-2.12C9.47,8.29,10.17,8,11,8c0.83,0,1.53,0.29,2.12,0.88C13.71,9.47,14,10.17,14,11z  M13.25,2.5c0,0.1-0.03,0.2-0.1,0.3l-8.25,11C4.8,13.93,4.67,14,4.5,14H3.25C3.11,14,3,13.95,2.9,13.85 c-0.1-0.1-0.15-0.22-0.15-0.35c0-0.1,0.03-0.2,0.1-0.3l8.25-11C11.2,2.07,11.33,2,11.5,2h1.25C12.89,2,13,2.05,13.1,2.15 C13.2,2.25,13.25,2.36,13.25,2.5z M8,5c0,0.83-0.29,1.53-0.88,2.12S5.83,8,5,8S3.46,7.71,2.88,7.12S2,5.83,2,5 c0-0.83,0.29-1.54,0.88-2.12S4.17,2,5,2s1.53,0.29,2.12,0.88S8,4.17,8,5z"/>
</svg>