<svg xmlns="http://www.w3.org/2000/svg" viewBox="0 0 16 16">
<path d="M6.84,6.72c0.7,0.67,2.01,1,2.94,0.73l4.84-1.41c0.93-0.27,1.11-1.03,0.41-1.7l-3.65-3.51c-0.7-0.67-2.02-1-2.94-0.73 L3.6,1.51c-0.93,0.27-1.11,1.03-0.41,1.7L6.84,6.72z M9.22,1.05c0.46-0.13,1.12,0.03,1.47,0.36c0.35,0.34,0.26,0.72-0.21,0.85 C10.02,2.4,9.37,2.24,9.02,1.9C8.67,1.57,8.76,1.19,9.22,1.05z M8.52,3.24C8.98,3.1,9.64,3.27,9.99,3.6 c0.35,0.34,0.26,0.72-0.21,0.85C9.32,4.58,8.66,4.42,8.31,4.09C7.96,3.75,8.05,3.37,8.52,3.24z M8,5.37 c0.46-0.14,1.12,0.03,1.47,0.36c0.35,0.34,0.26,0.72-0.21,0.85C8.8,6.71,8.15,6.55,7.8,6.22C7.45,5.88,7.54,5.5,8,5.37z M14.68,6.25 l-4.87,1.4C8.88,7.92,7.94,8.9,7.71,9.83l-1.2,4.89c-0.23,0.94,0.34,1.48,1.27,1.21l4.87-1.4c0.93-0.27,1.87-1.24,2.1-2.18l1.2-4.89 C16.18,6.52,15.61,5.98,14.68,6.25L14.68,6.25z M9.53,13.58c-0.11,0.47-0.58,0.96-1.05,1.09c-0.47,0.13-0.75-0.13-0.63-0.6 c0.11-0.47,0.58-0.95,1.05-1.09C9.36,12.84,9.64,13.11,9.53,13.58z M10.07,11.36c-0.11,0.47-0.58,0.95-1.05,1.09 c-0.47,0.13-0.75-0.13-0.64-0.6c0.11-0.47,0.58-0.95,1.05-1.09C9.9,10.62,10.18,10.9,10.07,11.36L10.07,11.36z M10.61,9.15 c-0.11,0.47-0.59,0.95-1.05,1.09c-0.47,0.13-0.75-0.14-0.63-0.6c0.11-0.47,0.58-0.95,1.05-1.09C10.44,8.41,10.73,8.68,10.61,9.15z  M13.74,12.36c-0.11,0.47-0.58,0.95-1.05,1.09c-0.46,0.13-0.75-0.13-0.63-0.6c0.11-0.47,0.58-0.95,1.05-1.09 C13.57,11.62,13.86,11.89,13.74,12.36z M14.22,10.16c-0.11,0.47-0.58,0.95-1.05,1.09c-0.46,0.13-0.75-0.14-0.63-0.6 c0.11-0.47,0.58-0.95,1.05-1.09C14.05,9.43,14.34,9.7,14.22,10.16z M14.83,7.93c-0.11,0.47-0.58,0.95-1.05,1.09 c-0.46,0.13-0.75-0.14-0.63-0.6c0.11-0.47,0.59-0.95,1.05-1.09C14.66,7.2,14.94,7.46,14.83,7.93z M6.64,6.87L2.98,3.36 C2.28,2.69,1.53,2.9,1.29,3.83L0.07,8.72c-0.23,0.93,0.14,2.23,0.84,2.91l3.65,3.51c0.7,0.67,1.45,0.46,1.69-0.48l1.22-4.89 C7.71,8.84,7.33,7.54,6.64,6.87L6.64,6.87z M2.35,10.54c-0.12,0.47-0.49,0.57-0.84,0.24C1.16,10.45,0.97,9.8,1.09,9.33 c0.12-0.47,0.5-0.57,0.84-0.24C2.28,9.43,2.47,10.08,2.35,10.54z M2.62,6.36C2.27,6.03,2.08,5.37,2.2,4.91 c0.12-0.47,0.49-0.57,0.84-0.24c0.35,0.34,0.54,0.98,0.42,1.45C3.34,6.59,2.97,6.7,2.62,6.36L2.62,6.36z M3.62,10.19 C3.27,9.85,3.08,9.2,3.2,8.74C3.32,8.27,3.7,8.16,4.04,8.5c0.35,0.33,0.54,0.98,0.42,1.45C4.35,10.41,3.97,10.52,3.62,10.19 L3.62,10.19z M5.52,13.58c-0.12,0.47-0.5,0.57-0.84,0.24c-0.35-0.34-0.54-0.98-0.42-1.45c0.12-0.47,0.49-0.57,0.84-0.24 C5.44,12.47,5.63,13.12,5.52,13.58L5.52,13.58z M6.62,9.16C6.51,9.63,6.13,9.73,5.78,9.4C5.43,9.06,5.24,8.41,5.36,7.95 C5.48,7.48,5.85,7.37,6.2,7.71C6.55,8.04,6.74,8.69,6.62,9.16L6.62,9.16z"/>
</svg>