<svg xmlns="http://www.w3.org/2000/svg" viewBox="0 0 16 16">
<path d="M8 16q-1.625 0-3.109-0.633t-2.555-1.703-1.703-2.555-0.633-3.109 0.633-3.109 1.703-2.555 2.555-1.703 3.109-0.633 3.109 0.633 2.555 1.703 1.703 2.555 0.633 3.109-0.633 3.109-1.703 2.555-2.555 1.703-3.109 0.633zM9 2.078v1.953q0 0.406-0.289 0.703t-0.711 0.297-0.711-0.297-0.289-0.703v-1.953q-1.875 0.313-3.234 1.672t-1.672 3.25h1.906q0.422 0 0.711 0.289t0.289 0.703-0.289 0.711-0.711 0.297h-1.906q0.313 1.875 1.672 3.234t3.234 1.672v-1.906q0-0.406 0.289-0.695t0.711-0.289 0.711 0.289 0.289 0.695v1.906q1.875-0.313 3.234-1.672t1.672-3.234h-1.922q-0.406 0-0.695-0.297t-0.289-0.711 0.289-0.703 0.695-0.289h1.922q-0.313-1.891-1.672-3.25t-3.234-1.672z"/>
</svg>