<svg xmlns="http://www.w3.org/2000/svg" viewBox="0 0 16 16">
<path d="M15.703 15.703q-0.297 0.297-0.711 0.297t-0.711-0.297l-3.094-3.094q-1.875 1.391-4.188 1.391-1.422 0-2.719-0.555t-2.234-1.492-1.492-2.227-0.555-2.719 0.555-2.727 1.492-2.227 2.234-1.484 2.719-0.555 2.719 0.555 2.234 1.484 1.492 2.227 0.555 2.719q0 2.328-1.391 4.188l3.094 3.094q0.297 0.297 0.297 0.711t-0.297 0.711zM7 2.016q-1.359 0-2.508 0.664t-1.82 1.82-0.672 2.508 0.672 2.508 1.82 1.82 2.508 0.664 2.508-0.664 1.82-1.82 0.672-2.508-0.672-2.508-1.82-1.82-2.508-0.664z"/>
</svg>