<svg xmlns="http://www.w3.org/2000/svg" viewBox="0 0 16 16">
<path d="M0.16,15.05l0.8,0.8C1.06,15.95,1.18,16,1.34,16s0.28-0.05,0.4-0.16l2.8-2.81l1.83,1.83c0.09,0.1,0.21,0.16,0.36,0.16 s0.27-0.05,0.38-0.16l0.75-0.75C7.95,14.01,8,13.88,8,13.73c0-0.15-0.05-0.27-0.16-0.36l-1.33-1.33l9.23-9.23 c0.04-0.05,0.08-0.11,0.12-0.16s0.06-0.11,0.08-0.15c0.02-0.04,0.03-0.09,0.04-0.15C15.99,2.3,16,2.25,16,2.22V0.5 c0-0.14-0.05-0.25-0.15-0.35S15.64,0,15.5,0h-1.73c0,0-0.04,0.01-0.13,0.02c-0.08,0.01-0.13,0.02-0.15,0.04 c-0.02,0.02-0.06,0.04-0.15,0.08c-0.08,0.04-0.14,0.08-0.16,0.12L3.95,9.49L2.63,8.16C2.53,8.05,2.41,8,2.27,8 C2.12,8,2,8.05,1.89,8.16L1.14,8.91c-0.1,0.1-0.16,0.23-0.16,0.38s0.05,0.27,0.16,0.38l1.83,1.81l-2.81,2.8 C0.05,14.38,0,14.52,0,14.67C0,14.82,0.05,14.94,0.16,15.05L0.16,15.05z"/>
<polygon points="15,8 14,8 14,13 11.99,13 12,11 9.5,13.5 11.97,15.97 11.98,14 15,14 "/>
</svg>