<svg xmlns="http://www.w3.org/2000/svg" viewBox="0 0 16 16">
<path d="M5.13,8C4.29,8.03,3.6,8.36,3.06,9H2.02C1.59,9,1.23,8.89,0.94,8.68S0.5,8.16,0.5,7.76C0.5,5.92,0.82,5,1.47,5 C1.5,5,1.61,5.05,1.81,5.16C2,5.27,2.26,5.38,2.57,5.5C2.88,5.61,3.19,5.66,3.5,5.66c0.35,0,0.69-0.06,1.04-0.18 C4.51,5.68,4.5,5.85,4.5,6C4.5,6.72,4.71,7.39,5.13,8L5.13,8z M13.5,12.98c0,0.62-0.19,1.12-0.57,1.48S12.04,15,11.41,15H4.59 c-0.63,0-1.14-0.18-1.52-0.54S2.5,13.6,2.5,12.98c0-0.28,0.01-0.55,0.03-0.81c0.02-0.26,0.05-0.55,0.11-0.85 c0.05-0.3,0.12-0.59,0.21-0.85c0.08-0.26,0.2-0.51,0.34-0.76s0.3-0.46,0.48-0.63c0.18-0.17,0.4-0.31,0.67-0.42S4.88,8.5,5.2,8.5 c0.05,0,0.16,0.06,0.34,0.17S5.9,8.9,6.11,9.04s0.49,0.26,0.84,0.38C7.29,9.53,7.64,9.59,8,9.59c0.35,0,0.71-0.06,1.05-0.17 C9.4,9.31,9.68,9.18,9.89,9.04c0.21-0.14,0.4-0.26,0.57-0.38S10.74,8.5,10.8,8.5c0.32,0,0.61,0.05,0.87,0.16s0.49,0.24,0.67,0.42 c0.18,0.17,0.34,0.39,0.48,0.63c0.14,0.25,0.25,0.5,0.34,0.76c0.08,0.26,0.15,0.54,0.21,0.85c0.05,0.3,0.09,0.59,0.11,0.85 C13.49,12.43,13.5,12.7,13.5,12.98L13.5,12.98z M5.5,3c0,0.55-0.2,1.02-0.59,1.41C4.52,4.8,4.05,5,3.5,5S2.48,4.8,2.09,4.41 S1.5,3.55,1.5,3s0.2-1.02,0.59-1.41S2.95,1,3.5,1s1.02,0.2,1.41,0.59C5.3,1.98,5.5,2.45,5.5,3z M11,6c0,0.83-0.29,1.53-0.88,2.12 S8.83,9,8,9S6.46,8.71,5.88,8.12S5,6.83,5,6c0-0.83,0.29-1.53,0.88-2.12S7.17,3,8,3c0.83,0,1.53,0.29,2.12,0.88S11,5.17,11,6z  M15.5,7.76c0,0.41-0.15,0.71-0.44,0.93C14.77,8.9,14.41,9,13.98,9h-1.05c-0.54-0.64-1.23-0.97-2.07-1c0.42-0.61,0.63-1.28,0.63-2 c0-0.15-0.01-0.32-0.04-0.52c0.34,0.12,0.69,0.18,1.04,0.18c0.31,0,0.62-0.06,0.93-0.17c0.31-0.11,0.57-0.22,0.76-0.33 S14.5,5,14.53,5C15.18,5,15.5,5.92,15.5,7.76L15.5,7.76z M14.5,3c0,0.55-0.2,1.02-0.59,1.41C13.52,4.8,13.05,5,12.5,5 s-1.02-0.2-1.41-0.59C10.7,4.02,10.5,3.55,10.5,3s0.2-1.02,0.59-1.41C11.48,1.2,11.95,1,12.5,1s1.02,0.2,1.41,0.59 C14.3,1.98,14.5,2.45,14.5,3z"/>
</svg>
